<svg id="Capa_1_copia" data-name="Capa 1 copia" xmlns="http://www.w3.org/2000/svg" viewBox="0 0 48.6 62.84"><defs><style>.cls-1{fill:none;stroke-linecap:round;stroke-linejoin:round;stroke-width:3px;}.cls-1,.cls-2{stroke:#000;}.cls-2{font-size:12px;stroke-miterlimit:10;stroke-width:0.5px;font-family:Kanit-Medium, Kanit;font-weight:500;}.cls-3{letter-spacing:0.04em;}.cls-4{letter-spacing:0.06em;}</style></defs><g id="Capa_5" data-name="Capa 5"><path class="cls-1" d="M4.5,59.94v-44a1.37,1.37,0,0,1,1.4-1.4H33.1a1.28,1.28,0,0,1,1,.4l7.4,7.4a2.19,2.19,0,0,1,.3.5,1.09,1.09,0,0,1,.1.5v36.6a.75.75,0,0,1-.1.5c-.1.2-.2.3-.3.5a2.19,2.19,0,0,1-.5.3,1.09,1.09,0,0,1-.5.1H5.9a.75.75,0,0,1-.5-.1c-.2-.1-.3-.2-.5-.3a2.19,2.19,0,0,1-.3-.5A.9.9,0,0,1,4.5,59.94Z"/><polyline class="cls-1" points="41.8 22.84 32.5 23.14 33.1 14.54"/></g><text class="cls-2" transform="translate(10.54 44.49)"><tspan class="cls-3">CL</tspan><tspan class="cls-4" x="14.47" y="0">I</tspan><tspan x="18.18" y="0">P</tspan></text></svg>