<?xml version="1.0" encoding="utf-8"?>
<!-- Generator: Adobe Illustrator 26.3.0, SVG Export Plug-In . SVG Version: 6.00 Build 0)  -->
<svg version="1.1" xmlns="http://www.w3.org/2000/svg" xmlns:xlink="http://www.w3.org/1999/xlink" x="0px" y="0px"
	 viewBox="0 0 50 50" style="enable-background:new 0 0 50 50;" xml:space="preserve">
<style type="text/css">
	.st0{display:none;}
	.st1{display:inline;fill:none;stroke:#1D1D1B;stroke-width:3;stroke-linejoin:round;stroke-miterlimit:10;}
	.st2{display:inline;fill:none;stroke:#000000;stroke-width:2;stroke-miterlimit:10;}
	.st3{display:inline;fill:none;stroke:#000000;stroke-width:2;stroke-linecap:round;stroke-miterlimit:10;}
	.st4{display:inline;fill:none;stroke:#1D1D1B;stroke-width:3;stroke-linecap:round;stroke-linejoin:round;stroke-miterlimit:10;}
</style>
<g id="Capa_3">
</g>
<g id="Capa_1" class="st0">
	<rect x="2.1" y="7.7" class="st1" width="45.6" height="37.6"/>
	<line class="st2" x1="25" y1="8.7" x2="25" y2="44.5"/>
	<line class="st3" x1="28.6" y1="16.6" x2="43.6" y2="16.6"/>
	<line class="st3" x1="28.6" y1="21.9" x2="43.6" y2="21.9"/>
	<line class="st3" x1="28.6" y1="27.1" x2="43.6" y2="27.1"/>
	<line class="st3" x1="28.6" y1="32.3" x2="43.6" y2="32.3"/>
	<line class="st3" x1="6.2" y1="16.6" x2="21.2" y2="16.6"/>
	<line class="st3" x1="6.2" y1="21.9" x2="21.2" y2="21.9"/>
	<line class="st3" x1="6.2" y1="27.1" x2="21.2" y2="27.1"/>
	<line class="st3" x1="6.2" y1="32.3" x2="21.2" y2="32.3"/>
</g>
<g id="Capa_4">
	<path d="M44.6,44.7V50l-4.5-2.9l-12-22.5c1.7-0.5,3.2-1.4,4.5-2.5L44.6,44.7z M32.1,12.5c0,2-0.8,3.9-2.2,5.3
		c-1.4,1.4-3.3,2.2-5.3,2.2h-1.1L9.1,47.1L4.6,50v-5.3L19,17.5c-2.8-3.1-2.5-7.8,0.6-10.6C21,5.7,22.7,5,24.6,5V0
		c0.7,0,1.3,0.3,1.8,0.7c0.5,0.5,0.7,1.1,0.7,1.8v3C30.1,6.5,32.1,9.3,32.1,12.5z M27.1,12.5c0-0.7-0.3-1.3-0.7-1.8
		c-0.5-0.5-1.1-0.7-1.8-0.7c-0.7,0-1.3,0.3-1.8,0.7c-0.5,0.5-0.7,1.1-0.7,1.8s0.3,1.3,0.7,1.8c0.5,0.5,1.1,0.7,1.8,0.7
		c0.7,0,1.3-0.3,1.8-0.7C26.8,13.8,27.1,13.2,27.1,12.5z"/>
</g>
<g id="Capa_2" class="st0">
	<polygon class="st1" points="8,6.1 39.8,6.1 45.9,17.6 45.9,46.9 8,46.9 	"/>
	<polygon class="st1" points="45.9,17.6 37,17.6 39.8,6.1 	"/>
	<line class="st4" x1="13.1" y1="21.1" x2="32.2" y2="21.1"/>
	<line class="st4" x1="13.1" y1="28.3" x2="25.9" y2="28.3"/>
	<line class="st4" x1="13.1" y1="34.4" x2="31.2" y2="34.4"/>
</g>
</svg>
