<svg width="248" height="326" viewBox="0 0 248 326" fill="none" xmlns="http://www.w3.org/2000/svg">
<path d="M77.0708 156.344C100.983 170.584 130.154 153.805 128.783 153.513C83.5785 143.684 79.5842 115.165 79.5842 115.165C88.6088 93.1144 113.208 100.213 113.208 100.213C113.92 131.505 151.165 133.268 151.165 133.268C153.557 123.115 153.426 99.4085 153.426 99.4085C164.714 91.516 167 94.8659 167 94.8659C163.44 63.5379 149.104 53.4382 149.104 53.4382C146.715 51.2132 136.039 46.2114 130.556 45.5635L130.36 46.4321C130.36 46.4321 135.903 60.2734 125.28 61.1848C116.341 61.968 111.261 50.964 109.876 47.4716C98.2529 51.0744 87.1599 59.1378 79.78 72.7014C62.3218 104.791 77.0708 156.344 77.0708 156.344Z" fill="#2E2E2E"/>
<path d="M74.4862 142.841L16.3835 181.289C5.11606 188.743 6.56498 205.71 18.9217 211.147L86.9177 241.072C93.2414 243.854 100.174 244.962 107.05 244.289C113.926 243.617 120.513 241.186 126.177 237.231L152.29 218.975" stroke="black" stroke-width="4.21" stroke-miterlimit="10"/>
<path d="M74.4861 155.239L76.4405 153.943L16.3727 193.68C5.10527 201.135 6.55419 218.102 18.911 223.538L86.907 253.463C93.2306 256.245 100.164 257.354 107.039 256.681C113.915 256.008 120.502 253.577 126.167 249.622L159.367 225.976" stroke="black" stroke-width="4.21" stroke-miterlimit="10"/>
<path d="M23.9237 209.024L86.4195 236.532C92.2312 239.088 98.6029 240.106 104.922 239.488C111.241 238.869 117.294 236.635 122.5 233.001L146.448 216.176C143.151 213.649 139.456 211.688 135.515 210.373C125.644 207.02 116.01 203.004 106.679 198.351C99.5969 194.847 93.3754 189.823 88.4598 183.636C83.5438 177.449 80.0549 170.253 78.2422 162.562C76.9891 157.24 75.889 151.857 74.9884 146.446L19.9864 182.805C9.63388 189.654 12.5709 204.033 23.9237 209.024Z" fill="white"/>
<path d="M184.96 288.747C184.96 288.747 174.002 284.204 171.902 280.779C171.902 280.779 171.507 288.554 173.557 291.21C175.608 293.866 187.861 300.886 188.52 300.007C189.179 299.128 184.96 288.747 184.96 288.747Z" fill="white"/>
<path d="M218.691 307.274C218.691 307.274 216.697 309.979 209.624 307.274C202.55 304.568 187.16 294.604 187.16 294.604C187.16 294.604 191.453 306.131 193.009 307.398C194.565 308.666 223.956 323.062 223.956 323.062C223.956 323.062 237.096 324.931 232.144 315.586L218.691 307.274Z" fill="white"/>
<path d="M176.391 156.656C192.589 162.961 209.73 177.774 204.8 218.796L203.429 229.455" stroke="black" stroke-width="4.21" stroke-miterlimit="10"/>
<path d="M176.416 129.867C173.767 126.086 171.375 121.999 169.908 117.599C168.442 113.199 168.367 108.432 167.957 103.804C166.868 91.3941 165.181 81.1306 160.392 69.5713C156.245 59.5677 143.717 46.6805 131.254 45.4594L130.132 45.3633" stroke="black" stroke-width="4.21" stroke-miterlimit="10"/>
<path d="M145.088 155.748C145.149 155.574 145.209 155.41 145.273 155.239" stroke="black" stroke-width="4.21" stroke-miterlimit="10"/>
<path d="M151.166 132.498C151.778 128.899 152.234 125.41 152.59 122.099C152.589 122.037 152.596 121.975 152.611 121.914C154.476 103.427 152.59 89.9775 152.59 89.9775" stroke="black" stroke-width="4.21" stroke-miterlimit="10"/>
<path d="M107.623 20.2943L110.471 21.4052C110.471 21.4942 110.471 22.6049 110.592 24.1606C110.724 26.0186 111.02 27.8612 111.475 29.6679C111.222 28.4362 110.855 25.5098 112.464 23.4735C112.489 23.4319 112.518 23.3923 112.55 23.356C113.618 22.0709 114.935 22.58 115.992 23.4628C116.722 24.0805 117.36 24.8 117.886 25.5988C117.702 23.2204 118.128 20.8345 119.125 18.6673C119.775 17.189 120.637 15.8134 121.685 14.584C120.072 20.1376 122.14 23.7726 122.14 23.7726C127.605 25.0577 131.396 24.7836 134.223 24.2959C136.605 22.0744 135.779 14.0749 135.779 14.0749C138.175 16.0329 137.598 23.6088 137.598 23.6088C137.904 21.6319 137.866 19.6169 137.487 17.6527C138.678 19.3358 139.365 21.3222 139.47 23.381L139.513 23.3596C139.678 23.3172 139.841 23.266 140.001 23.2065C140.294 23.052 140.578 22.8808 140.852 22.6939L142.429 21.6259C140.047 9.47542 131.72 1.83566 118.854 4.07846C118.015 4.22321 117.188 4.43755 116.384 4.71926C107.907 9.13722 107.623 20.2943 107.623 20.2943Z" fill="white"/>
<path d="M181.044 138.628L184.287 128.867C184.359 128.639 184.487 128.434 184.66 128.27C184.834 128.106 185.046 127.989 185.277 127.93C185.305 127.93 185.337 127.93 185.369 127.909C185.401 127.888 185.408 127.909 185.43 127.909C185.505 127.904 185.579 127.904 185.654 127.909C186.014 127.91 186.36 128.047 186.622 128.293C186.886 128.537 187.096 128.832 187.24 129.16C187.384 129.488 187.459 129.843 187.459 130.202C187.459 130.482 187.414 130.761 187.327 131.027C186.615 133.089 185.348 136.809 184.746 138.503" fill="white"/>
<path d="M181.777 138.629L185.273 127.931C185.302 127.931 185.334 127.931 185.366 127.91C185.398 127.889 185.405 127.91 185.426 127.91L187.26 127.554C188.239 127.372 189.218 127.177 190.197 126.995C191.372 126.76 192.553 126.564 193.725 126.283C194.001 126.205 194.285 126.157 194.572 126.141C194.933 126.14 195.28 126.279 195.54 126.529C195.806 126.771 196.018 127.068 196.162 127.398C196.306 127.727 196.379 128.084 196.377 128.444C196.379 128.721 196.334 128.997 196.245 129.259C195.458 131.566 193.96 135.931 193.483 137.255L181.777 138.629Z" fill="white"/>
<path d="M112.657 89.9735C113.013 93.9357 113.198 98.7311 113.323 104.758C113.323 117.574 127.491 128.186 140.083 130.614L163.173 135.83C166.224 136.421 168.926 134.516 171.048 133.252C173.23 131.953 175.466 130.404 177.04 129.255C179.304 127.599 183.665 128.931 182.771 132.879C182.579 133.629 182.215 134.325 181.71 134.913C181.204 135.5 180.569 135.963 179.856 136.264C179.454 136.445 179.04 136.597 178.617 136.72C178.459 136.759 178.319 136.85 178.218 136.977C178.117 137.104 178.061 137.261 178.059 137.424C178.056 137.586 178.108 137.745 178.205 137.875C178.302 138.005 178.439 138.1 178.595 138.144C180.596 138.834 184.259 139.244 190.169 137.076C197.741 134.288 198.328 151.569 187.976 154.577H187.937C178.399 157.46 168.136 157.09 158.278 156.677C147.085 156.253 135.946 154.894 124.978 152.615C119.4 151.433 113.668 150.205 108.563 147.681C99.7698 143.334 93.433 138.35 87.4059 130.593C80.6419 121.896 77.7547 110.486 76.1243 99.7884C74.2588 87.5491 76.8363 77.2144 83.3973 66.6804L83.6394 66.2959" stroke="black" stroke-width="4.21" stroke-miterlimit="10"/>
<path d="M181.044 138.628L184.287 128.867C184.359 128.639 184.487 128.434 184.66 128.27C184.834 128.106 185.046 127.989 185.277 127.93C185.305 127.93 185.337 127.93 185.369 127.909C185.401 127.888 185.408 127.909 185.43 127.909C185.505 127.904 185.579 127.904 185.654 127.909C186.014 127.91 186.36 128.047 186.622 128.293C186.886 128.537 187.096 128.832 187.24 129.16C187.384 129.488 187.459 129.843 187.459 130.202C187.459 130.482 187.414 130.761 187.327 131.027C186.615 133.089 185.348 136.809 184.746 138.503" stroke="black" stroke-width="4.21" stroke-miterlimit="10"/>
<path d="M185.273 127.931C185.302 127.931 185.334 127.931 185.366 127.91C185.398 127.889 185.405 127.91 185.426 127.91L187.26 127.554C188.239 127.372 189.218 127.177 190.197 126.995C191.372 126.76 192.553 126.564 193.725 126.283C194.001 126.205 194.285 126.157 194.572 126.141C194.933 126.14 195.28 126.279 195.54 126.529C195.806 126.771 196.018 127.068 196.162 127.398C196.306 127.727 196.379 128.084 196.377 128.444C196.379 128.721 196.334 128.997 196.245 129.259C195.458 131.566 193.96 135.931 193.483 137.255" stroke="black" stroke-width="4.21" stroke-miterlimit="10"/>
<path d="M140.578 23.0312C140.578 27.6593 139.677 32.0843 137.456 36.1712C135.676 39.4535 133.063 42.7608 129.325 43.8466C128.497 44.0854 127.638 44.2054 126.776 44.2026C120.432 44.1741 119.442 36.6589 119.442 36.6589" stroke="black" stroke-width="4.21" stroke-miterlimit="10"/>
<path d="M110.806 25.7168V25.7382C111.1 28.0344 111.605 30.2989 112.315 32.5022C113.164 35.1305 113.364 37.9251 112.899 40.6474L111.913 46.3826C111.868 46.6382 111.752 46.876 111.578 47.0686C111.405 47.2612 111.18 47.4011 110.93 47.472C98.4135 51.1067 87.3028 59.1274 80.8378 70.7081C72.7744 85.1688 71.3041 102.584 71.9556 118.818C72.5288 132.891 74.8036 146.881 78.0325 160.577C80.0062 168.947 83.804 176.778 89.154 183.511C94.5043 190.244 101.275 195.713 108.983 199.527C119.126 204.591 129.601 208.962 140.336 212.61C146.019 214.491 151.21 217.616 155.534 221.756C159.858 225.896 163.204 230.948 165.331 236.544L190.557 303.621C191.484 306.097 193.312 308.132 195.676 309.317L219.849 321.46C222.901 322.988 226.383 323.43 229.721 322.713C230.586 322.527 231.375 322.084 231.985 321.442C232.595 320.801 232.998 319.99 233.14 319.117C233.283 318.243 233.16 317.347 232.786 316.544C232.412 315.742 231.806 315.071 231.045 314.618L218.699 307.274L201.721 220.723C200.526 213.001 197.673 205.63 193.359 199.116C189.044 192.602 183.37 187.099 176.726 182.987C175.841 182.447 174.918 181.971 173.964 181.563L137.161 165.582" stroke="black" stroke-width="4.21" stroke-miterlimit="10"/>
<path d="M120.923 3.24228C122.89 2.77335 124.927 2.66958 126.932 2.93612C127.014 2.93793 127.096 2.94509 127.178 2.95748" stroke="black" stroke-width="4.21" stroke-miterlimit="10"/>
<path d="M129.838 45.5732C129.838 45.5732 136.349 60.5003 124.704 61.2372C114.255 61.9065 110.421 47.7092 110.421 47.7092" stroke="black" stroke-width="4.21" stroke-miterlimit="10"/>
<path d="M111.625 30.2119C111.55 29.9378 110.428 25.89 112.572 23.3411C114.715 20.7921 117.62 25.1638 117.912 25.6017C117.342 19.3256 121.703 14.5659 121.703 14.5659C120.094 20.123 122.166 23.754 122.166 23.754C130.13 25.6195 134.512 24.199 137.62 23.5867C137.926 21.6109 137.887 19.5972 137.506 17.6346C138.699 19.3133 139.387 21.2984 139.489 23.3553H139.539C140.722 23.041 141.843 22.5294 142.857 21.8423L144.434 20.7743C142.048 8.62778 133.725 0.980901 120.859 3.2237C107.993 5.4665 107.634 20.2619 107.634 20.2619L110.5 21.376C110.5 21.376 110.475 26.2603 111.625 30.2119Z" stroke="black" stroke-width="4.21" stroke-miterlimit="10"/>
<path d="M135.587 29.5781V35.4842C135.587 35.5561 135.569 35.6269 135.536 35.6906C135.503 35.7547 135.456 35.8099 135.398 35.8523C135.34 35.8946 135.272 35.9224 135.201 35.9341C135.13 35.9455 135.058 35.9402 134.989 35.9185C134.524 35.7647 134.097 35.5148 133.736 35.1851" stroke="black" stroke-width="4.21" stroke-miterlimit="10"/>
<path d="M139.119 34.062C137.256 33.3358 136.564 30.6472 137.574 28.057C138.584 25.4667 140.913 23.9559 142.776 24.6821C144.639 25.4084 145.33 28.0969 144.321 30.6871C143.311 33.2774 140.982 34.7882 139.119 34.062Z" stroke="black" stroke-width="4.21" stroke-miterlimit="10"/>
<path d="M127.908 35.7515C126.045 35.0252 125.353 32.3367 126.363 29.7464C127.373 27.1562 129.702 25.6453 131.565 26.3716C133.428 27.0978 134.12 29.7863 133.11 32.3766C132.1 34.9668 129.771 36.4777 127.908 35.7515Z" stroke="black" stroke-width="4.21" stroke-miterlimit="10"/>
<path d="M137.153 29.8847C137.153 29.8847 136.05 28.6245 133.736 30.1019" stroke="black" stroke-width="4.21" stroke-miterlimit="10"/>
<path d="M130.36 43.4736C130.36 43.4736 129.559 46.1864 127.203 54.9796" stroke="black" stroke-width="4.21" stroke-miterlimit="10"/>
<path d="M189.364 300.451L175.48 292.958C174.685 292.527 174.006 291.907 173.504 291.154C173.003 290.401 172.692 289.537 172.6 288.636C170.293 265.976 170.998 251.651 170.998 251.651" stroke="black" stroke-width="4.21" stroke-miterlimit="10"/>
<path d="M201.966 184.246L255.398 146.905" stroke="black" stroke-width="4.21" stroke-miterlimit="10"/>
<path d="M204.992 194.535L255.398 159.306" stroke="black" stroke-width="4.21" stroke-miterlimit="10"/>
<path d="M0.601974 123.56V154.13C0.601974 155.531 1.00923 156.903 1.77392 158.078C2.53861 159.252 3.62796 160.18 4.90956 160.748L42.8236 177.537L54.4149 195.151C54.7133 195.588 55.1426 195.919 55.6413 196.095C56.1397 196.272 56.6819 196.285 57.1885 196.133C57.6951 195.981 58.1401 195.672 58.4594 195.251C58.7788 194.829 58.9557 194.317 58.9646 193.788V184.689L62.8521 186.408C63.7169 186.786 64.662 186.944 65.6026 186.866C66.5428 186.788 67.4495 186.478 68.2405 185.963C69.0316 185.449 69.6823 184.746 70.1345 183.918C70.5862 183.089 70.8255 182.161 70.8301 181.218V155.689C70.8297 152.505 69.8981 149.39 68.1505 146.729C66.4029 144.067 63.9155 141.974 60.9938 140.708L8.88964 118.12C7.98754 117.729 7.00214 117.567 6.02243 117.652C5.04272 117.736 4.09895 118.062 3.27695 118.602C2.45494 119.142 1.77998 119.877 1.3129 120.743C0.845833 121.608 0.601616 122.576 0.601974 123.56Z" fill="black"/>
<path d="M47.1111 163.515C45.2435 159.913 45.749 155.945 48.24 154.654C50.7309 153.363 54.2642 155.237 56.1318 158.84C57.999 162.443 57.4938 166.41 55.0029 167.701C52.512 168.993 48.9787 167.119 47.1111 163.515Z" fill="white"/>
<path d="M30.9186 156.584C29.0514 152.981 29.5565 149.014 32.0474 147.723C34.5384 146.431 38.0717 148.305 39.9393 151.908C41.8068 155.511 41.3013 159.478 38.8104 160.77C36.3194 162.061 32.7862 160.187 30.9186 156.584Z" fill="white"/>
<path d="M15.2715 149.1C13.4039 145.498 13.9091 141.53 16.4 140.239C18.8909 138.948 22.4242 140.822 24.2918 144.425C26.1594 148.027 25.6539 151.995 23.1629 153.286C20.6723 154.577 17.139 152.703 15.2715 149.1Z" fill="white"/>
</svg>
