<svg id="Capa_2_copia" data-name="Capa 2 copia" xmlns="http://www.w3.org/2000/svg" viewBox="0 0 219.33 51.71"><defs><style>.cls-1{fill:#30c;}</style></defs><path class="cls-1" d="M204.3,35.36H193.81c-1.26,0-1.33.39-1,1.42,2.19,6.55,10.4,9.43,16.64,5.81a12.75,12.75,0,0,1,2.8-1.43,3.61,3.61,0,0,1,4.21,1.51,4.28,4.28,0,0,1-.79,4.6,16.3,16.3,0,0,1-8.62,4c-7,1.31-13.32-.23-18.15-5.58-5.16-5.69-5.9-12.61-3.62-19.77a17.18,17.18,0,0,1,13.44-12.28c9.61-2.09,19.83,5.83,20.37,15.68a4.62,4.62,0,0,0,.08.65c.69,3.23-.91,5.33-4.22,5.38C211.4,35.41,207.85,35.36,204.3,35.36Zm-2.88-6.94h6.47c.85,0,2.07.46,2.47-.29.52-1-.15-2.14-.74-3.09a8.54,8.54,0,0,0-.91-1.17c-2.21-2.42-5-2.94-8.14-2.8a8.17,8.17,0,0,0-7.75,6.11c-.23.9-.09,1.31,1,1.28C196.33,28.38,198.88,28.42,201.42,28.42Z"/><path class="cls-1" d="M85.65,28.81c-.19,3.25.4,7.27-.4,11.23-1.3,6.44-5.52,10.29-12,11.39A20.19,20.19,0,0,1,64.57,51,13.65,13.65,0,0,1,54.31,37.77c-.19-6.6-.09-13.21-.06-19.82a3.81,3.81,0,0,1,3.57-3.89,3.93,3.93,0,0,1,4.52,3.22h0a9.59,9.59,0,0,1,.16,2V34.93a26.67,26.67,0,0,0,.09,2.83,6.62,6.62,0,0,0,6.88,6.35h.12c4.6,0,7.28-2.12,7.66-6.29.53-5.65.11-11.32.23-17V18.48c0-2.8,1.54-4.42,4.06-4.43s4.08,1.6,4.11,4.37C85.67,21.64,85.65,24.86,85.65,28.81Z"/><path class="cls-1" d="M107,13.31c3.92.28,8.51.92,11.87,4.73,2.17,2.46,1.53,5.22-1.37,6.22a3.21,3.21,0,0,1-3.56-1.1c-2.72-2.84-6-3.52-9.75-2.78a3.21,3.21,0,0,0-2.87,2.81A3.48,3.48,0,0,0,103.13,27a25.21,25.21,0,0,0,5.78,2,32.25,32.25,0,0,1,7,2.62,9.89,9.89,0,0,1,4,13.4,9.79,9.79,0,0,1-2.64,3.12c-4.63,3.72-9.91,4.19-15.52,2.77a15.37,15.37,0,0,1-8.84-5.24c-1.43-1.82-1.41-3.73,0-5.08a4.11,4.11,0,0,1,5.42.1c2.69,2.57,5.71,4.35,9.55,4.35a8.76,8.76,0,0,0,3.53-.77,3.54,3.54,0,0,0,1.82-4.66,3.59,3.59,0,0,0-1.2-1.47,16.26,16.26,0,0,0-5-2.08,47,47,0,0,1-8.14-2.85,9.6,9.6,0,0,1-5.65-9.55,9.57,9.57,0,0,1,4.29-7.52A15.9,15.9,0,0,1,107,13.31Z"/><path class="cls-1" d="M139.77,32.36v8.33c0,2.42,1.51,3.52,3.84,2.88,2.56-.69,3.63-.37,4.31,1.31.79,1.94,0,3.68-2,4.9-4.29,2.55-11.23.92-13.13-2.54a10.74,10.74,0,0,1-1.3-5.24V25c0-2.57,0-2.6-2.5-2.56a5.13,5.13,0,0,1-2.68-.69,3.78,3.78,0,0,1,1.32-7c1.26-.21,3,.67,3.68-.51.59-1,.15-2.6.19-3.93a4.13,4.13,0,0,1,7.8-2,6.37,6.37,0,0,1,.49,2.92c0,.73.06,1.45,0,2.17-.13,1.15.4,1.43,1.44,1.37s2.33,0,3.49,0a3.72,3.72,0,0,1,3.79,3.45,3.6,3.6,0,0,1-3.17,4h-.15a22.28,22.28,0,0,1-4,.09c-1.07,0-1.46.28-1.43,1.39C139.82,26.59,139.77,29.47,139.77,32.36Z"/><path class="cls-1" d="M26,25.38V46.54a4.15,4.15,0,0,1-3.9,4.4,4,4,0,0,1-1.61-.22,4.2,4.2,0,0,1-2.77-4.3V4.76c0-3.73,2-5.14,5.57-4.65C24.86.32,26,2.18,26,4.38Q26,14.88,26,25.38Z"/><path class="cls-1" d="M36.28,25.42V4.76c0-3.6,1.82-5.18,5.38-4.67A3.22,3.22,0,0,1,44,1.84a5.28,5.28,0,0,1,.62,2.72V46.2c0,2.32-1,3.88-2.76,4.49a4.09,4.09,0,0,1-5.27-2.39,4.16,4.16,0,0,1-.25-1.72C36.26,39.52,36.28,32.47,36.28,25.42Z"/><path class="cls-1" d="M156.11,32.42V17.94a4,4,0,0,1,2.77-3.76,4.21,4.21,0,0,1,4.62,1.46,3,3,0,0,1,.65,1.5c0,.41-.28,1,.25,1.18s.79-.49,1.1-.83a12.31,12.31,0,0,1,10.43-4.09,4.18,4.18,0,0,1,4.19,4.17,3.81,3.81,0,0,1,0,.59c-.33,2.56-2.58,3.89-5.36,3.15-5.9-1.57-10,1.39-10.26,7.62-.19,5.54-.06,11.09-.09,16.64a9.58,9.58,0,0,1-.15,2,4.06,4.06,0,0,1-8.06-.64C156.08,42.07,156.11,37.25,156.11,32.42Z"/><path class="cls-1" d="M.26,32.24V18.6c0-2.84,1.46-4.5,3.93-4.55a4.06,4.06,0,0,1,4.32,4.4q.08,14.07,0,28.13A4.09,4.09,0,0,1,4.7,50.94a3.09,3.09,0,0,1-.43,0c-2.39,0-4-1.84-4-4.55C.25,41.67.26,37,.26,32.24Z"/><path class="cls-1" d="M8.68,5.48c0,3.17-1,4.07-4.39,4.06S0,8.61,0,5.36,1.08,1.25,4.42,1.29,8.68,2.19,8.68,5.48Z"/></svg>