<svg id="Capa_2" data-name="Capa 2" xmlns="http://www.w3.org/2000/svg" viewBox="0 0 219.33 51.7"><defs><style>.cls-1{fill:#f29053;}.cls-2{fill:#f29154;}.cls-3{fill:#f29052;}</style></defs><path class="cls-1" d="M204.3,35.36c-3.5,0-7,0-10.49,0-1.26,0-1.33.39-1,1.42,2.19,6.55,10.4,9.43,16.64,5.81a12.54,12.54,0,0,1,2.8-1.43,3.6,3.6,0,0,1,4.21,1.51,4.27,4.27,0,0,1-.79,4.6,16.37,16.37,0,0,1-8.62,4c-7,1.31-13.32-.23-18.15-5.58C183.74,40,183,33.08,185.28,25.92a17.18,17.18,0,0,1,13.44-12.28c9.61-2.09,19.83,5.83,20.37,15.68a4.62,4.62,0,0,0,.08.65c.69,3.23-.91,5.33-4.22,5.38C211.4,35.41,207.85,35.36,204.3,35.36Zm-2.88-6.94c2.16,0,4.31,0,6.47,0,.85,0,2.07.46,2.47-.29.52-1-.15-2.14-.74-3.09a8,8,0,0,0-.91-1.17c-2.21-2.42-5-2.94-8.14-2.8a8.16,8.16,0,0,0-7.75,6.11c-.23.9-.09,1.31,1,1.28C196.33,28.38,198.88,28.42,201.42,28.42Z"/><path class="cls-1" d="M85.65,28.81c-.19,3.25.4,7.27-.4,11.23-1.3,6.44-5.52,10.29-12,11.39A20.38,20.38,0,0,1,64.57,51,13.65,13.65,0,0,1,54.31,37.77c-.19-6.6-.09-13.21-.06-19.82a3.8,3.8,0,0,1,3.57-3.89,3.92,3.92,0,0,1,4.52,3.22,9.34,9.34,0,0,1,.16,2c0,5.22,0,10.44,0,15.65a26.59,26.59,0,0,0,.09,2.83,6.62,6.62,0,0,0,7,6.34c4.6,0,7.28-2.12,7.66-6.29.53-5.65.11-11.32.23-17,0-.77,0-1.55,0-2.33,0-2.8,1.54-4.42,4.06-4.43s4.08,1.6,4.11,4.37C85.67,21.64,85.65,24.86,85.65,28.81Z"/><path class="cls-2" d="M107,13.31c3.92.28,8.51.92,11.87,4.73,2.17,2.46,1.53,5.22-1.37,6.22a3.22,3.22,0,0,1-3.56-1.1c-2.72-2.84-6-3.52-9.75-2.78a3.2,3.2,0,0,0-2.87,2.81A3.48,3.48,0,0,0,103.13,27,25.37,25.37,0,0,0,108.91,29a31.58,31.58,0,0,1,7,2.62,9.89,9.89,0,0,1,1.39,16.52c-4.63,3.72-9.91,4.19-15.52,2.77a15.47,15.47,0,0,1-8.84-5.24c-1.43-1.82-1.41-3.73,0-5.08a4.1,4.1,0,0,1,5.42.1c2.69,2.57,5.71,4.35,9.55,4.35a8.89,8.89,0,0,0,3.53-.77,3.54,3.54,0,0,0,.62-6.13,16.14,16.14,0,0,0-5-2.08,47.6,47.6,0,0,1-8.14-2.85,9.61,9.61,0,0,1-5.65-9.55,9.58,9.58,0,0,1,4.29-7.52A15.83,15.83,0,0,1,107,13.31Z"/><path class="cls-1" d="M139.77,32.36c0,2.78,0,5.56,0,8.33,0,2.42,1.51,3.52,3.84,2.88,2.56-.69,3.63-.37,4.31,1.31.79,1.94,0,3.68-2,4.9-4.29,2.55-11.23.92-13.13-2.54A10.78,10.78,0,0,1,131.49,42q0-8.51,0-17c0-2.57,0-2.6-2.5-2.56a5.15,5.15,0,0,1-2.68-.69,3.78,3.78,0,0,1,1.32-7c1.26-.21,3,.67,3.68-.51.59-1,.15-2.6.19-3.93a4.13,4.13,0,0,1,7.8-2,6.32,6.32,0,0,1,.49,2.92c0,.73.06,1.45,0,2.17-.13,1.15.4,1.43,1.44,1.37s2.33,0,3.49,0a3.72,3.72,0,0,1,3.79,3.45,3.6,3.6,0,0,1-3.32,4,23,23,0,0,1-4,.09c-1.07,0-1.46.28-1.43,1.39C139.82,26.59,139.77,29.47,139.77,32.36Z"/><path class="cls-1" d="M26,25.38c0,7.05,0,14.1,0,21.16a4.16,4.16,0,0,1-5.51,4.18,4.21,4.21,0,0,1-2.77-4.3q0-9.16,0-18.33c0-7.77,0-15.55,0-23.33,0-3.73,2-5.14,5.57-4.65,1.57.21,2.73,2.07,2.73,4.27Q26,14.88,26,25.38Z"/><path class="cls-3" d="M36.28,25.42q0-10.33,0-20.66c0-3.6,1.82-5.18,5.38-4.67A3.21,3.21,0,0,1,44,1.84a5.22,5.22,0,0,1,.62,2.72q0,20.82,0,41.64c0,2.32-1,3.88-2.76,4.49a4.09,4.09,0,0,1-5.52-4.11C36.26,39.52,36.28,32.47,36.28,25.42Z"/><path class="cls-1" d="M156.11,32.42c0-4.83,0-9.66,0-14.48a3.94,3.94,0,0,1,2.77-3.76,4.19,4.19,0,0,1,4.62,1.46,3,3,0,0,1,.65,1.5c0,.41-.28,1,.25,1.18s.79-.49,1.1-.83a12.27,12.27,0,0,1,10.43-4.09,4.18,4.18,0,0,1,4.15,4.76c-.33,2.56-2.58,3.89-5.36,3.15-5.9-1.57-10,1.39-10.26,7.62-.19,5.54-.06,11.09-.09,16.64a10,10,0,0,1-.15,2A4,4,0,0,1,160,50.93a4,4,0,0,1-3.84-4C156.08,42.07,156.11,37.25,156.11,32.42Z"/><path class="cls-3" d="M.26,32.24c0-4.55,0-9.09,0-13.64,0-2.84,1.46-4.5,3.93-4.55s4.3,1.55,4.32,4.4q.08,14.07,0,28.13a4.09,4.09,0,0,1-4.24,4.36c-2.39,0-4-1.84-4-4.55C.25,41.67.26,37,.26,32.24Z"/><path class="cls-2" d="M8.68,5.48c0,3.17-1,4.07-4.39,4.06S0,8.61,0,5.36,1.08,1.25,4.42,1.29,8.68,2.19,8.68,5.48Z"/></svg>