<?xml version="1.0" encoding="UTF-8"?>
<svg id="Capa_2" data-name="Capa 2" xmlns="http://www.w3.org/2000/svg" viewBox="0 0 45.77 49.81">
  <path d="M33.38,24.42c-3.3,1.27-4.64,.94-6.98-1.55-.24-.25-.66-.46-1-.47-1.71-.05-3.42-.04-5.14,0-.29,0-.69,.2-.86,.43-1.83,2.48-4.16,2.87-7.01,1.59-.8,1.97-1.55,3.89-2.37,5.78-1.06,2.45-3.53,3.76-5.96,3.2C1.46,32.8-.16,30.65,.01,27.93c.09-1.33,.29-2.65,.46-3.98,.47-3.63,.99-7.25,1.42-10.88,.26-2.22,1.12-4.06,2.87-5.53,.42-.35,.71-.92,.9-1.44,.67-1.81,2.03-2.87,3.79-2.86,1.71,.02,3.11,1,3.64,2.8,.42,1.43,1.26,1.93,2.74,1.91,4.78-.06,9.57-.04,14.35,0,1.3,.01,2.04-.47,2.43-1.71,.61-1.97,2.03-3.03,3.8-3,1.75,.03,3.02,1.07,3.71,2.95,.19,.52,.53,1.07,.95,1.42,1.62,1.36,2.49,3.07,2.76,5.11,.62,4.7,1.22,9.41,1.85,14.11,.28,2.06,.05,3.95-1.67,5.41-2.7,2.29-6.69,1.42-8.19-1.85-.88-1.93-1.6-3.92-2.43-5.97Zm-23.41-3.67c-4.43-.59-5.19-1.06-7.83-5.03-.1,.48-.2,.85-.25,1.22-.46,3.52-.9,7.05-1.39,10.57-.34,2.45,1.01,4.69,3.27,5.34,2.38,.69,4.77-.43,5.8-2.79,.73-1.68,1.41-3.38,2.04-5.09,.14-.39,.12-.95-.05-1.33-.45-.97-1.02-1.88-1.59-2.9Zm25.86-.05c-.6,1.07-1.13,1.95-1.58,2.86-.17,.35-.31,.84-.19,1.16,.71,1.9,1.44,3.8,2.29,5.63,1.01,2.17,3.37,3.14,5.69,2.48,2.12-.61,3.55-2.82,3.26-5.08-.28-2.25-.57-4.51-.88-6.76-.23-1.72-.49-3.44-.77-5.4-2.32,3.89-3.76,4.78-7.82,5.1Zm-5.14-12.24H14.99c1.86,2.23,2.17,4.59,1.57,7.16,2.29,.85,3.42,2.53,3.63,4.79h5.43c.07-2.46,1.51-3.91,3.58-4.88-.69-2.59-.17-4.87,1.48-7.07Zm-14.72,6.94c1.01-2.97-.06-6.04-2.66-7.76-2.64-1.75-6.14-1.54-8.54,.53-2.33,2.01-3.01,5.34-1.66,8.13,1.28,2.65,4.25,4.2,7.04,3.68,.91-3.26,2.28-4.35,5.82-4.58Zm19.63,4.65c3.3,.32,6.14-1.38,7.27-4.26,1.12-2.87,.17-6.14-2.33-7.97-2.54-1.86-6.06-1.76-8.56,.14-2.01,1.52-3.39,5.06-2.13,7.42,3.54,.28,4.91,1.38,5.75,4.66Zm-5.04,4.6c2.46,.01,4.43-1.87,4.48-4.27,.05-2.38-1.91-4.36-4.36-4.4-2.51-.04-4.58,1.93-4.57,4.36,0,2.39,1.98,4.3,4.45,4.32Zm-15.44,0c2.47,.03,4.44-1.83,4.52-4.25,.08-2.34-1.92-4.38-4.34-4.43-2.54-.05-4.57,1.86-4.6,4.32-.02,2.37,1.97,4.33,4.42,4.35ZM12.58,6.26c-.37-1.62-1.5-2.55-3.25-2.51-1.71,.04-2.78,.98-3.08,2.51h6.33Zm26.92,0c-.31-1.65-1.65-2.67-3.52-2.5-1.62,.15-2.71,1.27-2.73,2.5h6.25Zm-13.64,15.59c-.6-.89-1.86-1.08-4.91-.82-.36,.03-.69,.31-1.04,.48,.05,.11,.09,.23,.14,.34h5.82Z"/>
  <path d="M25.12,16.17c-1.03,.7-1.66,1.47-2.2,1.41-.58-.06-1.41-.82-1.53-1.4-.19-.92,.59-1.67,1.55-1.52,.63,.09,1.17,.78,2.19,1.51Z"/>
  <path d="M26.25,10.5c-.64,.05-1.29,.15-1.93,.16-1.35,.02-2.7,.02-4.05-.02-.24,0-.47-.25-.71-.38,.13-.17,.26-.5,.39-.5,2.09-.03,4.18-.02,6.27-.02,0,.26,.02,.51,.03,.77Z"/>
  <path d="M13.8,13.03c-.88,.74-1.47,1.52-1.76,1.42-.71-.23-1.27-.87-1.89-1.34,.63-.47,1.2-1.08,1.9-1.33,.28-.1,.86,.59,1.75,1.26Z"/>
  <path d="M11.26,10.81c-.95,.78-1.51,1.24-2.07,1.7-.48-.61-1.27-1.18-1.37-1.85-.18-1.22,.97-1.05,1.71-.94,.47,.07,.88,.53,1.73,1.09Z"/>
  <path d="M5.04,13.41c.85-.64,1.45-1.35,1.72-1.25,.7,.26,1.25,.89,1.87,1.37-.64,.45-1.23,1.05-1.95,1.28-.27,.09-.83-.68-1.65-1.4Z"/>
  <path d="M9.68,17.59c-.74-.8-1.51-1.34-1.43-1.61,.23-.7,.84-1.28,1.3-1.91,.49,.6,1.13,1.14,1.4,1.83,.11,.27-.62,.85-1.28,1.69Z"/>
  <path d="M32.05,13.09c.78-.67,1.35-1.43,1.62-1.33,.71,.24,1.3,.85,1.93,1.32-.65,.49-1.25,1.1-1.98,1.39-.22,.09-.81-.69-1.57-1.37Z"/>
  <path d="M36.93,9.41c.35,.43,1.08,1,.98,1.27-.25,.69-.87,1.25-1.35,1.86-.49-.6-1.22-1.13-1.4-1.8-.29-1.07,.66-1.08,1.77-1.33Z"/>
  <path d="M40.72,13.41c-.81,.72-1.37,1.49-1.64,1.4-.71-.23-1.3-.83-1.94-1.28,.61-.48,1.16-1.11,1.86-1.37,.27-.1,.86,.61,1.71,1.25Z"/>
  <path d="M36.16,17.59c-.7-.82-1.46-1.39-1.36-1.65,.26-.7,.89-1.26,1.37-1.88,.47,.62,1.09,1.19,1.35,1.89,.1,.26-.66,.82-1.36,1.64Z"/>
  <path d="M33.51,20.31c0,1.54-1.31,2.82-2.88,2.85-1.63,.03-2.99-1.32-2.96-2.91,.04-1.52,1.39-2.8,2.95-2.78,1.57,.02,2.9,1.32,2.89,2.84Z"/>
  <path d="M18.1,20.35c-.03,1.53-1.37,2.81-2.93,2.8-1.56,0-2.9-1.3-2.9-2.82,0-1.6,1.37-2.92,3-2.87,1.56,.04,2.87,1.37,2.84,2.89Z"/>
</svg>