<?xml version="1.0" encoding="utf-8"?>
<!-- Generator: Adobe Illustrator 26.3.0, SVG Export Plug-In . SVG Version: 6.00 Build 0)  -->
<svg version="1.1" xmlns="http://www.w3.org/2000/svg" xmlns:xlink="http://www.w3.org/1999/xlink" x="0px" y="0px"
	 viewBox="0 0 50 50" style="enable-background:new 0 0 50 50;" xml:space="preserve">
<style type="text/css">
	.st0{fill:none;stroke:#1D1D1B;stroke-width:3;stroke-linejoin:round;stroke-miterlimit:10;}
	.st1{fill:none;stroke:#000000;stroke-width:2;stroke-miterlimit:10;}
	.st2{fill:none;stroke:#000000;stroke-width:2;stroke-linecap:round;stroke-miterlimit:10;}
	.st3{display:none;}
	.st4{display:inline;fill:none;stroke:#1D1D1B;stroke-width:3;stroke-linejoin:round;stroke-miterlimit:10;}
	.st5{display:inline;fill:none;stroke:#1D1D1B;stroke-width:3;stroke-linecap:round;stroke-linejoin:round;stroke-miterlimit:10;}
</style>
<g id="Capa_3">
</g>
<g id="Capa_1">
	<rect x="2.1" y="7.7" class="st0" width="45.6" height="37.6"/>
	<line class="st1" x1="25" y1="8.7" x2="25" y2="44.5"/>
	<line class="st2" x1="28.6" y1="16.6" x2="43.6" y2="16.6"/>
	<line class="st2" x1="28.6" y1="21.9" x2="43.6" y2="21.9"/>
	<line class="st2" x1="28.6" y1="27.1" x2="43.6" y2="27.1"/>
	<line class="st2" x1="28.6" y1="32.3" x2="43.6" y2="32.3"/>
	<line class="st2" x1="6.2" y1="16.6" x2="21.2" y2="16.6"/>
	<line class="st2" x1="6.2" y1="21.9" x2="21.2" y2="21.9"/>
	<line class="st2" x1="6.2" y1="27.1" x2="21.2" y2="27.1"/>
	<line class="st2" x1="6.2" y1="32.3" x2="21.2" y2="32.3"/>
</g>
<g id="Capa_2" class="st3">
	<polygon class="st4" points="8,6.1 39.8,6.1 45.9,17.6 45.9,46.9 8,46.9 	"/>
	<polygon class="st4" points="45.9,17.6 37,17.6 39.8,6.1 	"/>
	<line class="st5" x1="13.1" y1="21.1" x2="32.2" y2="21.1"/>
	<line class="st5" x1="13.1" y1="28.3" x2="25.9" y2="28.3"/>
	<line class="st5" x1="13.1" y1="34.4" x2="31.2" y2="34.4"/>
</g>
</svg>
