<?xml version="1.0" encoding="utf-8"?>
<!-- Generator: Adobe Illustrator 26.3.0, SVG Export Plug-In . SVG Version: 6.00 Build 0)  -->
<svg version="1.1" xmlns="http://www.w3.org/2000/svg" xmlns:xlink="http://www.w3.org/1999/xlink" x="0px" y="0px"
	 viewBox="0 0 50 50" style="enable-background:new 0 0 50 50;" xml:space="preserve">
<style type="text/css">
	.st0{display:none;}
	.st1{display:inline;fill:none;stroke:#1D1D1B;stroke-width:3;stroke-linejoin:round;stroke-miterlimit:10;}
	.st2{display:inline;fill:none;stroke:#000000;stroke-width:2;stroke-miterlimit:10;}
	.st3{display:inline;fill:none;stroke:#000000;stroke-width:2;stroke-linecap:round;stroke-miterlimit:10;}
	.st4{display:inline;}
	.st5{display:inline;fill:none;stroke:#000000;stroke-width:1.875;stroke-linecap:round;stroke-linejoin:round;}
	.st6{display:inline;fill:none;stroke:#000000;stroke-width:3;stroke-linecap:round;stroke-linejoin:round;}
	.st7{stroke:#000000;stroke-miterlimit:10;}
</style>
<g id="Capa_3">
</g>
<g id="Capa_1" class="st0">
	<rect x="2.1" y="7.7" class="st1" width="45.6" height="37.6"/>
	<line class="st2" x1="25" y1="8.7" x2="25" y2="44.5"/>
	<line class="st3" x1="28.6" y1="16.6" x2="43.6" y2="16.6"/>
	<line class="st3" x1="28.6" y1="21.9" x2="43.6" y2="21.9"/>
	<line class="st3" x1="28.6" y1="27.1" x2="43.6" y2="27.1"/>
	<line class="st3" x1="28.6" y1="32.3" x2="43.6" y2="32.3"/>
	<line class="st3" x1="6.2" y1="16.6" x2="21.2" y2="16.6"/>
	<line class="st3" x1="6.2" y1="21.9" x2="21.2" y2="21.9"/>
	<line class="st3" x1="6.2" y1="27.1" x2="21.2" y2="27.1"/>
	<line class="st3" x1="6.2" y1="32.3" x2="21.2" y2="32.3"/>
</g>
<g id="Capa_4" class="st0">
	<path class="st4" d="M44.6,44.7V50l-4.5-2.9l-12-22.5c1.7-0.5,3.2-1.4,4.5-2.5L44.6,44.7z M32.1,12.5c0,2-0.8,3.9-2.2,5.3
		c-1.4,1.4-3.3,2.2-5.3,2.2h-1.1L9.1,47.1L4.6,50v-5.3L19,17.5c-2.8-3.1-2.5-7.8,0.6-10.6C21,5.7,22.7,5,24.6,5V0
		c0.7,0,1.3,0.3,1.8,0.7c0.5,0.5,0.7,1.1,0.7,1.8v3C30.1,6.5,32.1,9.3,32.1,12.5z M27.1,12.5c0-0.7-0.3-1.3-0.7-1.8
		c-0.5-0.5-1.1-0.7-1.8-0.7c-0.7,0-1.3,0.3-1.8,0.7c-0.5,0.5-0.7,1.1-0.7,1.8s0.3,1.3,0.7,1.8c0.5,0.5,1.1,0.7,1.8,0.7
		c0.7,0,1.3-0.3,1.8-0.7C26.8,13.8,27.1,13.2,27.1,12.5z"/>
	<path class="st5" d="M12.7-11.9v5.7c0,0.3,0.1,0.5,0.3,0.7c0.2,0.2,0.4,0.3,0.7,0.3h5.7"/>
</g>
<g id="Capa_5" class="st0">
	<path class="st6" d="M14.4,20.4h18.7 M14.4,39.1h18.7 M14.4,29.8h9.3 M5.1,47.1V3.1c0-0.4,0.1-0.7,0.4-1c0.3-0.3,0.6-0.4,1-0.4
		h27.2c0.4,0,0.7,0.1,1,0.4l7.4,7.4c0.1,0.1,0.2,0.3,0.3,0.5c0.1,0.2,0.1,0.4,0.1,0.5v36.6c0,0.2,0,0.4-0.1,0.5
		c-0.1,0.2-0.2,0.3-0.3,0.5c-0.1,0.1-0.3,0.2-0.5,0.3c-0.2,0.1-0.4,0.1-0.5,0.1H6.5c-0.2,0-0.4,0-0.5-0.1c-0.2-0.1-0.3-0.2-0.5-0.3
		c-0.1-0.1-0.2-0.3-0.3-0.5C5.1,47.4,5.1,47.3,5.1,47.1z"/>
	<polyline class="st6" points="42.4,10 33.1,10.3 33.7,1.7 	"/>
</g>
<g id="Capa_6">
	<path class="st7" d="M29,1.9c1.2,0,2.4,0.5,3.3,1.4c0.9,0.9,1.4,2.1,1.4,3.3v7h9.3c1.2,0,2.4,0.5,3.3,1.4c0.9,0.9,1.4,2.1,1.4,3.3
		v20.9c0,1.2-0.5,2.4-1.4,3.3c-0.9,0.9-2.1,1.4-3.3,1.4H5.7c-1.2,0-2.4-0.5-3.3-1.4c-0.9-0.9-1.4-2.1-1.4-3.3V25.1
		c0-1.2,0.5-2.4,1.4-3.3c0.9-0.9,2.1-1.4,3.3-1.4H15V6.6c0-1.2,0.5-2.4,1.4-3.3c0.9-0.9,2.1-1.4,3.3-1.4H29z M29,6.6h-9.3v32.5H29
		V6.6z M42.9,18.2h-9.3v20.9h9.3V18.2z M15,25.1H5.7v13.9H15V25.1z"/>
</g>
</svg>
