<svg id="Capa_1" data-name="Capa 1" xmlns="http://www.w3.org/2000/svg" viewBox="0 0 48.6 62.84"><defs><style>.cls-1{fill:none;stroke:#000;stroke-linecap:round;stroke-linejoin:round;stroke-width:3px;}</style></defs><g id="Capa_5" data-name="Capa 5"><path class="cls-1" d="M13.8,33.24H32.5M13.8,51.94H32.5m-18.7-9.3h9.3M4.5,59.94v-44a1.37,1.37,0,0,1,1.4-1.4H33.1a1.28,1.28,0,0,1,1,.4l7.4,7.4a2.19,2.19,0,0,1,.3.5,1.09,1.09,0,0,1,.1.5v36.6a.75.75,0,0,1-.1.5c-.1.2-.2.3-.3.5a2.19,2.19,0,0,1-.5.3,1.09,1.09,0,0,1-.5.1H5.9a.75.75,0,0,1-.5-.1c-.2-.1-.3-.2-.5-.3a2.19,2.19,0,0,1-.3-.5A.9.9,0,0,1,4.5,59.94Z"/><polyline class="cls-1" points="41.8 22.84 32.5 23.14 33.1 14.54"/></g></svg>