<svg xmlns="http://www.w3.org/2000/svg" viewBox="0 0 168.07 100.23"><defs><style>.cls-1{fill:#1d1d1b;}.cls-2{fill:#f4f4f4;}</style></defs><g id="Capa_2" data-name="Capa 2"><rect class="cls-1" width="168.07" height="100"/></g><g id="Capa_3" data-name="Capa 3"><g id="Capa_4" data-name="Capa 4"><path class="cls-2" d="M63,19a6.07,6.07,0,0,1-1.05,2.84A7.75,7.75,0,0,1,60.47,23s-1.35,1-.18,1.47l1.17.51S58.58,43,58.58,42.9A6.31,6.31,0,0,0,58,44.77c0,.57,0,1,0,1l.72,9.42a21.36,21.36,0,0,0,1.55,6A12.42,12.42,0,0,1,61.57,64s1.29,1.07.49,1.5S59,67.1,59,67.1s-2.92,2.1-.61,4.68l1,1.36-3.43,18.1s1.1,2.19,1.7.38S61.9,73.26,61.9,73.26s2.41-.64,3,1,.12,4.9.12,4.9l-.71,18.91s.18,2.72,3.37,1.91a8,8,0,0,0,.94-3.16c0-1.47.82-22.43.82-22.43l6-.32,1.63.32,2.47,22.8s2.81,1.48,2.78-1.23-.61-8.14-.61-8.14l-.89-11.3,2.23-.24L84.71,76l1.75-1h1s.15,6.8.07,7.5-.66,10-.66,10-1.22,3.92-.48,4.7l9,2.79,1.83-1.15.44-1.91-.93-.64-1.26-.57-2-2.54-.53-1-1,0-.66-1.66.87-5,1.13-2.1,1,3.21-.37,4.89s3.06,2.26,5.72,2.57a41.73,41.73,0,0,0,4.36.31l.64-2.37s-1.32-.83-1.38-.83-1.9-.36-1.9-.36L99.52,88,98,87.13l0-3.88-.28-2.91.64-3.69-.27-3.94.07-.72s.41-8.18.41-8.2l-.38-1.63S96.94,58.08,96.93,58a8.34,8.34,0,0,0-.82-.44l-1.37-.29-2.52-.67-5.74.09-2-.42L83,55.09l1.19-4.34-.39-3L84,46.45l2.58-2.14L90,41.53l1.34-3.35-.59-2,0-1.26-3.06.86-.23,2.1-2.32-.16-5.94-.55-1.75.48-.59.23a4.26,4.26,0,0,1-.71-.71C76,37,74.5,32.8,74.5,32.8l-1.79-2.16s-1.21-1.28-1.23-1.34a3.06,3.06,0,0,1-.68-1A3.17,3.17,0,0,1,70.69,27,7.18,7.18,0,0,0,74,26.21a6.08,6.08,0,0,1,1.54-.91L75.75,24l.81-1.38.3-1.58-.11-.32s2.22-2.13,3.6-2.49.44-2.15.44-2.15A4.52,4.52,0,0,0,79,15.7a18.07,18.07,0,0,0-1.85.47,21.1,21.1,0,0,1-1.51-2.26,7.46,7.46,0,0,0-6.26-3.85c-4.47-.17-6.36,4.09-6.36,4.09S62,18,63,19Z"/><path class="cls-2" d="M96.58,20.86l1.58-5.65,1.09-.63L102.56.23H105l-3.64,14.21A4.48,4.48,0,0,1,102,18c-.43,2.31-.63,3.11-.63,3.11l6.55.19.26,4.82s1.53.51,1.46,1.4-4.37,23.2-4.37,23.2l2.14,2.75,9.7,27.57s-1.62,1.79-2.58-.57-9.57-26.43-9.57-26.43-6.49,29.46-6.49,29.56-.31-2.27-.31-2.27l1.05-9.58,4-18.6-8.21-2.43-1.62,5.91s-2.56.26-2.24-.89,1.45-5.54,1.45-5.54l-4.13-1.52L90.46,56s-2.55,1.75-3.28-.51-3-8-3-8l.08-1,1.39,0,15.68,5.18,5.45-26.08.67-4.07-8.16-.17Z"/></g><path d="M87.19,33.17c.66-3.65,1.45-7.28,2.11-10.94a1.58,1.58,0,0,1,2-1.54c1.34.09,2.7,0,4.06,0a1.14,1.14,0,0,0,1.26-.93,18,18,0,0,0,.64-2.82,2.54,2.54,0,0,1,1.5-2.42c.48-.18.51-.63.6-1q1.36-6.12,2.74-12.24c.07-.34.19-.67.29-1h.47c0,.34,0,.69-.11,1Q101.37,7.49,100,13.71c-.06.27-.3.66.14.78s.61-.26.69-.61c.18-.75.33-1.51.5-2.26C102.18,7.81,103,4,104,.23h1.16q-1.42,6.65-2.84,13.29c-.07.34-.25.8.06,1,1.12.68.62,1.63.46,2.49a17.21,17.21,0,0,1-.68,2.46c-.3.87-.08,1.21.85,1.22,1.51,0,3,.15,4.52.16.85,0,1.22.35,1.16,1.19,0,.54,0,1.08-.14,1.62-.16,1-.62,1.93.78,2.58.75.35.71,1.41.55,2.24q-1,5.07-1.95,10.14-1.07,5.41-2.15,10.83a1.28,1.28,0,0,0,.47,1.53,3,3,0,0,1,1,1.54c3.43,9.3,6.7,18.66,9.93,28,.18.52.39,1.08-.24,1.44a1.68,1.68,0,0,1-1.86-.06,3.92,3.92,0,0,1-1.39-2.1c-.86-2.36-1.75-4.72-2.55-7.11-.28-.83-.67-1-1.45-.75q-3.81,1-7.63,2a1.48,1.48,0,0,0-1.23,1.2c-.87,3.53-1.6,7.09-2.26,10.68A1.26,1.26,0,0,0,98.81,87c.37.41.6.68,1.14.11s1.35-.32,1.17.48c-.35,1.59.8,1.76,1.71,2.24.32.17.12.54-.34.78.62.28,1.21.49,1.76.79.92.51,1.73,1.18,1.43,2.38s-1.29,1.34-2.29,1.37a20.83,20.83,0,0,1-9.87-2.9c0,.89,1.7,2.52,1.7,2.52a21.73,21.73,0,0,0,2.6,1.62c.76.51,1.54,1,1.3,2.11s-1.17,1.24-2,1.48a10.57,10.57,0,0,1-1.25.23H94a20.34,20.34,0,0,1-6.67-1.81c-1.78-.91-1.78-.89-1.43-2.81a80.12,80.12,0,0,0,1.27-16.29c0-1.37-.18-2.73-.29-4.21a9.7,9.7,0,0,1-4.68,1.67c-1,0-1.23.48-1.14,1.37.45,4.38.92,8.77,1.29,13.16.14,1.72.66,3.45.11,5.19a2.26,2.26,0,0,1-2.34,1.68c-1.15-.15-1.35-1.05-1.45-2-.27-2.54-.5-5.08-.74-7.62-.4-4.32-.81-8.63-1.2-12.94-.08-.84-.42-1.24-1.33-1.2-1.54.06-3.09.05-4.64,0-.79,0-1.07.27-1.1,1.08-.2,6.5-.47,13-.65,19.5a11.78,11.78,0,0,1-1,5.18H64.74c-1.2-2.3-.72-4.78-.67-7.19s.25-4.8.36-7.19c.16-3.56.3-7.12.45-10.68a1.93,1.93,0,0,0-2.47-1.7c-.54.26-.46.87-.56,1.34-1.2,5.36-2.37,10.73-3.55,16.1a5.09,5.09,0,0,1-.14.56c-.2.69-.57,1.21-1.36,1.2a1.56,1.56,0,0,1-1.53-1.22,4.34,4.34,0,0,1,0-2.29c1.15-5.14,2.28-10.28,3.44-15.42a1.58,1.58,0,0,0-.4-1.77,3.06,3.06,0,0,1-.07-4.47,5.92,5.92,0,0,1,2.61-1.68c.88-.28,1-.63.58-1.48A32,32,0,0,1,58,44.74c.33.29.26.55.3.78.37,2.15.12,4.34.36,6.5.08.8-.18,1.58,1.39,1.45,2.22-.19,4.51.24,6.76,0a12,12,0,0,0,4.33-1.12c.63-.34,1.54-.29,2.29-.59,1.89-.75,2.07-1.27,1-3a12.35,12.35,0,0,0-1.9-2.19,16.84,16.84,0,0,1-2.38-2.68,3,3,0,0,1-.75-2.37c.52.17.63.62.86,1a37.74,37.74,0,0,0,5.18,6.24c1.31,1.27,1.68,1.33,3.25.48a44.59,44.59,0,0,0,9.14-6.72c.22-.21.47-.4.42-.77A7.58,7.58,0,0,0,86,38.87c-.43-.16-.64.15-.9.37-1.35,1.16-2.68,2.34-4,3.49s-2,1-3-.33a17.84,17.84,0,0,1-2.4-4.65,12,12,0,0,0-3.15-5.34c-.66-.56-1.18-.6-1.45.34s-.66,1.7-.95,2.56c-.53,1.53-3.84,2.84-5.51,2.36-.8-.23-1.09-.09-1.29.69a3.14,3.14,0,0,1-1.26,2A5.57,5.57,0,0,1,62.52,38c.2-.74.48-1.46.63-2.2a15.24,15.24,0,0,0-1.43,9.58c-1.18-.82-1.52-2.58-1.07-5.15-.6.79-.61.83-.69,2.27s-.08,1.39-1.36.63c.17,1.09-.93,1.23-1.31,1.25-1.26.08-2.06-.88-2.82-2l-.39,1.33c.06-2.53-1.36-4.78-1.23-7.31a8.7,8.7,0,0,1,.46-2.14c.63-2,2.08-3.38,3.54-4.8s2.57-2.87,3.94-4.24c.08-.15-.27-.07-.48-.21a1.21,1.21,0,0,1,.09-2.26,3.22,3.22,0,0,0,2-3.26c0-1.19-.21-2.4-.12-3.59a6.46,6.46,0,0,1,4.48-5.69,7.06,7.06,0,0,1,7.46,1.43A8.5,8.5,0,0,1,76.66,15c.25.58.58.75,1.16.53a3.71,3.71,0,0,1,2.06-.21A1.81,1.81,0,0,1,81.45,17c.07.88-.47,1.32-1.27,1.55a6,6,0,0,0-2.56,1.73c-.19.19-.49.48-.44.65.37,1.41-.8,2.27-1.2,3.38a4.37,4.37,0,0,1-4.11,2.91c-.37,0-.84-.05-.94.46s.33.58.6.77a9.59,9.59,0,0,1,3,4.09c.59,1.35,1.14,2.71,1.66,4.09.24.67.55.92,1.28.67a10.3,10.3,0,0,1,6.38-.09,4,4,0,0,0,1.84.12,1,1,0,0,0,.85-1ZM85.4,74.88c1.3-.69,3-.51,4.09-1.64a.48.48,0,0,1,.34-.06c1.92.19,2.39-1.54,3.39-2.57a.36.36,0,0,0,0-.52.67.67,0,0,0-.39-.2c-.27,0-.18.24-.22.43-.17.86-.69,1.11-1.51.81-.22.31.29.76-.14,1-.43,0-.41-.58-.84-.48-.06.33.26.7,0,.91-.47.35-.54-.58-.89-.46s.23,1.63-.9.6c-.11-.1-.21,0-.22.12-.07,1.46-.6.13-.83.08-.26.4.13.83-.2,1.12-.5,0-.63-.76-.7-.63-.26.53-1.19.66-.91,1.49-.41-.18-.52-.63-.81-.94-.24.44.22,1.11-.45,1.4-.39-.32-.18-.84-.47-1.17-.07.22-.09.22-1,.29-.15.27.16.72-.3.87-.43-.16-.35-.65-.62-.9-.14.31.16.84-.31.9s-.34-.62-.65-.89c0,1.65,0,1.65,1.52,1.37a1.11,1.11,0,0,1,.57,0C84,76.27,84.76,75.7,85.4,74.88ZM81.25,41.59l3.22-2.83c.43-.36.6-.62-.14-.8a13.54,13.54,0,0,0-7.37.22c1.38,0,1.5.24,1,1.15s-.26,1.93,1.31,3.12c.82.62,1.24-.12,1.73-.56ZM82.94,73a16.78,16.78,0,0,0,5.88-1.84,11.05,11.05,0,0,0,4.54-3.32c1.91-2.73,2.46-5.94,3.06-9.13.1-.54-.37-1-.71-.85-.87.31-1.37-.4-2.06-.53a23.35,23.35,0,0,0-6.93-.2,10.11,10.11,0,0,1-4.91-.46,5.16,5.16,0,0,0-2.6-.45,3.93,3.93,0,0,1-3.42-1,1.91,1.91,0,0,0-2.23-.46,18.72,18.72,0,0,1-6.93,1.77c-1.7.06-3.36.63-5.07.42-2.3-.28-2.3-.3-1.76,2,.06.27.13.53.2.79a8.75,8.75,0,0,0,7.67,7.1,42.7,42.7,0,0,0,9.25.08c3.15-.17,6.34-.24,9.24-1.82,1.49-.81,3-1.55,4.53-2.34.82-.44,1.61-.92,2.43-1.37.19-.11.45-.28.61,0s-.13.39-.31.51c-.58.38-1.16.77-1.76,1.12a49.51,49.51,0,0,1-8,3.88c-.32.12-1.19.13-.58.85C84.52,69.38,84.55,71.06,82.94,73ZM97.4,27.79c-.51-.71-1.16-1.21-.69-2.14a3.77,3.77,0,0,1,3.7-1.69c2,.52,4,3.21,3.71,5.19,0,.32-.28.56-.54.45a7.83,7.83,0,0,0-2.63-.26c-.37,0-.85-.31-.72-.74s.49,0,.74,0a1.93,1.93,0,0,0,2.12-1c.47-.73-.31-1.17-.77-1.6a5.53,5.53,0,0,0-2-1.24c-.73-.22-1.68.26-2.53.45-.08,0-.12.19-.17.3-.44,1-.06,1.7,1.18,2.17.5.2,1.27.15.81,1.08,0,.08.1.28.2.39a3.28,3.28,0,0,1,.08,4.63c-.27.34-.25.53.12.83,2.09,1.72,1.64,4.17-1,5a2.3,2.3,0,0,0-1.7,2A7.45,7.45,0,0,1,97,42.85c-.17.47-.38,1.09-1,.87s-.45-.8-.26-1.29c.25-.65.54-1.28.79-1.93s-.16-.74-.54-.87-.48.25-.55.54c-.15.6-.28,1.21-.46,1.8-.14.43-.42.79-.93.72a.91.91,0,0,1-.81-1,5.36,5.36,0,0,1,.15-1.26,18.92,18.92,0,0,1,.7-2.33c.37-.9.06-1.27-.81-1.45s-1.46-.26-1.38.93a1.7,1.7,0,0,1-.43,1,2.77,2.77,0,0,0-.58,2.8c.3.9-.17,1.37-1.06,1.13a1.29,1.29,0,0,0-1.4.29c-1,1.09-1.87,2.25-2.8,3.39-.11-.18.13-.07.39,0,4.7,1.53,9.42,3,14.12,4.59,1,.33,1.29.06,1.47-.9.7-3.76,1.47-7.52,2.21-11.28q1.56-8,3.13-15.95c.14-.7.1-1.11-.78-1.1q-7.53,0-15.08,0a1,1,0,0,0-1.12.9L87.64,34.34a5.83,5.83,0,0,0,3.38.31c.06,0,.16.07.19.13.7,1.16,1.86.65,2.84.77.21,0,.51,0,.59-.23s-.2-.38-.38-.5a3.82,3.82,0,0,1-1.73-2.89C92.37,29.43,94.35,27.69,97.4,27.79ZM74.74,72c1.53-.12,3.66.22,5.76-.18,1.74-.33,2.61-1.15,2.56-2.34s-1.06-2-2.73-2.19a2.81,2.81,0,0,0-.58,0c-2.15.16-4.31.35-6.46.5a16.83,16.83,0,0,1-8.72-1.26c-2.09-1-3.64-.32-5.19.92-1.2,1-1.1,2,.3,2.7a14.41,14.41,0,0,0,2.73.93C66.27,72.06,70.21,72.07,74.74,72Zm19.8-1.57A4,4,0,0,0,93,72a3.24,3.24,0,0,1-3,1.86,2.79,2.79,0,0,0-2.28,2.49c-.08,4.84-.14,9.68-.22,14.52,0,.94.06,1.84,1.18,2.09.85.19,1.67-.53,2-1.76.25-1,.37-2.13.57-3.19.7-3.66,2.2-7.1,3-10.74A16.34,16.34,0,0,0,94.54,70.46ZM63,16.62v.58c0,1.52.17,1.63,1.61,1.33a41.8,41.8,0,0,0,6.74-2.11,13.84,13.84,0,0,0,3.18-1.68,1,1,0,0,0,.29-1.59,5.52,5.52,0,0,0-4.21-2.55C66.36,9.94,63,12.63,63,16.62Zm35.14,48c-.55.74-1,1.41-1.53,2a5.67,5.67,0,0,0-1.28,4.44,21.8,21.8,0,0,1-1.34,9.8c-.72,2,.23,6,1.81,7.36.79.7,1,.64,1.42-.38a10.71,10.71,0,0,0,.38-4.93,55.15,55.15,0,0,1,0-8.23A87.83,87.83,0,0,0,98.09,64.61Zm-27.26-40c1.88.25,3.21-.76,4.19-2.35a10.5,10.5,0,0,1,4-3.76,5.24,5.24,0,0,0,1.52-1.25c.39-.45.3-.74-.29-.9a2.82,2.82,0,0,0-3.25.8,7.83,7.83,0,0,1-3.26,2.15,49.22,49.22,0,0,1-7.44,2.19c-1.75.39-3.87-.46-5.23,1.49-.22.32-1,.39-.76,1s.76.39,1.21.28a14.18,14.18,0,0,1,6,0A14.54,14.54,0,0,0,70.83,24.62ZM98.39,72.48h.18c.12-.57.24-1.14.35-1.7q1.64-8.25,3.27-16.5c.12-.64.15-1.14-.69-1.27a25.11,25.11,0,0,1-5.45-1.54c-.48-.19-.82-.15-.94.43-.27,1.28-.56,2.57-.83,3.85-.18.82.2,1.23,1,1.37a6.66,6.66,0,0,1,2.4.83c1.2.74,2.12,2.25,1.57,3.18A5.24,5.24,0,0,0,98.89,65a9.7,9.7,0,0,1-.09,2.08C98.67,68.86,98.53,70.67,98.39,72.48Zm-.15,10.77c.14-.51.21-.72.25-.94,3.34-16.5,6.7-33,9.79-49.54a35,35,0,0,0,.76-5.28c0-.35,0-.78-.48-.81s-.52.38-.57.73c-.18,1.19-.35,2.37-.55,3.56q-3.54,21.59-8,43C98.86,76.93,97.88,79.84,98.24,83.25ZM68.86,77.9h0c0-.89,0-1.78,0-2.67a.84.84,0,0,0-.92-1c-.63,0-.62.45-.64.89-.07,1.58-.15,3.16-.22,4.75-.14,3.4-.3,6.8-.43,10.21-.11,2.9-.19,5.8-.27,8.7,0,.39-.17,1,.42,1.06s.83-.36,1-.81a4.81,4.81,0,0,0,.3-1.34C68.39,91.12,68.62,84.51,68.86,77.9Zm14.49-31c-.42.29-.72.52-1,.73-1.45,1-2.78,2.59-4.42,2.61-2.34,0-2.21,1.43-2.46,2.87a.49.49,0,0,1,0,.11c-.27.63,0,1,.56,1.32a8.72,8.72,0,0,0,4.52,1.2,1.28,1.28,0,0,0,1.47-1.24C82.36,52.06,82.85,49.6,83.35,46.93ZM81.89,95c-.16-1.65-.33-3.38-.49-5.12C80.93,85,80.46,80,80,75.1c0-.56-.25-.76-.8-.67s-1,0-.87.76c.17,1.77.31,3.55.46,5.32q.64,7.35,1.31,14.68c.07.76-.21,2,.8,2C82.16,97.22,81.8,95.93,81.89,95Zm26.36-28.17-5.47,1a1,1,0,0,0-.81.87c-.2,1.14-.41,2.28-.64,3.41-.12.58,0,.81.65.65,2.58-.66,5.16-1.31,7.73-2,.34-.09.68-.24.52-.72-.32-.91-.62-1.83-.94-2.74C109.13,66.9,108.78,66.78,108.25,66.84ZM90.73,96.51c.24-.34.33-.5.45-.64.46-.59.84-1.11-.37-1.22a.73.73,0,0,1-.61-.86A.84.84,0,0,1,91,93c.25,0,.58.09.69-.25,0-.07-.08-.22-.16-.26a.74.74,0,0,0-.76.17c-.31.22-.6.48-.92.7a1.47,1.47,0,0,1-1.91.08c-1-.74-1.16-.67-1.37.58,0,.3-.13.6-.17.91-.2,1.67-.15,1.74,1.42,2.22.37.11.72.27,1.09.4A23.3,23.3,0,0,0,94.38,99c.5,0,1,.1,1.31-.46a4,4,0,0,1,1-1.37c.46-.36.2-.56-.17-.74-.61-.29-1.56.39-1.92-.75-.08-.26-.76.42-1.2.21-.3-.37.44-.88.06-.85-1.3.09-.19-.67-.36-1C92,94.51,92.54,96.47,90.73,96.51ZM65.5,99.67c.06-.42.11-.64.12-.86.16-4.17.31-8.35.49-12.52.11-2.74.27-5.48.39-8.23,0-1.12,0-2.24,0-3.36,0-.33-.14-.64-.54-.61s-.44.29-.46.58,0,.62,0,.93c-.14,3.44-.31,6.88-.43,10.32-.13,3.87-.24,7.73-.33,11.6A2.25,2.25,0,0,0,65.5,99.67Zm33.33-9.15c-.51,0-.88-.11-1-.56s.14-.8.59-1,.84-.18.52-.76c-.15-.27-.32-.57-.66-.61s-.51.38-.64.69c-.51,1.19-1,1.47-1.86.94-1-.67-1.28-.56-1.49.64-.26,1.42.13,2.19,1.6,2.43A23.07,23.07,0,0,1,101,93.85c1,.39,1.89.52,2.34-.77.13-.38.82-.57.55-1a1.63,1.63,0,0,0-1.33-.58,1.59,1.59,0,0,0-1,.16c-.41.26-.62.18-1-.16S99.85,89.8,98.83,90.52ZM96.72,33c.38-.1.43-.38.5-.63.24-.89.7,0,1.06-.11.67-.11.15.38.18.6.13.93-.61.56-1,.67s-.93.34-.82.8.66.23,1,.14A3.11,3.11,0,0,0,100,31.92a3.42,3.42,0,0,0-6.82-.41,2.91,2.91,0,0,0,1.41,2.64c.19.12.43.25.62,0a.46.46,0,0,0,.07-.42c-.84-1.38.59-1.95,1-2.86a.47.47,0,0,1,.78-.15.57.57,0,0,1,0,.9A1.42,1.42,0,0,0,96.72,33Zm10,20.1c-.88.55-.44,1.2-.24,1.77q4.5,12.75,9,25.49c.14.37.12,1.15.72.93s.18-.81,0-1.25c0-.07,0-.14-.07-.22q-2.78-7.81-5.54-15.64C109.32,60.53,108,56.85,106.7,53.13Zm-1.81,2-.21,0q-.75,3.73-1.51,7.49a.87.87,0,0,0,.68,1.13l3.65,1.16c.65.2.9,0,.66-.67Zm-22,16.61a7.49,7.49,0,0,1-4.29,1.12,99.3,99.3,0,0,1-11.7-.23c-3.12-.36-6.28-.69-8.9-2.72a.69.69,0,0,0,.1.78A4,4,0,0,0,60.41,72c6,2,12.28,1.77,18.5,1.58A4.64,4.64,0,0,0,82.84,71.7ZM56.5,91.29c0,.18-.06.54.27.57.57.06.63-.46.72-.87L61.33,74c.1-.44.18-.9-.4-1s-.57.52-.65.86c-.58,2.52-1.12,5-1.67,7.58C57.91,84.7,57.21,87.94,56.5,91.29Zm42-70.44c.74,0,1.59.23,1.84-.89s.6-2.4.9-3.6c.06-.27.17-.61-.06-.77a3.48,3.48,0,0,0-2.13-.37c-.55,0-.8.4-.92.89-.27,1.09-.54,2.18-.8,3.27C97,20.85,97,20.85,98.52,20.85ZM102,52.06l.69.14c2-10.07,3.6-20.2,5.23-30.33Q104.94,37,102,52.06ZM85.62,48.17a1.39,1.39,0,0,0,0,.22c.73,2.2,1.47,4.4,2.2,6.6.09.25.17.52.28.76a1,1,0,0,0,1.4.44c.55-.2.18-.66.07-1-.6-1.8-1.27-3.57-1.81-5.38A2.14,2.14,0,0,0,85.62,48.17ZM94,87.75a8.63,8.63,0,0,0-.55-3.11.69.69,0,0,0-.35-.41c-.21,0-.3.19-.36.37a17.35,17.35,0,0,0-1,6.59c0,.45.23.62.69.44.66-.26,1.21-.57,1.33-1.41A18,18,0,0,0,94,87.75ZM65.78,34.9a5.43,5.43,0,0,0,.92-.42c1-.54,1.06-1.68,1.78-2.42s1.14-1.79,2.13-2.34c.21-.12.62-.49.21-.85s-.84-.65-1.21-.14a23.08,23.08,0,0,1-4.53,4.57c-.72.57.46.69.18,1.2S65.64,34.68,65.78,34.9Zm30.87.65a3.62,3.62,0,0,1,.57,0A1.55,1.55,0,0,1,98.66,37c0,.87-.93.32-1.4.57-.19.1-.52,0-.77-.09-.44-.1-.56.13-.6.49a1,1,0,0,0,1,1.24c0-.48-.28-1.13.11-1.23a2.65,2.65,0,0,1,2.38.21c-.24.52-.86.46-1.09.9,1.63-.31,2.59-1.36,2.35-2.56C100.32,35.11,99.27,34.82,96.65,35.55ZM90.8,55.08l.28,0c.26-1.36.52-2.72.79-4.08.07-.4.14-.78-.38-.94s-1.31-.44-2-.64c-.4-.12-.61,0-.46.46Q89.94,52.46,90.8,55.08Zm-22.74-.21c.36-.06.42-1.61.9-.11,0,.13.18.21.19.06.14-1.2,1.65.34,1.76-.89,0,0,.19,0,.2,0,.39.78.39.06.69-.06.87-.37,1.75-.67,2.6-1.12.23-.12.61,0,.46-.41-.2-.6-.56-.12-.81,0a12.68,12.68,0,0,1-5.46,1.34,8.92,8.92,0,0,0-2.94.52c-1.12.42-1.13.38-.64,1.56.92-1.26.92-1.26,1.42-.49,0-.86.73-1,1.23-1.21S68,54.56,68.06,54.87Zm8.5-33a12,12,0,0,1-5.3,3.85c-.2.06-.68.81.08.91a4.11,4.11,0,0,0,2.84-.79c.5-.34,1.36-.65.8-1.59-.08-.12,0-.17.17-.22C76.12,23.67,76,22.59,76.56,21.87Zm8.52,28.88-.27.07c-.19,1.14-.37,2.28-.56,3.42-.06.37-.07.71.36.85a4.84,4.84,0,0,0,1.87.51c.21,0,.12-.32.06-.5C86.06,53.65,85.57,52.2,85.08,50.75Zm15.77,1.46.05-.28c-.8-.27-1.59-.55-2.39-.81-4.44-1.43-8.88-2.87-13.32-4.28-.34-.11-1-.56-1,.1s.53-.23.79.14c.11.15.43.15.65.22l7,2.27Zm-9.23,3.51c-.07.32-.1.64.35.69s.69-.26.77-.68c.28-1.43.56-2.86.85-4.29.08-.39,0-.71-.39-.83s-.61.26-.67.59C92.21,52.7,91.92,54.21,91.62,55.72ZM64,34.88c-.46,1.35.47,1.92,1.15,2.39a1.44,1.44,0,0,0,1.93-.57,4.43,4.43,0,0,1,1.29-1.11,3.38,3.38,0,0,0,1.47-2c.09-.3.17-.65-.26-.76s-.19.4-.35.51c-.76.55-1.07,1.46-1.69,2.12C66.18,36.93,65,36.8,64,34.88Zm42.82,31.54v-.26L103.49,65c-.25-.08-.6-.18-.71.14a2.46,2.46,0,0,0-.26,1.79c.15.34.54.21.84.16ZM90.65,35.36c-.76.13-1.2.62-1.82.55-.23,0-.48,0-.54.29a.57.57,0,0,0,.27.59,6.17,6.17,0,0,1,1.56,1.7c.22.37.41.38.67,0a1.19,1.19,0,0,0-.66-1.85c-.23-.09-.31-.23-.18-.43S90.34,35.74,90.65,35.36Z"/><path d="M81,41.89c-.46.07-1,.44-1.28-.27a1,1,0,0,1,.72-1.29,1.25,1.25,0,0,0,.85-1,1.28,1.28,0,0,1,.48-.63c.4-.32.92-.64,1.31-.09a.8.8,0,0,1-.46,1.23,2.17,2.17,0,0,0-1.32,1.72Z"/></g></svg>