<svg id="Capa_1" data-name="Capa 1" xmlns="http://www.w3.org/2000/svg" viewBox="0 0 176.51 100.23"><defs><style>.cls-1{fill:#dbdbdb;}.cls-2{fill:#f4f4f4;}.cls-3{fill:#0e0e0e;}.cls-4{fill:#353642;}.cls-4,.cls-6{stroke:#000;stroke-miterlimit:10;}.cls-5{fill:#8d8d8d;}.cls-6{fill:none;}</style></defs><g id="Capa_6" data-name="Capa 6"><path class="cls-1" d="M29.4,52.53a17.11,17.11,0,0,1-4.81-5.06,15.62,15.62,0,0,1-1.7-9.11c.29-2.63,4.85-11.7,20.64-12.47,11.85-1.64,27,3.29,30.85,6.56,0,0,5.28,10.46.38,16.34a9.66,9.66,0,0,1-7.61,3.49,30.16,30.16,0,0,0-6.73.26s-2.3,1.51-1.28,3.57l.56,1.49H54.17s-1.62-.26-2.17-3.49c0,0-.51-1.2-2.68-1.41S29.4,52.53,29.4,52.53Z"/><path class="cls-2" d="M143.17,54.49s5,7.06,6.25,10.28,2.66,7.44,2.66,7.44S156.53,75,158,70.85,152,56,152,56a33.58,33.58,0,0,0-11.87-9.79c-7.44-3.5-9.21-5.76-8.33-8.71s.46-7.46-1-9.16-6.21-5.6-11.23-3.7-5.79,7.32-5.79,7.32-1,1.69.13,1.83a12.82,12.82,0,0,0,2.93-.2s.36-.15.9.44,2.55.29,2.55.29l1-1s2-.29,2.7.32a6.59,6.59,0,0,0,2,1,15.26,15.26,0,0,1,.54,3.35c0,1.37.08,6.35,3.17,8.2a53.85,53.85,0,0,0,6.71,3.28A14.27,14.27,0,0,1,143.17,54.49Z"/></g><path class="cls-3" d="M40.65,100a10.69,10.69,0,0,1-.91-2.22c-.06-.48-.41-.39-.69-.42-2.92-.35-4.48-2.08-5.14-4.87-1.88-8-3.81-16-5.73-24-1-4.13,1.45-7.26,5.7-7.26H75.2c1.56,0,1.56,0,1-1.43-1-2.4.1-5.86,2.57-7.86,2.8-2.27,6.07-2.5,9.45-2,4.73.67,8.72,3,12.5,5.73A106.19,106.19,0,0,1,110,63.13c1.82,1.66,3.07,1.42,4.29-.73,1-1.82,1.8-3.76,2.68-5.65a14.26,14.26,0,0,1,5.31-6.14.89.89,0,0,0,.36-1.4,13.77,13.77,0,0,1-.64-1.48c-.52-1.4-.92-2.69-2.93-2.73-1.36,0-2.36-1.27-3.07-2.45-.5-.83-1-1.16-2-.78a2.67,2.67,0,0,1-2.14-.13,1.11,1.11,0,0,1-.78-1.16,1.16,1.16,0,0,1,.91-.94c1.36-.42,1.36-.44.71-1.71a2.6,2.6,0,0,1-.24-2.25,13.38,13.38,0,0,0,.77-3.82c.72-3.65,2.44-6.56,6.15-7.75s7.23-.11,10.23,2.41,3.42,5.72,2.92,9.28c-.13.92-.32,1.83-.44,2.75a3.84,3.84,0,0,0,1.63,3.74,23.62,23.62,0,0,0,4.85,2.42C148.13,48.93,154.43,56.25,158,66a8.47,8.47,0,0,1,.49,4.67c-.52,2.47-2.41,3.49-5.32,2.86.5,1.94,1,3.82,1.46,5.72a95.29,95.29,0,0,1,2.42,19.32c0,.46.1.91.15,1.37H156a99.84,99.84,0,0,0-1.75-17.15,83.81,83.81,0,0,0-7.08-21.42l-1.55-2.52c-.12,1-.09,1.72-.22,2.48a35.5,35.5,0,0,0-1,5.89,90.84,90.84,0,0,0-2.32,11c-.6,3.19-1.5,6.18-4,8.4A11.8,11.8,0,0,1,125.73,89c-2-.71-4.09-1.44-6.34-2.24A105,105,0,0,1,121,100h-1.16a84.92,84.92,0,0,0-1.45-13,.94.94,0,0,0-.67-.83q-2.58-.86-5.12-1.79c-.45-.17-.5-.09-.66.36-.84,2.32-2.1,4.56-4.6,5.12-3.67.83-7.41,1-10.4-2.13l-1.46,4.16c2.64,0,5.22,0,7.81,0,1.23,0,2.19.54,2.26,1.55.15,2.25.51,4.57-1,6.57h-1.16c0-.75.75-1.12,1-1.8a17.06,17.06,0,0,0,.23-4c0-.84-.34-1.18-1.18-1.18H89.08c-.33,0-.66-.06-.81.42-1,3.06-3.29,4-6.3,4-12.45,0-24.9,0-37.34,0-1,0-2,0-3,0s-.92.32-.57,1,.67,1.12,1,1.68Zm79.46-45.85-.07,0v.08c-.3.11-.71.15-.47.65l0,0c-.5-.18-.53.32-.67.54-3.39,5.43-3.75,11.28-2.38,17.37.09.44.32.45.64.41l5.28,1.25c2.32.55,3.32-.05,3.87-2.33.83-3.44,1.65-6.88,2.49-10.32.11-.46,0-1.24.89-1s.3.78.25,1.22a14.07,14.07,0,0,0-.57,3.16,4.33,4.33,0,0,0-.57,1.38c-.48,2.1-1,4.2-1.53,6.3a3.61,3.61,0,0,1-4.57,2.8c-2.85-.68-5.68-1.44-8.55-2-4.48-1-8.94-1-13.09,1.27-5.8,3.22-8.16,8.7-9.42,14.84A1.51,1.51,0,0,0,93,91.5a1.55,1.55,0,0,0,1.92-1.09c.39-1,.65-2.15,1.07-3.18a13.34,13.34,0,0,1,3-5c.2-.18.4-.57.73-.12.22.3.37.54,0,.9a18.13,18.13,0,0,0-1.18,1.42,2.59,2.59,0,0,0,2.1,4.25,4.24,4.24,0,0,1,.46-3.88c.15-.25.21-.87.79-.56s.39.67.11,1.12a3.21,3.21,0,0,0-.18,3.31c.38.74,1.16.59,1.75.53s.14-.62.13-1a9.05,9.05,0,0,1,.6-3.17c.12-.38.28-.51.66-.34s.53.32.33.78a6.1,6.1,0,0,0-.52,2.36c0,1,.37,1.44,1.42,1.26,2.38-.39,3.54-2.14,4.57-4,.27-.53.37-1.06-.3-1.38s-1,.16-1.24.67a5.6,5.6,0,0,1-1.11,1.75c-.21.19-.37.71-.8.31a.59.59,0,0,1,0-1,5.93,5.93,0,0,0,.88-1.35c.82-1.58,1.47-1.87,3.16-1.28,5.14,1.8,10.25,3.64,15.4,5.38a10.68,10.68,0,0,0,13.13-5.62,20.93,20.93,0,0,0,1.45-5.71c.47-2.73,1.4-5.39,1.29-8.22a1.15,1.15,0,0,0,.47-.88c.45-2.35,1-4.68,1.34-7a6.74,6.74,0,0,0-.82-4.92,14.46,14.46,0,0,0-9.94-6.53c-.61-.11-.8.06-1.05.53a6.61,6.61,0,0,1-1.94,2.4,7.49,7.49,0,0,1-5.05,1.12c-.92-.06-1.57-.24-1.82-1.22-.16-.64-.49-.66-1.1-.35A10.46,10.46,0,0,0,120.18,54,.13.13,0,0,1,120.11,54.13Zm3.16-20.36c-.78,0-1.63-.29-2.12.65a.91.91,0,0,0-.61.95,2.25,2.25,0,0,0,1.16,2.69,2.17,2.17,0,0,0,2.72-.49,2.06,2.06,0,0,0,.13-2.82A1.74,1.74,0,0,0,123.27,33.77ZM115,38.55c1.57.29,2.67-.28,3-1.55a2.4,2.4,0,0,0-1.57-2.84,2.16,2.16,0,0,0-2.85,1.35C113,37,113.44,37.85,115,38.55ZM88.21,51.34a2.22,2.22,0,0,0,1.37-.07c-.45-.12-.84-.44-1.35-.32-.46-.06-.92-.14-1.38-.17-3.38-.21-6.5.36-8.67,3.29a5.28,5.28,0,0,0-.75,5.87c1.84-2,3.62-3.92,5.37-5.87A7.41,7.41,0,0,1,88.21,51.34ZM55.28,62.29H33.58a4.34,4.34,0,0,0-4.43,5.6Q32.09,80.18,35,92.45c.63,2.64,2.09,3.82,4.75,3.82q21.47,0,42.93,0a4.39,4.39,0,0,0,4.53-5.72Q84.34,78.31,81.39,66.1c-.65-2.67-2.12-3.81-4.88-3.81Zm22.43-1.12c.67.22,1.11.35,1.54.5.6.2,1.07,1,1.65.79s1-1,1.44-1.47c.18-.2.35-.42.53-.62A1.83,1.83,0,0,0,83.58,59a2.77,2.77,0,0,1,2.93-2.91c2.29,0,4.57,0,6.85,0,.38,0,.79-.09.82.52s-.47.57-.87.57h-6.5a2.19,2.19,0,0,0-1.13.15,1.75,1.75,0,0,0-1.07,1.88,1.78,1.78,0,0,0,1.85,1.6c1.58,0,3.17,0,4.76,0,.37,0,.68,0,.69.53s-.34.51-.69.51c-.81,0-1.62,0-2.43,0s-.75.73-1,1.16.25.61.52.78a66.89,66.89,0,0,1,12.23,9.34,1,1,0,0,0,1.3.17A17,17,0,0,1,107.08,72a28.26,28.26,0,0,1,8.42.76,31.62,31.62,0,0,1-.8-8.64c-2.79,1.64-3.53,1.53-5.88-.62s-4.65-4-7.07-5.82a35.52,35.52,0,0,0-10.94-6.16c-.53-.16-1.06-.43-1.12.48,0,.6-.47.35-.78.34a5.49,5.49,0,0,0-4.19,1.36C82.34,56.1,80.11,58.6,77.71,61.17Zm44.66-36.55c-4.18,0-7.18,2.6-8.07,7-.09.49-.32,1.11-.12,1.46S115,33,115.46,33a2.33,2.33,0,0,1,.46,0c1,.43,1.53-.07,1.71-1,.09-.43.32-.42.66-.42s.39.24.44.51a4.56,4.56,0,0,0,.35,1.1c.35.69.71,1,1.46.28a3.22,3.22,0,0,1,4-.26c.29.17.48.42.9.43,1.86.09,2.25.62,1.93,2.5a11.54,11.54,0,0,0-.22,4.26c.85,4.39,3.68,6.81,7.82,7.91a15.84,15.84,0,0,1,8.39,5.26c4.21,5.08,6.76,11,9,17.15a2.6,2.6,0,0,0,5.11-.31,6.37,6.37,0,0,0-.19-3.1c-3.29-10.25-9.77-17.65-19.65-22a22.88,22.88,0,0,1-4.24-2.09,5.12,5.12,0,0,1-2.26-5.64c.17-.84.27-1.68.39-2.53A8.94,8.94,0,0,0,122.37,24.62ZM82.18,64.84c2,8.37,4,16.63,6,24.89.55,2.28.56,2.28,2.94,2.12,0,0,0,0,.08-.06-.59-1.24-.74-1.7-.56-2.51,1.33-5.88,3.6-11.19,8.85-14.7.47-.31.56-.48.1-.92A65.77,65.77,0,0,0,87.33,64.5c-.24-.14-.46-.42-.83-.18C85.21,65.15,83.77,65,82.18,64.84ZM118.32,38.4a3.32,3.32,0,0,1-2.07,1.21.38.38,0,0,0-.39.45c.07,1.61,2.67,4.09,4.38,4.12A6.81,6.81,0,0,0,124.5,43c.47-.34.74-.09,1,.21s-.16.53-.36.67a6.22,6.22,0,0,1-2.4,1.08c-.56.12-.65.33-.41.88.83,1.86,1.6,3.76,2.39,5.64.13.32.23.59.65.71a5.59,5.59,0,0,0,6.24-2.88c.27-.6.29-.94-.41-1.34a10.06,10.06,0,0,1-5-6.68,27.27,27.27,0,0,1-.37-3.58c-2.5,2.61-4.64,1.82-6.2-.19a1.34,1.34,0,0,0,.16,1.2c.13.21.51.54,0,.76a1,1,0,0,1-1.1-.07C118.42,39.14,118.5,38.76,118.32,38.4ZM81.64,63.34c2.33,1.22,4.84.51,5.3-1.45A3,3,0,0,1,84.4,61c-.32-.34-.51-.19-.74.07Zm30.67-22.76c.84.66,1.59.12,2.31-.11.43-.14.09-.61,0-.87s-.38-.36-.6,0A2.46,2.46,0,0,1,112.31,40.58Z"/><path class="cls-3" d="M47.11,23.27H58.59a19,19,0,0,1,19,19.19A10.67,10.67,0,0,1,67.09,53c-1.78,0-3.55,0-5.33,0a2.11,2.11,0,0,0-2.28,1.56c-.26,1.12.13,1.87,1.4,2.41.45.19.43.45.44.8,0,.54-.42.35-.67.36-1.86.07-3.71.16-5.57.16a3.15,3.15,0,0,1-3.28-2.94c-.18-1.67-.78-2.21-2.47-2.21-7.12,0-14.24,0-21.36,0A10.68,10.68,0,0,1,18,47.6c-1.69-2.93-1.6-6.11-.9-9.25A19,19,0,0,1,36,23.27ZM58.89,57.2a3.23,3.23,0,0,0-.11-.48c-1.11-2.68.25-4.78,3.12-4.8,1.59,0,3.17,0,4.76,0a9.57,9.57,0,0,0,9.81-10.6A17.86,17.86,0,0,0,58.32,24.37q-11.2,0-22.4,0a16.33,16.33,0,0,0-2.89.19A17.9,17.9,0,0,0,17.75,41.1a9.7,9.7,0,0,0,9.93,11H49c2.54,0,3.5.8,3.86,3.3a1.86,1.86,0,0,0,1.67,1.8C56,57.28,57.4,57.2,58.89,57.2Z"/><path class="cls-4" d="M119.56,54.88l0,0c-1,2-2.67,3.84-3.2,6a26.62,26.62,0,0,0,.42,12.23c1.76.42,3.89.89,5.65,1.31,2.32.55,3.32-.05,3.87-2.33.83-3.44,1.65-6.88,2.49-10.32.11-.46,0-1.24.89-1s.3.78.25,1.22a14.07,14.07,0,0,0-.57,3.16c4.83-3.15,11.12-1.52,13.18,3.42a1.15,1.15,0,0,0,.47-.88c.45-2.35,1-4.68,1.34-7a6.74,6.74,0,0,0-.82-4.92,14.46,14.46,0,0,0-9.94-6.53c-.61-.11-.8.06-1.05.53a6.61,6.61,0,0,1-1.94,2.4,7.49,7.49,0,0,1-5.05,1.12c-.92-.06-1.57-.24-1.82-1.22-.16-.64-.49-.66-1.1-.35A10.46,10.46,0,0,0,120.18,54a.12.12,0,0,0-.07.1l-.07,0S119.54,54.6,119.56,54.88Z"/><path class="cls-5" d="M124.55,34.75a12.14,12.14,0,0,1-4,.62.91.91,0,0,1,.61-.95c.71-.21,1.56,0,2.12-.65A1.74,1.74,0,0,1,124.55,34.75Z"/><path class="cls-3" d="M121.2,41.63c-.3-.1-.9.22-.94-.44s.37-.7.92-.64a1.38,1.38,0,0,0,1.39-.64c.33-.57.77-.36,1.05-.12s-.09.61-.27.84A2.51,2.51,0,0,1,121.2,41.63Z"/><path class="cls-5" d="M121.89,36.24a.47.47,0,0,1,.52.5.51.51,0,0,1-.54.59.55.55,0,0,1-.55-.51C121.3,36.45,121.53,36.27,121.89,36.24Z"/><path class="cls-5" d="M115,38.17a2.32,2.32,0,0,1-1.19-2.36c.42.11.42.11.58,1.11.27-.75.47-1.37.71-2a.69.69,0,0,1,1-.43c.53.29,0,.61-.09.84a7.08,7.08,0,0,0-.51,2.11C115.41,37.82,115.47,38.2,115,38.17Z"/><path class="cls-5" d="M116.58,36.55a.56.56,0,0,1,.49.68.45.45,0,0,1-.54.43.51.51,0,0,1-.46-.65A.53.53,0,0,1,116.58,36.55Z"/><circle class="cls-6" cx="34.06" cy="39.09" r="5.56"/><circle class="cls-6" cx="47.72" cy="39.09" r="5.56"/><circle class="cls-6" cx="61.58" cy="39.09" r="5.56"/><circle class="cls-6" cx="57.87" cy="79.28" r="7.29"/></svg>