<?xml version="1.0" encoding="UTF-8"?>
<svg id="Capa_1_copia" data-name="Capa 1 copia" xmlns="http://www.w3.org/2000/svg" viewBox="0 0 40.41 49.81">
  <defs>
    <style>
      .cls-1 {
        fill: none;
        stroke: #000;
        stroke-linecap: round;
        stroke-linejoin: round;
        stroke-width: 3px;
      }

      .cls-2 {
        font-family: FranklinGothic-Medium, 'Franklin Gothic Medium';
        font-size: 12px;
        font-weight: 500;
      }
    </style>
  </defs>
  <g id="Capa_5" data-name="Capa 5">
    <path class="cls-1" d="M1.5,46.9V2.9c-.02-.76,.58-1.38,1.34-1.4,.02,0,.04,0,.06,0H30.1c.38-.02,.74,.13,1,.4l7.4,7.4c.12,.15,.22,.32,.3,.5,.07,.16,.11,.33,.1,.5V46.9c.03,.17,0,.35-.1,.5-.1,.2-.2,.3-.3,.5-.15,.12-.32,.22-.5,.3-.16,.07-.33,.11-.5,.1H2.9c-.17,.03-.35,0-.5-.1-.2-.1-.3-.2-.5-.3-.12-.15-.22-.32-.3-.5-.08-.15-.12-.33-.1-.5Z"/>
    <polyline class="cls-1" points="38.8 9.8 29.5 10.1 30.1 1.5"/>
  </g>
  <text class="cls-2" transform="translate(9.51 31.72)"><tspan x="0" y="0">PNG</tspan></text>
</svg>