<?xml version="1.0" encoding="utf-8"?>
<!-- Generator: Adobe Illustrator 27.0.0, SVG Export Plug-In . SVG Version: 6.00 Build 0)  -->
<svg version="1.1" id="Capa_1_copia" xmlns="http://www.w3.org/2000/svg" xmlns:xlink="http://www.w3.org/1999/xlink" x="0px"
	 y="0px" viewBox="0 0 40.4 49.8" style="enable-background:new 0 0 40.4 49.8;" xml:space="preserve">
<style type="text/css">
	.st0{fill:none;stroke:#000000;stroke-width:3;stroke-linecap:round;stroke-linejoin:round;}
	.st1{font-family:'FranklinGothic-Book';}
	.st2{font-size:12px;}
</style>
<g id="Capa_5">
	<path class="st0" d="M1.5,46.9v-44c0-0.8,0.6-1.4,1.3-1.4c0,0,0,0,0.1,0h27.2c0.4,0,0.7,0.1,1,0.4l7.4,7.4c0.1,0.1,0.2,0.3,0.3,0.5
		c0.1,0.2,0.1,0.3,0.1,0.5v36.6c0,0.2,0,0.3-0.1,0.5c-0.1,0.2-0.2,0.3-0.3,0.5c-0.2,0.1-0.3,0.2-0.5,0.3c-0.2,0.1-0.3,0.1-0.5,0.1
		H2.9c-0.2,0-0.3,0-0.5-0.1c-0.2-0.1-0.3-0.2-0.5-0.3c-0.1-0.2-0.2-0.3-0.3-0.5C1.5,47.2,1.5,47.1,1.5,46.9z"/>
	<polyline class="st0" points="38.8,9.8 29.5,10.1 30.1,1.5 	"/>
</g>
<text transform="matrix(1 0 0 1 9.51 31.72)" class="st1 st2">RAR</text>
</svg>
