<svg id="Capa_1" data-name="Capa 1" xmlns="http://www.w3.org/2000/svg" viewBox="0 0 95.69 91.46"><defs><style>.cls-1{fill:#4b4db3;}.cls-2{fill:#cbd4f5;}.cls-3{fill:#646f9a;}.cls-4{fill:#3873c2;}.cls-5{fill:#7172ac;}.cls-6{fill:#4c4eb3;}.cls-7{fill:#939dbf;}.cls-8{fill:#8f9dd4;}.cls-9{fill:#7273ad;}.cls-10{fill:#3c75c3;}.cls-11{fill:#4d4fb4;}.cls-12{fill:#ffe609;}.cls-13{fill:#e1b146;}.cls-14{fill:#ffe60d;}.cls-15{fill:#ffe715;}.cls-16{fill:#fff;}</style></defs><path class="cls-1" d="M51.53,67.36l1.29,1.83A16.56,16.56,0,0,0,55,71.71c.57.53,1.14,1.06,1.69,1.62a17.69,17.69,0,0,0,4.2,3c2.59,1.43,5.15,2.9,7.8,4.21a6.41,6.41,0,0,1,1,.63.79.79,0,0,1-.48.1A9.11,9.11,0,0,1,66,80.66a32.71,32.71,0,0,1-4.91-2.29,23.05,23.05,0,0,1-3.4-2.13l0,0A29.09,29.09,0,0,1,53,70.86c-.58-1-1-2.14-1.54-3.22,0-.08-.13-.18,0-.27Z"/><path class="cls-1" d="M53.74,77.24a25.25,25.25,0,0,0,8.45,6.08A46.61,46.61,0,0,0,67,85.39a31.3,31.3,0,0,0,4.16,1,6.36,6.36,0,0,1,1.14.29c-.22.23-.41.43-.62.62s-.35.11-.54.12a15,15,0,0,1-5.56-.73,25.15,25.15,0,0,1-7.79-4.13,20,20,0,0,1-2.11-2,11,11,0,0,1-1.9-3,1.19,1.19,0,0,1,0-.26Z"/><path class="cls-2" d="M84.11,69.69a2.93,2.93,0,0,1-1.36-.07,9.7,9.7,0,0,1-4.32-2.07c-.36-.29-.73-.58-1.07-.9a11.77,11.77,0,0,1-2.87-4.44A14.29,14.29,0,0,1,73.68,59c-.06-.45-.14-.89-.17-1.35a8.9,8.9,0,0,1,.38-2.9,1.62,1.62,0,0,0,.07-.48.93.93,0,0,1,.42.74,5.44,5.44,0,0,1,.18,1.12A11.86,11.86,0,0,0,75,58.48a17.86,17.86,0,0,0,1.56,4.1,14.65,14.65,0,0,0,2,2.91A17.64,17.64,0,0,0,83,68.83l.78.48A.77.77,0,0,1,84.11,69.69Z"/><path class="cls-3" d="M65.68,45.68a6.17,6.17,0,0,1,.29-1,10.7,10.7,0,0,0,.57-4.16,15.13,15.13,0,0,0-.67-3.33c-.09-.33-.21-.67-.32-1a6.86,6.86,0,0,0-2-3.14c-.39-.34-.78-.66-1.2-1a3,3,0,0,0-1.55-.64.73.73,0,0,1,.58-.41,2.18,2.18,0,0,1,1.38.16A7.3,7.3,0,0,1,66.9,34.9a12.13,12.13,0,0,1,1.23,5.77A7.5,7.5,0,0,1,67,44.44a4.7,4.7,0,0,1-.77.9A1.32,1.32,0,0,1,65.68,45.68Z"/><path class="cls-1" d="M71.53,7.62A7.37,7.37,0,0,1,72.7,6,20.36,20.36,0,0,1,77.07,2.5,16.3,16.3,0,0,1,83.68.08a6.43,6.43,0,0,1,1.58,0,2.2,2.2,0,0,1,1,.36.58.58,0,0,1,.31.38,1.13,1.13,0,0,1-.44,0,5.13,5.13,0,0,0-1.56.24A28.26,28.26,0,0,0,78,3.88q-2.44,1.39-4.83,2.9A8.49,8.49,0,0,1,71.53,7.62Z"/><path class="cls-4" d="M44.11,61.89a7.51,7.51,0,0,1,2.14,3.18c.45,1.29.84,2.6,1.38,3.86.35.81.7,1.62,1.1,2.4a12.08,12.08,0,0,0,3.38,4l1.37,1.1c.19.16.37.33.56.51-.12.1-.22,0-.31,0a9.92,9.92,0,0,1-5.69-4,16,16,0,0,1-2.42-5.78c-.12-.53-.21-1.07-.31-1.6a12.22,12.22,0,0,0-1.09-3.34.58.58,0,0,1-.1-.33Z"/><path class="cls-2" d="M31.66,76.7a7,7,0,0,1,6.4-.36,11.36,11.36,0,0,1,3.19,1.83,13.37,13.37,0,0,1,2,2.07,15.59,15.59,0,0,0,1.52,1.82c.34.34.73.64,1.09,1a2.31,2.31,0,0,1,.53.62,3.57,3.57,0,0,1-.74-.09A6,6,0,0,1,42.91,82c-.42-.4-.82-.81-1.22-1.22a16.7,16.7,0,0,0-3.52-2.62,12.69,12.69,0,0,0-2.67-1.24,7.36,7.36,0,0,0-3.13-.23A4.19,4.19,0,0,1,31.66,76.7Z"/><path class="cls-5" d="M69.9,23.78a5.21,5.21,0,0,1,1.72.72,15.31,15.31,0,0,1,5.52,5.75,16.25,16.25,0,0,1,1.38,3,4.2,4.2,0,0,1,.11,2.6c0,.08,0,.17-.13.21a.51.51,0,0,1-.23-.36,18.69,18.69,0,0,0-2.38-4.31,38.32,38.32,0,0,0-4.62-5.77c-.35-.36-.66-.75-1-1.14A2,2,0,0,1,69.9,23.78Z"/><path class="cls-1" d="M29.44,53.19a7.72,7.72,0,0,1,2.3.6,21.93,21.93,0,0,1,5.68,3.44c.72.59,1.42,1.2,2.12,1.8a14.57,14.57,0,0,1,2.74,3.27.28.28,0,0,1,0,.11A8.27,8.27,0,0,1,41,61.69c-1.88-1.29-3.8-2.52-5.6-3.93-1.54-1.2-3.17-2.28-4.74-3.46a8.79,8.79,0,0,1-1-.88A.4.4,0,0,1,29.44,53.19Z"/><path class="cls-4" d="M74.94,34a7.67,7.67,0,0,1,2.28,2.36,12.6,12.6,0,0,1,1.83,6.84,31.67,31.67,0,0,1-.26,3.65c-.16,1.43-.24,2.87-.35,4.31,0,.11,0,.22,0,.39a.46.46,0,0,1-.15-.28,12.53,12.53,0,0,1-.67-4.42c0-.74,0-1.47.07-2.21a31.49,31.49,0,0,0-.23-4.75,6.57,6.57,0,0,0-.29-1.24,15.17,15.17,0,0,0-1.75-3.79,5.64,5.64,0,0,1-.31-.53C75,34.26,75,34.15,74.94,34Z"/><path class="cls-2" d="M76.61,1.38a19.47,19.47,0,0,0-2.14,1.25,41.2,41.2,0,0,0-3.35,2.56c-1,.81-1.91,1.63-2.84,2.48-.58.53-1.15,1.05-1.73,1.56A20.57,20.57,0,0,1,62.78,12a.15.15,0,0,1-.19,0c0-.15.11-.26.21-.39.78-1,1.6-1.9,2.44-2.82s1.87-1.95,2.85-2.88a21.7,21.7,0,0,1,2.53-2A20.51,20.51,0,0,1,73.68,2a5.94,5.94,0,0,1,2.71-.67Z"/><path class="cls-1" d="M15.65,79.25a4,4,0,0,1-1,.14,9,9,0,0,1-5-1.12A9.1,9.1,0,0,1,7,75.86a10.63,10.63,0,0,1-2.27-5.23,6.26,6.26,0,0,1,.07-2.1,14.82,14.82,0,0,0,.72,2.33,12.23,12.23,0,0,0,2.07,3.36c.45.52.92,1,1.39,1.54A8.55,8.55,0,0,0,12.45,78c1,.34,2,.64,2.89,1.07Z"/><path class="cls-2" d="M74,67.68a.55.55,0,0,0-.16-.44,7.5,7.5,0,0,1-1.77-4,7.65,7.65,0,0,1,0-1c.09,0,.13,0,.14,0,.2.35.41.71.6,1.07A9.87,9.87,0,0,0,74.7,66.1a23.65,23.65,0,0,0,3.66,2.8A24.47,24.47,0,0,0,82,70.65c.45.19.89.43,1.41.69A3.33,3.33,0,0,1,82,71.5a13.27,13.27,0,0,1-2.08-.34A11.38,11.38,0,0,1,75.63,69a11.67,11.67,0,0,1-1.07-.91.39.39,0,0,0-.32-.12Z"/><path class="cls-5" d="M90.2,63.43a5,5,0,0,1-1.81-1.13,30.82,30.82,0,0,1-3.52-3.88c-1-1.31-2.05-2.61-3-4a9,9,0,0,1-1.09-1.86,1.7,1.7,0,0,1,.7.29,12.29,12.29,0,0,1,2,1.57,30.55,30.55,0,0,1,4.28,5c.7,1,1.41,2,2.07,3A1.47,1.47,0,0,1,90.2,63.43Z"/><path class="cls-2" d="M55.17,81.07a12.75,12.75,0,0,1-7.66-3.23,12.31,12.31,0,0,1-4-7,8.24,8.24,0,0,1,1,1.12l1,1.41a15.68,15.68,0,0,0,2.6,2.86,30.22,30.22,0,0,0,3.14,2.39c.69.47,1.42.88,2.13,1.32l1.63,1Z"/><path class="cls-3" d="M76.22,52.82a5.29,5.29,0,0,1-.84-1.16,9.23,9.23,0,0,1-1.06-4.15,29.79,29.79,0,0,1,.22-4.62c.1-.89.2-1.78.29-2.67A4.93,4.93,0,0,0,74.58,38a1.94,1.94,0,0,1,.85.88,4.73,4.73,0,0,1,.46,1.95,37,37,0,0,1,0,5.16,22.61,22.61,0,0,0,.27,5.75c0,.28.08.58.11.87A1.7,1.7,0,0,1,76.22,52.82Z"/><path class="cls-2" d="M13.53,56.31c0-.24.18-.35.29-.49a7.46,7.46,0,0,1,4.62-2.91,6.75,6.75,0,0,1,2.61,0,17.56,17.56,0,0,1,4.08,1.33,3.14,3.14,0,0,1,1.22.85c.1.11.21.2.22.36a.28.28,0,0,1-.26,0c-1.32-.35-2.67-.5-4-.76a13.1,13.1,0,0,0-2.79-.3,8.5,8.5,0,0,0-3,.62c-.9.38-1.8.78-2.7,1.17A.37.37,0,0,1,13.53,56.31Z"/><path class="cls-4" d="M32.22,81.53a5.76,5.76,0,0,1-1.55.28c-1.93.18-3.86.43-5.78.67a16.15,16.15,0,0,1-2.69.11l-3.44-.14a6.38,6.38,0,0,1-1.56-.27,1.6,1.6,0,0,1-.66-.3,8.85,8.85,0,0,0,3.09-.11c1.14-.2,2.3-.3,3.46-.43s2.35-.34,3.54-.42a14.65,14.65,0,0,1,4.48.21A5.13,5.13,0,0,1,32.22,81.53Z"/><path class="cls-2" d="M38.63,21.47A12.36,12.36,0,0,1,37,22.72c-1,.73-2.12,1.3-3.18,2a25.72,25.72,0,0,0-3.16,2.23,20.34,20.34,0,0,0-3.15,3.47l-.56.77c-.09-.17,0-.28,0-.39a8.73,8.73,0,0,1,1.76-3.6,12.84,12.84,0,0,1,4.16-3.45,45.64,45.64,0,0,1,4.28-1.94,3.47,3.47,0,0,1,1.46-.3Z"/><path class="cls-6" d="M40.16,28.45c-.57,1-1.07,2-1.57,3a18.32,18.32,0,0,0-1.67,5.09A10.69,10.69,0,0,0,36.8,39a7,7,0,0,1,0,1,.36.36,0,0,1-.28-.2,4.66,4.66,0,0,1-.9-2.63A9.75,9.75,0,0,1,37,31.68a11.73,11.73,0,0,1,1.83-2.43A2.78,2.78,0,0,1,40.16,28.45Z"/><path class="cls-6" d="M40.48,82a10.67,10.67,0,0,1-2-.47c-1-.32-2-.71-3-1a15.78,15.78,0,0,0-6.12-.37,3.49,3.49,0,0,1-.79,0,1.46,1.46,0,0,1-.91-.39,7.87,7.87,0,0,0,2.14-.65,9.86,9.86,0,0,1,7,.38,13,13,0,0,1,3.51,2.18l.19.18Z"/><path class="cls-4" d="M41.3,45.47a.36.36,0,0,0-.12-.27,10.34,10.34,0,0,1-2-5.25,9.54,9.54,0,0,1,1.37-6.25,4.92,4.92,0,0,1,1.25-1.38,1.67,1.67,0,0,1-.24.62,11.33,11.33,0,0,0-1.21,4.21,14.48,14.48,0,0,0,1.29,7.43c.26.55.51,1.09.76,1.64a.26.26,0,0,1,0,.26c-.32-.19-.52-.51-.82-.72A.36.36,0,0,0,41.3,45.47Z"/><path class="cls-3" d="M52.7,33.5a3.43,3.43,0,0,1,.7-.25c.1,0,.2,0,.3,0,.07.15-.06.19-.11.26a10.69,10.69,0,0,0-1.76,2.79,5.56,5.56,0,0,0,1,5.94c.2.25.42.48.63.73s.19.25.31.42a1.14,1.14,0,0,1-.54-.08,5,5,0,0,1-1.6-.92,3.35,3.35,0,0,0-.59-.6,1.38,1.38,0,0,0-.25-.46,5.29,5.29,0,0,1-.64-4.43,6,6,0,0,1,1.06-2,1.4,1.4,0,0,0,.32-.47Z"/><path class="cls-7" d="M52.42,52.54a2.08,2.08,0,0,1-1.07.38,6.43,6.43,0,0,1-3.5-.38,5,5,0,0,1-2.31-2.22,10.27,10.27,0,0,1-1.21-3.2,2.45,2.45,0,0,1,.05-1.26c0-.08.06-.18.17-.18s.13.1.16.18a23.8,23.8,0,0,0,2.38,4,4.67,4.67,0,0,0,2.44,1.79c.73.25,1.49.42,2.25.62A1.55,1.55,0,0,1,52.42,52.54Z"/><path class="cls-8" d="M53.52,83.6l1.72.81a26.49,26.49,0,0,0,6.68,2.16c1.12.21,2.25.37,3.36.65l.41.11C61.26,88.89,55.55,86.84,53.52,83.6Z"/><path class="cls-2" d="M11,72.37c-.11.07,0,.15,0,.23A6.06,6.06,0,0,0,13.28,75a12.45,12.45,0,0,0,3.34,1.19,28.14,28.14,0,0,0,3.29.52c.6.06,1.19.15,1.78.21,0,.11-.06.13-.13.15a9.94,9.94,0,0,1-4.32.61,9.53,9.53,0,0,1-3.39-.86,5.37,5.37,0,0,1-2.73-2.5A4.68,4.68,0,0,1,10.74,73a1.49,1.49,0,0,1,.08-.69A.16.16,0,0,1,11,72.37Z"/><path class="cls-2" d="M32,40.75a2.89,2.89,0,0,1-1-1.07,6.82,6.82,0,0,1-.78-2.41,12,12,0,0,1-.13-1.57,9.3,9.3,0,0,1,.19-2,7.28,7.28,0,0,1,2.21-3.87,6,6,0,0,1,1.43-1,.19.19,0,0,1,.22,0c0,.2-.2.33-.31.5a15.6,15.6,0,0,0-1.76,3.14,12.36,12.36,0,0,0-.52,2.26,17.62,17.62,0,0,0-.12,2.05,8,8,0,0,0,.08,1.62A18.62,18.62,0,0,0,32,40.75Z"/><path class="cls-9" d="M79,54.6a5.27,5.27,0,0,1,.3,1.15,37.88,37.88,0,0,0,2,6.93A14.76,14.76,0,0,0,82.38,65c.06.1.15.19.12.34a1.38,1.38,0,0,1-.76-.3,5.29,5.29,0,0,1-1.52-1.64,11.43,11.43,0,0,1-1.84-6.65,6,6,0,0,1,.38-1.81A.55.55,0,0,1,79,54.6Z"/><path class="cls-6" d="M9.92,67.53a4.56,4.56,0,0,1,.65-2.44c0-.08.08-.19.25-.23,0,.18,0,.35,0,.51A9.37,9.37,0,0,0,11,67.61a5.08,5.08,0,0,0,.36,1.08,3.31,3.31,0,0,0,1.76,1.77,13.8,13.8,0,0,0,2.41.7,18.17,18.17,0,0,1,1.8.44.53.53,0,0,1,.32.15,3.28,3.28,0,0,1-1.14.31,8.76,8.76,0,0,1-3.42-.21,4,4,0,0,1-2.3-1.53,2.08,2.08,0,0,1-.36-.65c.09-.15,0-.25-.07-.37A4.7,4.7,0,0,1,9.92,67.53Z"/><path class="cls-10" d="M11,72.37a.16.16,0,0,0-.2-.06L10.35,72a9.72,9.72,0,0,1-4.23-5.91,5.1,5.1,0,0,1,.8-4.2,7.19,7.19,0,0,1,1.69-1.83l.11.08c-.28.44-.59.87-.86,1.33a6.23,6.23,0,0,0-.25,5.84,12.66,12.66,0,0,0,2.24,3.41c.54.62,1.12,1.2,1.75,1.81C11.35,72.54,11.2,72.4,11,72.37Z"/><path class="cls-5" d="M56.65,49.09c.11-.15,0-.28,0-.41a1.91,1.91,0,0,1,.07-1.41c.15,0,.16.14.2.22a7,7,0,0,0,.5.83,3.55,3.55,0,0,0,2.49,1.5,8.07,8.07,0,0,0,3.52-.35A15,15,0,0,1,65.13,49c.07,0,.14,0,.22,0a1.21,1.21,0,0,1-.26.39,5.88,5.88,0,0,1-5.85,1.79,3.31,3.31,0,0,1-1.9-1.2.39.39,0,0,0-.13-.39c-.15-.14-.28-.28-.42-.43s-.06-.12-.14-.09Z"/><path class="cls-8" d="M74,67.68l.28.29c.05.1.06.2-.09.13a10.94,10.94,0,0,1-1-.54,11.39,11.39,0,0,1-4.32-4.65A10.38,10.38,0,0,1,68.17,61,13,13,0,0,0,67,58.15a5.19,5.19,0,0,0-.6-.72A1.59,1.59,0,0,1,67.5,58a7.24,7.24,0,0,1,1.67,2.72,14.22,14.22,0,0,0,3.1,5.12C72.83,66.45,73.39,67.06,74,67.68Z"/><path class="cls-4" d="M95.69,72.61a2.25,2.25,0,0,1-.64.66,4.79,4.79,0,0,1-2,.8,9.1,9.1,0,0,1-3.71-.21,11.11,11.11,0,0,1-1.53-.41,4.25,4.25,0,0,1-1.27-.7,1.85,1.85,0,0,1-.36-.38c-.05-.08-.11-.16-.05-.24s.13,0,.21,0a3.37,3.37,0,0,1,.77.14,6.65,6.65,0,0,0,1.47.25l3,.29a11.14,11.14,0,0,0,3.55-.15A1.3,1.3,0,0,1,95.69,72.61Z"/><path class="cls-2" d="M66.15,75.68a.19.19,0,0,1,.21.14A8,8,0,0,0,68,77l.48.32c1.27.79,2.57,1.53,3.78,2.41a3.07,3.07,0,0,0,1.24.61l-.25.05c.92.65,1.81,1.29,2.7,2a.51.51,0,0,1-.41,0,11.92,11.92,0,0,1-3.92-1.62,21,21,0,0,1-2.52-1.75l-1.27-1a.08.08,0,0,0,0-.14,2.1,2.1,0,0,0-.44-.4c-.1-.11-.2-.21-.29-.32A4.35,4.35,0,0,1,66.15,75.68Z"/><path class="cls-2" d="M27.89,71.22a.62.62,0,0,0-.4.22,8,8,0,0,1-2.84,2.25,3.35,3.35,0,0,1-2.27.19,1.86,1.86,0,0,1-.2-.1.24.24,0,0,1,.19-.13A5.9,5.9,0,0,0,25,72.09a17.72,17.72,0,0,0,2.15-2.43,5.71,5.71,0,0,0,.95-2.34,3.46,3.46,0,0,1,.23-.83A2.59,2.59,0,0,1,28.83,68a4.12,4.12,0,0,1-.66,2.5.46.46,0,0,0-.11.37v0c-.08,0-.09.09-.1.17S27.63,71.07,27.89,71.22Z"/><path class="cls-9" d="M41.69,36.41a2.37,2.37,0,0,1,.19,1c0,.79.07,1.58.18,2.37A11.53,11.53,0,0,0,43,43a2.74,2.74,0,0,0,1.39,1.47l.22.13c-.49-.06-.9,0-1.3-.08a1.88,1.88,0,0,1-1.25-.67,5,5,0,0,1-1.07-2A7,7,0,0,1,41.3,37,1.48,1.48,0,0,1,41.69,36.41Z"/><path class="cls-11" d="M47.52,80a4.25,4.25,0,0,1-1.11-.54,12.34,12.34,0,0,1-1.53-1.26,23.53,23.53,0,0,1-3.47-3.92A11.09,11.09,0,0,1,40,71.31a.75.75,0,0,1-.07-.33c.13,0,.18.16.25.25a24.06,24.06,0,0,0,2.62,3.09,54.53,54.53,0,0,1,4.44,5.17A1.28,1.28,0,0,1,47.52,80Z"/><path class="cls-10" d="M8,78a14.28,14.28,0,0,1-3.24-2,8.72,8.72,0,0,1-3.23-5.64,9.24,9.24,0,0,1,.93-5.26.82.82,0,0,1,0,.44,24.62,24.62,0,0,0-.23,3.21,9.12,9.12,0,0,0,3.57,7.35c.64.51,1.31,1,2,1.46.11.09.27.13.3.31Z"/><path class="cls-4" d="M25.61,64.77a4.55,4.55,0,0,0-.34-6.11A11.37,11.37,0,0,0,24,57.6a2.68,2.68,0,0,1-.57-.51,1.9,1.9,0,0,1,.86,0,4.36,4.36,0,0,1,3.52,4.14,4.93,4.93,0,0,1-.7,2.56,2.29,2.29,0,0,1-.63.72A1,1,0,0,1,25.61,64.77Z"/><path class="cls-2" d="M46.73,20.06a7.24,7.24,0,0,1,.71-.41c.83-.37,1.66-.73,2.5-1.08a13.19,13.19,0,0,0,3.35-2l2.13-1.77a1.71,1.71,0,0,1,.56-.35c.1.15,0,.26-.07.36a19.4,19.4,0,0,1-1.69,2.35,8,8,0,0,1-2.63,2,8.9,8.9,0,0,1-2.82.78,13.38,13.38,0,0,1-2,.17Z"/><path class="cls-2" d="M9.92,67.53a4.7,4.7,0,0,0,.43,1.77c.05.12.16.22.07.37a4.19,4.19,0,0,1-1.9-3,7.45,7.45,0,0,1,.58-4.34A4.61,4.61,0,0,1,11,60.12a.16.16,0,0,1,.18,0c0,.13-.07.24-.13.35a12.18,12.18,0,0,0-1.15,3.72c-.09.57-.13,1.16-.18,1.74a11.13,11.13,0,0,0,.1,1.53C9.78,67.5,9.86,67.51,9.92,67.53Z"/><path class="cls-10" d="M39,46.81a17.79,17.79,0,0,0,1.38,2c.65.81,1.32,1.62,2,2.42A10.41,10.41,0,0,0,46,54a30,30,0,0,0,3.66,1.52.39.39,0,0,1,.24.16c-.26,0-.53,0-.8,0a4.7,4.7,0,0,1-.83-.1,13.87,13.87,0,0,1-5.06-2.32A6.62,6.62,0,0,1,42,52a31.38,31.38,0,0,1-2.08-2.91,9.53,9.53,0,0,1-1-2.21Z"/><path class="cls-6" d="M70.67,90.5a1.49,1.49,0,0,1,.87-.27c1.32,0,2.65-.13,4-.06,1.65.08,3.29.18,4.92.41a.71.71,0,0,1,.38.09C78.73,91.8,72.64,91.69,70.67,90.5Z"/><path class="cls-6" d="M14.38,53a13.34,13.34,0,0,0-4.25,2.48A21,21,0,0,0,7,59.19a2.35,2.35,0,0,1,0-.95,6.71,6.71,0,0,1,5.4-5.18A19.19,19.19,0,0,1,14.38,53Z"/><path class="cls-9" d="M72.66,40.64l-.57-2.12A8.2,8.2,0,0,0,70,34.94c-.44-.47-.92-.91-1.38-1.36a1.07,1.07,0,0,1-.34-.43,1.45,1.45,0,0,1,.75.05,5.57,5.57,0,0,1,3.89,6.86c-.05.19-.12.39-.18.58Z"/><path class="cls-2" d="M36.08,61.25a1,1,0,0,1-.51-.2c-1.22-.91-2.54-1.69-3.8-2.55C31,58,30.2,57.37,29.46,56.74a3.33,3.33,0,0,0-1.21-.69.49.49,0,0,1,.37-.16A2.89,2.89,0,0,1,30,56.1a17.21,17.21,0,0,1,4.13,2.49,8,8,0,0,1,1.56,1.77A2.28,2.28,0,0,1,36.08,61.25Z"/><path class="cls-9" d="M55.93,38.41a6.2,6.2,0,0,0-.33,3.33,2.87,2.87,0,0,0,.8,1.54,12.39,12.39,0,0,0,1,.89c.13.1.28.17.35.37a1.07,1.07,0,0,1-.56,0,3.42,3.42,0,0,1-3-3.24,5.47,5.47,0,0,1,1.22-3.9.61.61,0,0,1,.33-.28A3.51,3.51,0,0,0,55.93,38.41Z"/><path class="cls-11" d="M16.47,58.54c-.14.2-.26.38-.39.55a9.73,9.73,0,0,0-1.47,3,4.83,4.83,0,0,0,.4,3.63c.24.45.49.9.74,1.34-.13.12-.21,0-.29,0a4.35,4.35,0,0,1-2-5,6,6,0,0,1,2.32-3.28A1.31,1.31,0,0,1,16.47,58.54Z"/><path class="cls-11" d="M27.89,71.22c-.26-.15,0-.16.06-.24s.19,0,.1-.17v0c.21,0,.31-.13.42-.24a2.73,2.73,0,0,0,.57-1,14.59,14.59,0,0,0,1-4.84,10.56,10.56,0,0,1,.1-1.49c.16,0,.17.1.21.17a5.82,5.82,0,0,1,.28,5.22,5.94,5.94,0,0,1-1,1.71A2,2,0,0,1,27.89,71.22Z"/><path class="cls-11" d="M66.46,27.39a1.62,1.62,0,0,1,.56.23A17.36,17.36,0,0,1,70.43,30a7.46,7.46,0,0,1,1.35,1.62,4.34,4.34,0,0,1,.65,2.13,32.33,32.33,0,0,0-3.81-3.53,14.87,14.87,0,0,1-1.38-1.37,1.25,1.25,0,0,1-.3-.42l.27,0s.07.05.1,0,0,0,0-.07C67.11,28,66.72,27.74,66.46,27.39Z"/><path class="cls-9" d="M47.6,28.46c-.31,1-.68,1.84-.9,2.75S46.3,33,46.15,34s-.1,1.87-.17,2.79c-.17.05-.22-.06-.28-.13a3.49,3.49,0,0,1-.64-1.57,6.83,6.83,0,0,1,1.76-6A2.78,2.78,0,0,1,47.6,28.46Z"/><path class="cls-11" d="M50.72,49.73c.7.61,1.5,1.11,2.24,1.73-.8.21-2.32-.31-3.64-1.25a6.16,6.16,0,0,1-2.91-4.8l1,1.18.46.69A5.15,5.15,0,0,0,49.52,49,12.39,12.39,0,0,1,50.72,49.73Z"/><path class="cls-9" d="M81.23,44.59a15.74,15.74,0,0,1,.85,2.08A29.4,29.4,0,0,0,83.54,50,3.3,3.3,0,0,0,85,51.73a1.25,1.25,0,0,1-1.35-.08,4.35,4.35,0,0,1-1.29-1.31A7.18,7.18,0,0,1,81.13,45C81.15,44.9,81.18,44.79,81.23,44.59Z"/><path class="cls-2" d="M61.55,34.72a3.17,3.17,0,0,1,1.07.07,5.07,5.07,0,0,1,1.78.82,2.36,2.36,0,0,1,1,2,2.45,2.45,0,0,1-1.53,2.45,1.91,1.91,0,0,1-.77.3c-.08,0-.18,0-.23-.08s0-.14.06-.2c.24-.32.46-.64.73-.94A2.2,2.2,0,0,0,64,37.27a1.25,1.25,0,0,0-.38-.64A14,14,0,0,0,62,35.25.92.92,0,0,1,61.55,34.72Z"/><path class="cls-6" d="M25.08,62.92a.91.91,0,0,1,.29.69,2,2,0,0,1-.68,1.7A2.62,2.62,0,0,1,23,66a6.47,6.47,0,0,1-4.21-1.54,7.33,7.33,0,0,1,1.48,0l1.62.2a5.45,5.45,0,0,0,1.14,0A2,2,0,0,0,25,63.21C25,63.12,25,63,25.08,62.92Z"/><path class="cls-10" d="M54.28,55.47a1.13,1.13,0,0,1,.55.15,9.17,9.17,0,0,0,5.28.5c1.09-.16,2.16-.42,3.24-.62a5.3,5.3,0,0,1,1.06-.13c0,.15-.17.17-.26.22a11.42,11.42,0,0,1-4.42,1.56,6.51,6.51,0,0,1-5.39-1.59A.35.35,0,0,1,54.28,55.47Z"/><path class="cls-11" d="M65.87,55.09a11.27,11.27,0,0,0,1.31,0,8,8,0,0,0,3.1-1.18,17.71,17.71,0,0,0,2.15-1.61l.67-.53a.29.29,0,0,1,0,.3,5.65,5.65,0,0,1-3.42,3.45,4.44,4.44,0,0,1-2.72.21A2.09,2.09,0,0,1,65.87,55.09Z"/><path class="cls-9" d="M70.16,47.35a1,1,0,0,0,.53-.81,3.19,3.19,0,0,0,0-1.44c-.19-1.06-.35-2.12-.44-3.19a3.58,3.58,0,0,1,0-.86,1.37,1.37,0,0,1,.52.56A8.69,8.69,0,0,1,72,45.21a2.83,2.83,0,0,1-.29,1.71,1.7,1.7,0,0,1-1.71,1C69.93,47.7,70.13,47.55,70.16,47.35Z"/><path class="cls-2" d="M28.45,74.67a8,8,0,0,0,4.41-2.79c.53-.67,1.09-1.31,1.61-2,.05-.07.11-.16.21-.11s.06.12.07.19a2,2,0,0,1-.12.69,7.18,7.18,0,0,1-1.42,2.6A4.87,4.87,0,0,1,30.08,75a2.65,2.65,0,0,1-1.22,0A.61.61,0,0,1,28.45,74.67Z"/><path class="cls-2" d="M55.93,38.41a3.51,3.51,0,0,1-.17-1.28,2.92,2.92,0,0,1,.45-1.55,6,6,0,0,1,2.53-2.44,1.55,1.55,0,0,1,.85-.2.56.56,0,0,1,.38.15c0,.15-.15.17-.23.21a3.65,3.65,0,0,0-1.15,1.13,11.68,11.68,0,0,0-1.35,1.85,3.26,3.26,0,0,0-.5,1.66A2.66,2.66,0,0,0,57,39a1.29,1.29,0,0,1,.14.42,1.23,1.23,0,0,1-.62-.32Z"/><path class="cls-9" d="M42.81,29.08a3.14,3.14,0,0,1,.34-2,8.53,8.53,0,0,1,3.78-3.87,1.65,1.65,0,0,1,.68-.22c0,.21-.1.34-.19.48a24.79,24.79,0,0,1-1.7,2.13c-.86,1-1.78,2-2.57,3Z"/><path class="cls-2" d="M67.21,28.49l-.27,0c-.82-.22-1.59-.6-2.4-.84a16.48,16.48,0,0,0-2.25-.57,3.81,3.81,0,0,0-1.94.29c-.1,0-.21.18-.31.05s.05-.21.11-.3A2.57,2.57,0,0,1,61.82,26a5,5,0,0,1,2.7.32,7.9,7.9,0,0,1,1.94,1.1c.26.35.65.6.82,1Z"/><path class="cls-12" d="M21.65,38.26a2,2,0,0,1,.17,1.15A4.11,4.11,0,0,1,21,41.48a5.2,5.2,0,0,1-3.06,2,1.44,1.44,0,0,1-1.4-.37c0-.07,0-.09.06-.09a2.66,2.66,0,0,0,1.69-.65,8.61,8.61,0,0,0,2.61-2.76c.17-.33.32-.66.48-1C21.46,38.5,21.48,38.34,21.65,38.26Z"/><path class="cls-8" d="M39.09,64.68a.72.72,0,0,1,.72-.18,6.59,6.59,0,0,1,4.56,3.3c.5,1,1,1.88,1.47,2.86a.58.58,0,0,1,.1.35,1.66,1.66,0,0,1-.5-.35,12.05,12.05,0,0,1-1.85-2.24,14.33,14.33,0,0,0-.9-1.3,8.8,8.8,0,0,0-2.42-2A2.4,2.4,0,0,0,39.09,64.68Z"/><path class="cls-2" d="M31.59,61a1.1,1.1,0,0,1,.87-.12,4.68,4.68,0,0,1,3.25,2.42,7.73,7.73,0,0,1,.87,2.61,6,6,0,0,1,0,1.34c-.22-.06-.26-.24-.34-.39-.41-.81-.8-1.63-1.23-2.44a7.88,7.88,0,0,0-1.47-2.07,6.85,6.85,0,0,0-1.67-1.21Z"/><path class="cls-2" d="M50.72,49.73a12.39,12.39,0,0,0-1.2-.73,5.15,5.15,0,0,1-1.66-1.72l-.46-.69a6.49,6.49,0,0,0-.16-.86,2.37,2.37,0,0,1,.06-1.21c.16-.44.34-.5.74-.26h0c-.18.15-.14.33-.09.52a6.54,6.54,0,0,0,1,2,14.15,14.15,0,0,0,2.4,2.49,1.66,1.66,0,0,1,.35.35,1.06,1.06,0,0,1-.72,0C50.91,49.64,50.8,49.6,50.72,49.73Z"/><path class="cls-9" d="M64.6,42.74a1.63,1.63,0,0,1-.39,1.12,3.17,3.17,0,0,1-4.42.41,2.09,2.09,0,0,1-.71-1.33.83.83,0,0,1,.65-1,1,1,0,0,0,.14,1,1.86,1.86,0,0,0,1,.74A3.45,3.45,0,0,0,64,43.11a5.72,5.72,0,0,0,.49-.37Z"/><path class="cls-9" d="M62.61,22s-.08,0-.11,0a8.82,8.82,0,0,0-3.92.25,17.9,17.9,0,0,1-2.16.42,1.15,1.15,0,0,1-.6,0,1,1,0,0,1,.37-.4A6.41,6.41,0,0,1,60,20.74a2.94,2.94,0,0,1,2.49,1C62.55,21.78,62.63,21.83,62.61,22Z"/><path class="cls-11" d="M18.58,57.35a.93.93,0,0,1,.67-.46,3.77,3.77,0,0,1,3.65.65,5.91,5.91,0,0,1,1.63,2.05,1.61,1.61,0,0,1,.2.82c-.21,0-.32-.16-.45-.26-.53-.44-1.07-.87-1.59-1.32A6.48,6.48,0,0,0,18.58,57.35Z"/><path class="cls-13" d="M56.72,61.84c.18-.19.35-.39.54-.58a1.56,1.56,0,0,1,1-.46.33.33,0,0,1,.27.08,3.17,3.17,0,0,0-.93,1.62,1.8,1.8,0,0,0,.47,1.83,13.89,13.89,0,0,0,1.38,1.16,1.55,1.55,0,0,1,.37.35c0,.15-.13.12-.21.12a3.49,3.49,0,0,1-2.87-1.47,2.07,2.07,0,0,1-.25-2c.05-.14.16-.26.09-.42h0c.07,0,.1,0,.14-.1Z"/><path class="cls-11" d="M20.71,68.36a1,1,0,0,1-.43-.78,5,5,0,0,0,4.17.07c.56-.25,1.1-.55,1.64-.84a1.34,1.34,0,0,1,.48-.23c.11.14,0,.26,0,.37a4,4,0,0,1-5.13,1.87l-.07-.06c0-.11.09-.27-.14-.25A.63.63,0,0,1,20.71,68.36Z"/><path class="cls-8" d="M56.79,49.18c.14.15.27.29.42.43a.39.39,0,0,1,.13.39,1.31,1.31,0,0,0-.33-.12,5.55,5.55,0,0,1-3.67-2.13A4.78,4.78,0,0,1,52.9,47a1.13,1.13,0,0,0-.32-.4c.05,0,.15,0,.14-.08-.11-.41,0-.84-.13-1.25.1,0,.15,0,.21-.12a.67.67,0,0,1,.39-.32,2.77,2.77,0,0,0,.15.92,3.52,3.52,0,0,0,.63.94A21,21,0,0,0,56.42,49a2.4,2.4,0,0,0,.23.11h0C56.67,49.16,56.72,49.18,56.79,49.18Z"/><path class="cls-10" d="M80.81,55.8a19.21,19.21,0,0,0,2.32,4.75c.87,1.43,1.75,2.86,2.66,4.27a2,2,0,0,1,.2.42,5.49,5.49,0,0,1-1.06-1,21.4,21.4,0,0,1-3.54-5.6,7.5,7.5,0,0,1-.64-2.38A.63.63,0,0,1,80.81,55.8Z"/><path class="cls-11" d="M41.3,45.47a.36.36,0,0,1,.32.29,5.25,5.25,0,0,0,.71,3.55,9.3,9.3,0,0,0,1.83,2.08c.19.18.38.36.63.57a.93.93,0,0,1-.48-.09,5.5,5.5,0,0,1-2.22-1.39,4.39,4.39,0,0,1-1.16-4.18A1.84,1.84,0,0,1,41.3,45.47Z"/><path class="cls-11" d="M75.29,8.35c-.07.07-.09.11-.13.13a26.91,26.91,0,0,0-3.74,3.07c-.41.38-.83.74-1.25,1.11a.52.52,0,0,1-.3.18c-.07-.11,0-.2,0-.29a6.7,6.7,0,0,1,3.78-4A2.52,2.52,0,0,1,75.29,8.35Z"/><path class="cls-11" d="M60.6,29.47a6.82,6.82,0,0,0-2.78,1.46,11,11,0,0,0-1.69,2.59c-.5-1,.09-2.81,1.16-3.67A2.93,2.93,0,0,1,60.6,29.47Z"/><path class="cls-14" d="M51.11,66.62a5.16,5.16,0,0,1-.8-4.16,2.88,2.88,0,0,1,.83-1.61l.14-.12h0a7.54,7.54,0,0,0,1.54,7,2.74,2.74,0,0,1-1-.43c-.11-.07-.17-.21-.33-.17h0c0-.09,0-.16-.13-.09A1.16,1.16,0,0,0,51.11,66.62Z"/><path class="cls-9" d="M50.42,32.54a12.76,12.76,0,0,0-.84,1.91,10.31,10.31,0,0,0-.33,2,18,18,0,0,1-.15,2.06,4,4,0,0,1-.86-3.64A3.12,3.12,0,0,1,50.42,32.54Z"/><path class="cls-8" d="M3.37,57.1A12.51,12.51,0,0,0,.62,65.85a6.53,6.53,0,0,1-.52-4C.5,60,2.07,57.56,3.37,57.1Z"/><path class="cls-11" d="M73.53,80.32a3.07,3.07,0,0,1-1.24-.61c-1.21-.88-2.51-1.62-3.78-2.41L68,77c0-.08.12-.08.19-.09h0a.18.18,0,0,0,.17.09c1.18.57,2.34,1.16,3.56,1.63,1,.37,2,.73,2.93,1.11a10.7,10.7,0,0,1,1.56.73A10.75,10.75,0,0,1,73.53,80.32Z"/><path class="cls-10" d="M20.71,68.36a.63.63,0,0,0,.48.15c.23,0,.14.14.14.25a1.67,1.67,0,0,0-.39,0,3.71,3.71,0,0,1-4-2.12,5.28,5.28,0,0,1-.27-4,3.08,3.08,0,0,1,.5-1.07c-.07.46-.17.91-.21,1.37a5.64,5.64,0,0,0,.8,3.67,3.71,3.71,0,0,0,2.51,1.78C20.4,68.42,20.57,68.51,20.71,68.36Z"/><path class="cls-12" d="M10.64,39.77a2.82,2.82,0,0,1-.35-1.5c0-.21.07-.43.1-.64.28-.28.55-.6,1-.34,0,.11.13.2.09.33a.25.25,0,0,0-.23.27,1.51,1.51,0,0,0,.06.56,2.9,2.9,0,0,0,1.14,1.46,6.14,6.14,0,0,0,1.95.65,1.66,1.66,0,0,1-1.14.53H13a2.74,2.74,0,0,1-2.26-1.19.74.74,0,0,0-.13-.12Z"/><path class="cls-2" d="M26.3,38.52a8.14,8.14,0,0,0,1.09,3.31,13.25,13.25,0,0,0,2.22,2.88c.18.18.44.29.63.6a4.55,4.55,0,0,1-3-1.93A5.5,5.5,0,0,1,26.3,38.52Z"/><path class="cls-8" d="M29.46,76.59a4.45,4.45,0,0,1-6,1.46c0-.16.14-.16.25-.18.4-.06.81-.12,1.22-.16A15.32,15.32,0,0,0,28.23,77,6.32,6.32,0,0,1,29.46,76.59Z"/><path class="cls-11" d="M52.7,33.5l-1.19.94c-.27-2,1.35-4.31,3.1-4.37a1.29,1.29,0,0,1-.39.62,9.2,9.2,0,0,0-1.4,2.43C52.77,33.25,52.74,33.37,52.7,33.5Z"/><path class="cls-8" d="M12.94,38a3.5,3.5,0,0,1-.53-.31,1.46,1.46,0,0,1,0-2.47.82.82,0,0,1,.84-.22,2.39,2.39,0,0,0-.6,1,.61.61,0,0,0,.28.79.92.92,0,0,0,.67.27,1,1,0,0,0,1.36,0,.74.74,0,0,0,.39-.39c0-.06.05-.1.12-.1s.09.07.12.12a.74.74,0,0,1-.08.63,1.8,1.8,0,0,1-1.06.87A2.88,2.88,0,0,1,12.94,38Z"/><path class="cls-13" d="M11.4,37.29c-.46-.26-.73.06-1,.34a3,3,0,0,1,.43-2.9,4.53,4.53,0,0,1,1.67-1.4.93.93,0,0,1,.64-.13c-.23.33-.44.62-.64.92s-.45.61-.66.93a2.87,2.87,0,0,0-.44,1.89C11.4,37.06,11.4,37.17,11.4,37.29Z"/><path class="cls-2" d="M70.16,47.35c0,.2-.23.35-.17.57a3.18,3.18,0,0,1-1.24,1.56,2.17,2.17,0,0,1-2,.21c-.08,0-.18,0-.21-.18.19-.16.46-.15.68-.24a3.3,3.3,0,0,0,1.63-1.41A20.78,20.78,0,0,0,69.74,46a.73.73,0,0,1,.26-.38,1.56,1.56,0,0,1,.16.66Z"/><path class="cls-12" d="M62.67,66.23a2.78,2.78,0,0,1-2.49.61.52.52,0,0,1-.44-.36,4.84,4.84,0,0,0,2.5-1.38,1.35,1.35,0,0,0,.36-1.32.89.89,0,0,1,0-.66,4.68,4.68,0,0,1,.61.54,2.77,2.77,0,0,1,.28,1v0a1,1,0,0,1-.2.43l-.61.89C62.67,66.05,62.54,66.12,62.67,66.23Z"/><path class="cls-6" d="M52.59,45.3c.14.41,0,.84.13,1.25,0,.06-.09.06-.14.08a4.76,4.76,0,0,1-1.76-4.14,1.65,1.65,0,0,1,.2-.72,3.35,3.35,0,0,1,.59.6,7.35,7.35,0,0,0,.49,1.72C52.25,44.5,52.42,44.9,52.59,45.3Z"/><path class="cls-12" d="M56.72,61.84l0,.13c-.09,0-.13,0-.14.1h0a1.35,1.35,0,0,0-.52.82,3.19,3.19,0,0,0,.21,2.35c.09.2.2.39.3.59s0,.19-.12.19L56,65.87A2.45,2.45,0,0,1,54.9,63.1a2,2,0,0,1,1.32-1.42C56.4,61.63,56.63,61.54,56.72,61.84Z"/><path class="cls-9" d="M48,44.26h0a10.29,10.29,0,0,1-.35-1.35,4.54,4.54,0,0,1,0-1,2.12,2.12,0,0,1,.5.63c.38.56.75,1.12,1.12,1.69a4.7,4.7,0,0,0,1.5,1.41.8.8,0,0,1,.34.26,1.14,1.14,0,0,1-.74.14A2.49,2.49,0,0,1,49,45.43a3.24,3.24,0,0,1-.72-.89C48.19,44.44,48.16,44.32,48,44.26Z"/><path class="cls-11" d="M19.5,60.31c0,.13-.08.21-.12.32a.93.93,0,0,0,.45,1.26,1.69,1.69,0,0,0,1.89-.22.2.2,0,0,1,.2-.11.67.67,0,0,1-.1.73A1.84,1.84,0,0,1,20,63a1.64,1.64,0,0,1-1.41-1.17,1.16,1.16,0,0,1,.79-1.56A.18.18,0,0,1,19.5,60.31Z"/><path class="cls-15" d="M6.68,32.16A10.49,10.49,0,0,0,4.3,35.68a11.73,11.73,0,0,0-1,4.19C2.59,38,3.66,33.66,6.68,32.16Z"/><path class="cls-13" d="M8.77,40a3.16,3.16,0,0,1-.07-5.11,6.44,6.44,0,0,0-.36,2.9,4.27,4.27,0,0,0,1.43,2.47,1.72,1.72,0,0,1-1-.26Z"/><path class="cls-13" d="M17.21,34a1.37,1.37,0,0,1,.72.36,5.47,5.47,0,0,1,1.66,2.44,1.51,1.51,0,0,1,0,1.16.92.92,0,0,1-.57.54c-.07-.06-.05-.12-.05-.17A2,2,0,0,0,18.63,37a21.76,21.76,0,0,1-1.31-2.54A.7.7,0,0,1,17.21,34Z"/><path class="cls-12" d="M61.22,63.79a.61.61,0,0,1-.29.46,1.85,1.85,0,0,1-2.56-.31A1.27,1.27,0,0,1,59,62a.55.55,0,0,1,.54.05c.11.09.16.18,0,.27a.71.71,0,0,0-.14.1.63.63,0,0,0,.14,1.13,2.15,2.15,0,0,0,1.24.24C61,63.79,61.07,63.72,61.22,63.79Z"/><path class="cls-14" d="M7.4,44.87a3.57,3.57,0,0,0,1.93,1.4,19.11,19.11,0,0,0,3.66.79l.26,0a1.72,1.72,0,0,1-.89.3,5.67,5.67,0,0,1-3.5-.59,2.85,2.85,0,0,1-1.41-1.51A.53.53,0,0,1,7.4,44.87Z"/><path class="cls-14" d="M64.66,68.41a32.72,32.72,0,0,0,1.55-4.9C67.22,64.9,66.23,67.93,64.66,68.41Z"/><path class="cls-12" d="M16.18,33.76l-.34-.16a3.73,3.73,0,0,0-2-.58c-.5,0-1-.06-1.5-.1a4.5,4.5,0,0,1-.51-.08c0-.17.1-.22.19-.28a3.11,3.11,0,0,1,3.1-.27A1.79,1.79,0,0,1,16.18,33.76Z"/><path class="cls-2" d="M90.61,1.77a13.92,13.92,0,0,1-5.35,1,6.83,6.83,0,0,1,5.32-1.14Z"/><path class="cls-9" d="M60.73,39.46a1.48,1.48,0,0,1-1.45-.89,1.72,1.72,0,0,1,.46-2c.42-.37,1.14-.63,1.59-.23C59.89,37.39,59.81,37.82,60.73,39.46Z"/><path class="cls-2" d="M91.5,70.25a4.43,4.43,0,0,1-4.18-2.81A20.13,20.13,0,0,1,91.5,70.25Z"/><path class="cls-13" d="M10.64,39.77h0c-.07.32.14.52.33.72a5.21,5.21,0,0,0,2.11,1.19.39.39,0,0,0,.26,0c.14.15.39.15.51.34a1.67,1.67,0,0,1-1.36.33,2.81,2.81,0,0,1-1.87-1A1.34,1.34,0,0,1,10.3,40C10.35,39.84,10.44,39.72,10.64,39.77Z"/><path class="cls-8" d="M60.88,59.21a3.56,3.56,0,0,0-1.56-1,.89.89,0,0,1,.81-.23,3,3,0,0,1,2.66,2.38,1.3,1.3,0,0,1,0,.62,1.22,1.22,0,0,1-.44-.4c-.11-.11-.17-.32-.4-.28h0c0-.15-.06-.19-.18-.22A1.58,1.58,0,0,0,60.88,59.21Z"/><path class="cls-14" d="M15.41,30.15a4.29,4.29,0,0,1,4.2,2.08,1.88,1.88,0,0,1,.24,1.13s-.07,0-.08,0a2.72,2.72,0,0,0-1.13-1.47,11.14,11.14,0,0,0-2.85-1.56A1.09,1.09,0,0,1,15.41,30.15Z"/><path class="cls-8" d="M13.85,42c-.12-.19-.37-.19-.51-.34a1.09,1.09,0,0,1-.31-.6h.24a3.13,3.13,0,0,0,1.42.2A14.43,14.43,0,0,0,17,41a.21.21,0,0,1,.21,0c0,.19-.11.29-.22.4a3,3,0,0,1-2.57.72A4.87,4.87,0,0,1,13.85,42Z"/><path class="cls-2" d="M80.94,21c0,.17.2.19.32.26l.46.25a1.53,1.53,0,0,1-1.38,0,1.73,1.73,0,0,1-1-2.2,2.4,2.4,0,0,1,.77-1.16.31.31,0,0,1,.29-.11c-.1.42-.22.84-.3,1.26a1.66,1.66,0,0,0,.43,1.46.52.52,0,0,0,.42.2Z"/><path class="cls-2" d="M58.26,53.31a2.78,2.78,0,0,1-3.95-2c.67.35,1.2.87,1.86,1.18S57.55,53,58.26,53.31Z"/><path class="cls-2" d="M81.19,18.81a1.28,1.28,0,0,1,1.25-1,.48.48,0,0,1,.29.09.29.29,0,0,1,.13.22c0,.12-.1.11-.18.14a.73.73,0,0,0-.52.64,2.19,2.19,0,0,0-.42.38A.73.73,0,0,0,82,20.47a1,1,0,0,0,.72.13l0,0c.14.21.44.14.61.33-.14.27-.4.29-.64.32a1.78,1.78,0,0,1-.82-.09,2.36,2.36,0,0,0-.38-.1c0-.16-.08-.27-.15-.4a2,2,0,0,1-.16-1.65C81.25,19,81.29,18.88,81.19,18.81Z"/><path class="cls-15" d="M7.24,41.78A2.89,2.89,0,0,1,5.62,37.4,5.87,5.87,0,0,0,7.24,41.78Z"/><path class="cls-11" d="M77.36,86.34c.2-.15.32-.23.43-.33a.65.65,0,0,1,.57-.13c.89.15,1.77.28,2.66.41.46.07.92.13,1.38.22A9.51,9.51,0,0,1,77.36,86.34Z"/><path class="cls-14" d="M86.3,23.79c.56-1,1.32-2,1.8-3.07a1.72,1.72,0,0,1-.07,2A2.06,2.06,0,0,1,86.3,23.79Z"/><path class="cls-13" d="M15.62,39.38c-.06-.21-.32-.15-.41-.32s.12-.09.19-.12a2.23,2.23,0,0,0,1.31-1.61c.06-.19-.07-.36-.15-.54a3.65,3.65,0,0,1-.34-.81,1.44,1.44,0,0,1,1.06,2.19c-.11-.07-.21-.15-.29.06a1.6,1.6,0,0,1-.74.78Z"/><path class="cls-8" d="M54.18,65.35a1.42,1.42,0,0,1-.8-.8A3.49,3.49,0,0,1,53.69,61s0,0,.13-.1A14.32,14.32,0,0,0,54.18,65.35Z"/><path class="cls-11" d="M16.54,50.88a6.24,6.24,0,0,0-3.6,1.47C12.84,50.8,14.74,50.05,16.54,50.88Z"/><path class="cls-9" d="M51.87,29.36a2.33,2.33,0,0,1,3.36-1.7,2.37,2.37,0,0,1-.76.35,7.51,7.51,0,0,0-1.81.8C52.4,29,52.14,29.17,51.87,29.36Z"/><path class="cls-15" d="M77.58,15.81c-.35.62-.59,1.28-.89,1.92s-.6,1.26-.85,2C75.28,18.63,76.24,16.51,77.58,15.81Z"/><path class="cls-8" d="M2.73,77.39c.22.12.3.33.44.47a6,6,0,0,0,1.1.89c.69.46,1.41.89,2.07,1.43A3.66,3.66,0,0,1,2.73,77.39Z"/><path class="cls-14" d="M59.08,70.9c1.21.16,2.38-.1,3.57,0C61.83,71.91,59.59,71.93,59.08,70.9Z"/><path class="cls-13" d="M63.24,63.66a4.68,4.68,0,0,0-.61-.54.89.89,0,0,0,0,.66,1.35,1.35,0,0,1-.36,1.32,1.58,1.58,0,0,1-.65,0,.66.66,0,0,1-.45-.37.83.83,0,0,0,.83-.23,2.28,2.28,0,0,0,.51-1.29,4.25,4.25,0,0,0,0-1c0-.16,0-.33,0-.49A1.79,1.79,0,0,1,63.24,63.66Z"/><path class="cls-15" d="M8.77,40h0a2.31,2.31,0,0,0,.65,2A10.69,10.69,0,0,0,12,43.85l.4.19a.46.46,0,0,1-.44,0,4.9,4.9,0,0,1-3-2.31,2.59,2.59,0,0,1-.27-1.46A.29.29,0,0,1,8.77,40Z"/><path class="cls-13" d="M54.69,61.84a2.6,2.6,0,0,1,2.49-3.08A6.74,6.74,0,0,0,54.69,61.84Z"/><path class="cls-14" d="M14.41,35.2c-.1-.1,0-.21-.05-.31a.65.65,0,0,0-.89-.53,6.38,6.38,0,0,0-.72.29,1.1,1.1,0,0,1,.64-1,.91.91,0,0,1,1,.08,1,1,0,0,1,.37,1C14.76,35,14.68,35.19,14.41,35.2Z"/><path class="cls-15" d="M22.37,33a2.58,2.58,0,0,1,.85,3.54A15.12,15.12,0,0,0,22.37,33Z"/><path class="cls-8" d="M60.63,62c-.33-.16-.67-.31-1-.48a.61.61,0,0,0-.46,0c0-.35.09-.54.41-.58a1.73,1.73,0,0,1,1.69.63,1,1,0,0,1,.19,1c-.23-.06-.31-.29-.5-.36A.37.37,0,0,0,60.63,62Z"/><path class="cls-15" d="M23,41.54a3.66,3.66,0,0,1-2.66,3.07A19.94,19.94,0,0,0,23,41.54Z"/><path class="cls-11" d="M66.15,75.68a4.35,4.35,0,0,0,1,1.51c.09.11.19.21.29.32s-.1.07-.16.07a13.83,13.83,0,0,1-2.93-3.08Z"/><path class="cls-13" d="M56,65.87l.41.14a1.17,1.17,0,0,0,.57.3,17.37,17.37,0,0,0,2.07.6.77.77,0,0,1,.33.12C58.46,67.73,56.5,67.06,56,65.87Z"/><path class="cls-12" d="M15.62,39.38l.63-.37a1.6,1.6,0,0,0,.74-.78c.08-.21.18-.13.29-.06a1.56,1.56,0,0,1-.74,1.4,2.8,2.8,0,0,1-2,.44.59.59,0,0,1-.35-.18A3.5,3.5,0,0,0,15.62,39.38Z"/><path class="cls-3" d="M82.18,22.81a6.27,6.27,0,0,1,1.22-.16l.28,0a.23.23,0,0,1-.13.27,2.3,2.3,0,0,1-2.31.6.26.26,0,0,0-.12,0h0c0-.1,0-.15-.1-.18s-.06-.07,0-.13,0-.19.17-.18A2.1,2.1,0,0,0,82.18,22.81Z"/><path class="cls-14" d="M83.54,15.06c1-.23,2.55.81,2.22,1.72A17,17,0,0,1,83.54,15.06Z"/><path class="cls-15" d="M84,27.07a2.71,2.71,0,0,0,1.07-.27A6.51,6.51,0,0,1,87,26.26c0,.14-.07.2-.15.26a3.37,3.37,0,0,1-1.63.82A1.29,1.29,0,0,1,84,27.07Z"/><path class="cls-13" d="M61.94,60.3c0,.2.14.35.16.54a1.25,1.25,0,0,1,0,.47c-.14.06-.2-.05-.26-.11a8.84,8.84,0,0,1-.68-.69,1.77,1.77,0,0,0-1.45-.6h-.46a1.85,1.85,0,0,1,1.23-.56l.35,0a2,2,0,0,0,.94,1.37c.09-.17-.09-.33,0-.5.06,0,.09.11.17.1Z"/><path class="cls-15" d="M81,23.24c0,.06,0,.09,0,.13s-.09,0-.08.05.1.12.18.13h0a8.58,8.58,0,0,0,1.58.92,1,1,0,0,1,.39.2c-.85.52-2.17-.22-2.49-1.39l0,0c.09.1.17.23.29,0h0Z"/><path class="cls-3" d="M81.19,18.81c.1.07.06.16,0,.24a2,2,0,0,0,.16,1.65c.07.13.19.24.15.4-.14,0-.29,0-.4-.08a.12.12,0,0,0-.19,0h0c.08-.16-.08-.19-.15-.27a1.39,1.39,0,0,1-.37-.77A1.06,1.06,0,0,1,81.19,18.81Z"/><path class="cls-2" d="M86,22.32c.17-.48.41-.89.55-1.34s.1-.94.21-1.44A1.72,1.72,0,0,1,86,22.32Z"/><path class="cls-8" d="M14.68,36.21c.3-.07.15-.24.08-.41a.39.39,0,0,1,.49.16.42.42,0,0,1,0,.49c-.11.21-.33.32-.48.49a1.7,1.7,0,0,1-.92-.08c-.34-.53-.26-.81.27-1a.55.55,0,0,1,.41.21c-.05.13-.16.06-.23.11a.12.12,0,0,0-.07.14.12.12,0,0,0,.14.07A.5.5,0,0,0,14.68,36.21Z"/><path class="cls-13" d="M12.46,39.91a2.9,2.9,0,0,1-1.14-1.46,1.51,1.51,0,0,1-.06-.56.25.25,0,0,1,.23-.27,4.32,4.32,0,0,0,1.31,2,.44.44,0,0,1,.08.11s0,0,0,.05S12.56,39.74,12.46,39.91Z"/><path class="cls-2" d="M84.55,19.9c0-.32-.15-.62-.15-.95a1.13,1.13,0,0,1,.77,1,1.36,1.36,0,0,1-1,1.4l.42-.95C84.73,20.24,84.62,20.07,84.55,19.9Z"/><path class="cls-15" d="M89.19,21.24a2.09,2.09,0,0,1-.21,2.5A6.64,6.64,0,0,1,89.19,21.24Z"/><path class="cls-13" d="M17.66,38.49c.49.29.6.56.48,1a2,2,0,0,1-1,1.07C17.22,39.81,17.76,39.26,17.66,38.49Z"/><path class="cls-15" d="M14,28a3.27,3.27,0,0,1,2.86.19A17,17,0,0,1,14,28Z"/><path class="cls-2" d="M84.1,16.1a2,2,0,0,1-2-.42c-.12-.09-.08-.17,0-.23a.84.84,0,0,1,.56,0A2.94,2.94,0,0,1,84.1,16.1Z"/><path class="cls-15" d="M82.73,20.6a1,1,0,0,1-.72-.13.73.73,0,0,1-.27-1.15,2.19,2.19,0,0,1,.42-.38s.1,0,.1,0a.73.73,0,0,1,0,.25.84.84,0,0,0,.38,1.12Z"/><path class="cls-15" d="M78.2,26.08a4.67,4.67,0,0,1-1.45-1.84s-.06-.1,0-.16,0-.17,0-.27c.48.76,1.15,1.36,1.57,2.15Z"/><path class="cls-7" d="M62.67,66.23c-.13-.11,0-.18,0-.25l.61-.89a1,1,0,0,0,.2-.43c.18-.06.21-.23.28-.38L64,64a1.77,1.77,0,0,1-.08,1.1h0l0,0a.3.3,0,0,0-.08.18h0a.32.32,0,0,0-.18.27h0l-.09.09h0l-.09.1h0l-.09.1h0l-.1.09h0a.22.22,0,0,0-.18.1h0a.12.12,0,0,0-.07,0Z"/><path class="cls-8" d="M57.07,68.35a7.12,7.12,0,0,1,2.35.21C59,69.05,57.81,69,57.07,68.35Z"/><path class="cls-15" d="M79.11,15.84a1.58,1.58,0,0,1,1.62-1.35A5.75,5.75,0,0,1,79.11,15.84Z"/><path class="cls-2" d="M81.73,17a1.08,1.08,0,0,1,1.67-.17c0,.07.11.15.06.24s-.12,0-.19,0c-.31,0-.6.08-.91.06A1.7,1.7,0,0,1,81.73,17Z"/><path class="cls-3" d="M82.73,20.6l-.13-.24c.32,0,.36-.31.44-.55.44-.23.47-.35.2-.85a.87.87,0,0,1,.41,1,.82.82,0,0,1-.89.71Z"/><path class="cls-15" d="M65.63,59.74a1.15,1.15,0,0,1,.52,1.71A6.07,6.07,0,0,1,65.63,59.74Z"/><path class="cls-15" d="M78.84,17.38a5,5,0,0,0-.76,2.52A2.27,2.27,0,0,1,78.84,17.38Z"/><path class="cls-2" d="M80.62,23.24l0,0c0-.33-.39-.42-.5-.74.71.08,1.39.25,2.08.27a2.1,2.1,0,0,1-1,.25c-.13,0-.19.05-.17.18l0,0h0Z"/><path class="cls-14" d="M61.78,60.2c-.06.17.12.33,0,.5a2,2,0,0,1-.94-1.37v-.12a1.58,1.58,0,0,1,.89.87Z"/><path class="cls-15" d="M50.07,58.4a2.28,2.28,0,0,1,1.54-1.14A3.21,3.21,0,0,1,50.07,58.4Z"/><path class="cls-8" d="M21.8,48.9a2.66,2.66,0,0,1,1.9.41A5.49,5.49,0,0,1,21.8,48.9Z"/><path class="cls-15" d="M83.24,19c.27.5.24.62-.2.85,0,0-.11,0-.11-.06,0-.44,0-.44-.39-.56A.54.54,0,0,1,83.24,19Z"/><path class="cls-13" d="M13.81,36.86a1.7,1.7,0,0,0,.92.08.2.2,0,0,1,.23.13,1,1,0,0,1-1.36,0Z"/><path class="cls-5" d="M82.83,83a10.37,10.37,0,0,1,2-.19A3.07,3.07,0,0,1,82.83,83Z"/><path class="cls-13" d="M60.63,62a.37.37,0,0,1,.34.23c-.17.45-.53.58-1,.59C60.19,62.51,60.59,62.39,60.63,62Z"/><path class="cls-15" d="M12.94,38a2.88,2.88,0,0,0,1.51.17A1,1,0,0,1,12.94,38Z"/><path class="cls-5" d="M68.22,76.89c-.07,0-.15,0-.19.09a8,8,0,0,1-1.67-1.16C67,76.15,67.62,76.5,68.22,76.89Z"/><path class="cls-9" d="M80.69,18.11c.26-.47.35-.52.79-.47C81.32,18,81.18,18.12,80.69,18.11Z"/><path class="cls-13" d="M14.68,36.21a.5.5,0,0,1-.35.16.12.12,0,0,1-.14-.07.12.12,0,0,1,.07-.14c.07,0,.18,0,.23-.11a.55.55,0,0,0-.41-.21c0-.09-.05-.17,0-.26A1,1,0,0,1,14.68,36.21Z"/><path class="cls-15" d="M53.81,67.09a2.34,2.34,0,0,1,.89.65A1.13,1.13,0,0,1,53.81,67.09Z"/><path class="cls-7" d="M79.41,21.55a.7.7,0,0,1-.38-.86A2,2,0,0,1,79.41,21.55Z"/><path class="cls-2" d="M78.79,18.78a3.15,3.15,0,0,1-.22,1C78.39,19.37,78.44,19.17,78.79,18.78Z"/><path class="cls-8" d="M51.11,66.62a1.16,1.16,0,0,1,.29.47s.06.1.13.09h0v.19h-.09c0-.1-.09,0-.13,0a1.09,1.09,0,0,1-.3-.72S51.07,66.62,51.11,66.62Z"/><path class="cls-15" d="M8.73,35.77A1.35,1.35,0,0,1,9.11,35C9.07,35.39,9.07,35.39,8.73,35.77Z"/><path class="cls-8" d="M22.49,81.21a.89.89,0,0,1-.76,0C22,81,22.25,81.13,22.49,81.21Z"/><path class="cls-8" d="M8,78l.1-.09h0c.05.1.11.1.17,0a1.05,1.05,0,0,1,.54.39A2.83,2.83,0,0,1,8,78Z"/><path class="cls-8" d="M39,46.81l-.12.11a1.73,1.73,0,0,1-.26-.73A1.53,1.53,0,0,1,39,46.81Z"/><path class="cls-8" d="M67.27,77.58c.06,0,.13,0,.16-.07a2.1,2.1,0,0,1,.44.4.08.08,0,0,1,0,.14A2.44,2.44,0,0,1,67.27,77.58Z"/><path class="cls-13" d="M63.81,64.28c-.07.15-.1.32-.28.38v0a.36.36,0,0,0,.13-.26C63.66,64.27,63.7,64.2,63.81,64.28Z"/><path class="cls-13" d="M78.2,26.08l.11-.12a.41.41,0,0,1,.18.33A.38.38,0,0,1,78.2,26.08Z"/><path class="cls-2" d="M10.38,32.68A.41.41,0,0,1,10,33h0a.39.39,0,0,1,.35-.36Z"/><path class="cls-7" d="M84.55,19.9c.07.17.18.34,0,.51C84.56,20.24,84.32,20.07,84.55,19.9Z"/><path class="cls-8" d="M8.72,60.13l-.11-.08c.1,0,.17-.16.32-.17C8.94,60,8.86,60.1,8.72,60.13Z"/><path class="cls-13" d="M63.63,65.6a.32.32,0,0,1,.18-.27C63.8,65.46,63.78,65.57,63.63,65.6Z"/><path class="cls-10" d="M8.25,77.87c-.06.09-.12.09-.17,0S8.2,77.83,8.25,77.87Z"/><path class="cls-5" d="M68.39,77a.18.18,0,0,1-.17-.09A.19.19,0,0,1,68.39,77Z"/><path class="cls-13" d="M63.8,65.34a.3.3,0,0,1,.08-.18C63.88,65.24,63.88,65.3,63.8,65.34Z"/><path class="cls-13" d="M63.1,66.05a.22.22,0,0,1,.18-.1A.32.32,0,0,1,63.1,66.05Z"/><path class="cls-13" d="M63.45,65.78l.09-.1C63.54,65.75,63.51,65.78,63.45,65.78Z"/><path class="cls-13" d="M63.54,65.69l.09-.09A.08.08,0,0,1,63.54,65.69Z"/><polygon class="cls-4" points="44.12 61.89 44.1 61.88 44.11 61.89 44.12 61.89"/><polygon class="cls-1" points="53.74 77.24 53.72 77.23 53.74 77.24 53.74 77.24"/><path class="cls-2" d="M10,33l0,0s0,0,0,0Z"/><path class="cls-13" d="M63.9,65.13Z"/><path class="cls-13" d="M63,66.1a.12.12,0,0,1,.07,0Z"/><path class="cls-2" d="M38.64,21.47v0s0,0,0,0Z"/><path class="cls-13" d="M63.27,66l.1-.09A.13.13,0,0,1,63.27,66Z"/><path class="cls-2" d="M10.37,32.67l0,0s0,0,0,0Z"/><path class="cls-13" d="M63.36,65.87l.09-.1A.1.1,0,0,1,63.36,65.87Z"/><path class="cls-1" d="M51.31,67.38s.08-.11.13,0S51.36,67.42,51.31,67.38Z"/><path class="cls-16" d="M56.79,49.18c-.07,0-.12,0-.14-.09S56.76,49.13,56.79,49.18Z"/><path class="cls-16" d="M28.05,70.81c.09.12,0,.13-.1.17S28,70.83,28.05,70.81Z"/><path class="cls-2" d="M67.28,28.41s0,.06,0,.07-.07,0-.1,0Z"/><path class="cls-16" d="M56.56,62.07c0-.09,0-.12.14-.1S56.63,62.08,56.56,62.07Z"/><path class="cls-16" d="M51.53,67.18c-.07,0-.1,0-.13-.09S51.53,67.09,51.53,67.18Z"/><path class="cls-16" d="M13,41.09a1.09,1.09,0,0,0,.31.6.39.39,0,0,1-.26,0A5.21,5.21,0,0,1,11,40.5c-.19-.2-.4-.4-.33-.72a.74.74,0,0,1,.13.12A2.74,2.74,0,0,0,13,41.09Z"/><path class="cls-16" d="M61.78,60.2v-.12c.12,0,.22.07.18.22S61.84,60.22,61.78,60.2Z"/><path class="cls-16" d="M81.11,23.55c-.08,0-.16,0-.18-.13s0,0,.08-.05S81.15,23.45,81.11,23.55Z"/><path class="cls-16" d="M80.62,23.24l.29,0C80.79,23.47,80.71,23.34,80.62,23.24Z"/></svg>