<?xml version="1.0" encoding="utf-8"?>
<!-- Generator: Adobe Illustrator 26.3.0, SVG Export Plug-In . SVG Version: 6.00 Build 0)  -->
<svg version="1.1" xmlns="http://www.w3.org/2000/svg" xmlns:xlink="http://www.w3.org/1999/xlink" x="0px" y="0px"
	 viewBox="0 0 163.7 124.4" style="enable-background:new 0 0 163.7 124.4;" xml:space="preserve">
<style type="text/css">
	.st0{display:none;}
	.st1{display:inline;fill:#CBD4F4;}
	.st2{display:inline;fill:#4E50B4;}
	.st3{display:inline;fill:#CCD4F4;}
	.st4{display:inline;fill:#CCD5F5;}
	.st5{display:inline;fill:#5153B5;}
	.st6{display:inline;fill:#CDD5F5;}
	.st7{display:inline;fill:#5456B6;}
	.st8{display:inline;fill:#5B5DB9;}
	.st9{display:inline;fill:#5355B6;}
	.st10{display:inline;fill:#595BB8;}
	.st11{display:inline;fill:#5D5FBA;}
	.st12{display:inline;fill:#6C6EC1;}
	.st13{display:inline;fill:#6365BD;}
	.st14{fill:#595BB8;}
	.st15{fill:#CBD4F4;}
	.st16{fill:#CCD4F4;}
	.st17{fill:#CCD5F5;}
	.st18{fill:#CDD5F5;}
</style>
<g id="Capa_3" class="st0">
	<path class="st1" d="M81.9,68.9c-3.6-0.7-6.4-3.7-7-7.3c-0.5-2.8,0.4-5.7,2.3-7.8c3-3.6,7.5-5.7,12.2-5.5c0.7,0,1.4,0.2,2,0.5
		c-3.1,0.6-6.1,1.9-8.7,3.8c-2.3,1.6-4,3.8-4.9,6.5c-0.8,2.6,0.1,4.8,1.7,6.8c0.6,0.9,1.3,1.6,2.1,2.2c0.3,0.1,0.5,0.5,0.4,0.8
		L81.9,68.9z"/>
	<path class="st1" d="M108.5,72.7c-2.5,4.8-6.4,8-11.9,8.4c-4,0.4-8-1.1-10.9-3.9c2.6,0.4,5.2,0.7,7.8,0.7c2.9,0,5.8-0.7,8.4-2
		c2-1,4-2,5.9-3.2c0.2-0.1,0.3-0.1,0.5-0.2L108.5,72.7z"/>
	<path class="st2" d="M37.7,110.7c0.3,0.1,0.5,0.2,0.7,0.3c1.9,1,4.1,1.1,6.1,0.5c2.5-0.7,4.9-1.8,7-3.2c1.5-1,3-2,4.5-2.8
		c0.4-0.2,0.8-0.4,1.3-0.6c0.2,0.4,0,0.6-0.2,0.8c-1.5,2.6-3.5,4.8-5.9,6.5c-2.5,1.8-5.7,2.5-8.7,2
		C40.5,113.8,38.7,112.5,37.7,110.7z"/>
	<path class="st3" d="M84.5,101.6c-1.4,1.4-3.1,2.5-5,3.2c-1.8,0.7-3.7,1.1-5.6,1.2c-1.7,0.2-3.4,0.3-5.2,0.6
		c-2.1,0.3-4.2,0.1-6.2,0.3L61,107c0.7-0.8,1.7-1.4,2.7-1.6c2.9-0.9,5.8-1.6,8.8-2.1c1.4-0.2,2.8-0.3,4.2-0.4
		c2.3-0.3,4.5-0.7,6.7-1.3C83.8,101.5,84.1,101.3,84.5,101.6z"/>
	<path class="st1" d="M98.4,66.6c2.3-1.8,3.6-4.7,3.5-7.6c-0.2-1.9-0.6-3.9-1-5.8c-0.1-0.6-0.2-1.2-0.3-1.9c0-0.2-0.1-0.5,0.2-0.6
		s0.4,0.1,0.5,0.2c2.6,2.4,5.1,7.4,3.3,11.3c-1,2.2-3,3.9-5.4,4.4C98.9,66.8,98.6,66.8,98.4,66.6z"/>
	<path class="st4" d="M114.2,82.3c2.5-6.1,4.7-12.4,6.6-18.7C121.6,69.7,119.4,78.4,114.2,82.3z"/>
	<path class="st3" d="M82.2,36.9c-1.7,1.2-3.3,2.5-4.7,3.9c-2.4,2.2-4.2,5-5.4,8c-0.1,0.2-0.1,0.6-0.4,0.6s-0.2-0.5-0.2-0.7
		c-0.6-6,4.1-10.1,8.7-11.4C80.7,37,81.4,36.8,82.2,36.9z"/>
	<path class="st4" d="M79.9,90.1c2.5,0.2,4.9-0.7,7.2-1.4c2.4-0.8,4.6-1.9,6.7-3.3C92.2,90.2,85.1,93.1,79.9,90.1z"/>
	<path class="st5" d="M108.7,40.5c-3-3.9-6.4-7.4-11.3-8.5c4.8-1.2,10.6,2.7,11.3,7.6C108.8,39.8,108.8,40.1,108.7,40.5
		C108.8,40.5,108.9,40.5,108.7,40.5z"/>
	<path class="st5" d="M107.7,54.9c-3-3.6-6.3-6.9-10-9.8C102,44.9,106.6,49.5,107.7,54.9z"/>
	<path class="st6" d="M56.2,101.6c-3.8,3.4-8.4,5-12.8,7.2c0.6-1.3,1.5-2.4,2.7-3.2c2.7-1.9,5.7-3.2,8.9-4c0.2-0.1,0.5-0.1,0.7-0.1
		C55.9,101.5,56,101.6,56.2,101.6z"/>
	<path class="st3" d="M98.1,60.7c0.3,2-1.8,4.1-3.8,4.1c-1.2,0.1-2.5-0.1-3.6-0.6c-0.2-0.1-0.6-0.3-0.5-0.6s0.4-0.1,0.7-0.2
		c1.9-0.5,3.9-0.8,5.1-2.6c0.5-0.6,0.7-1.3,0.6-2.1c-0.1-0.4,0.2-0.5,0.5-0.3C97.8,58.9,98.1,59.5,98.1,60.7z"/>
	<path class="st7" d="M81.9,68.9l0.2-0.1c3.9,2.6,7.8,1.5,11.8,0.3c0.8-0.2,1.5-0.5,2.1-1c-1.6,2.8-7.9,4.6-11.2,3.2
		C83.5,71,82.5,70.1,81.9,68.9z"/>
	<path class="st5" d="M95.9,56.5c-4-2.1-7.5-0.3-11,1.5c0.3-1.6,2.6-3.5,4.9-4.1C92.5,53.3,94.4,54.3,95.9,56.5z"/>
	<path class="st4" d="M98,39.4c3.4-0.6,7.5,1.5,8.8,4.3c0.2,0.6,0.4,1.1,0.5,1.7c0,0.2,0.1,0.3-0.1,0.4c-0.2,0.1-0.3,0-0.4-0.2
		c-1.9-2.3-4.5-3.7-7-5.3C99.2,40,98.6,39.7,98,39.4z"/>
	<path class="st8" d="M83.2,100.8c4.9-0.1,9.1-2.2,13-4.7C93,100.6,88.6,101.9,83.2,100.8z"/>
	<path class="st9" d="M116.2,54.6c-1.2-2.8-2.4-5.8-2.2-9.1C116.4,48.2,117.6,51.1,116.2,54.6z"/>
	<path class="st8" d="M79.3,46c-2.5,3.2-4.1,6.9-4.7,10.9c-1.2-3,0.9-8.6,4.3-11.1C79,45.8,79.2,45.8,79.3,46z"/>
	<path class="st10" d="M104.6,79.4c-0.4,5.3-4.6,8.7-7.5,9.1C100.4,86.2,103,83.1,104.6,79.4z"/>
	<path class="st6" d="M94.8,32.9c-3.3,0.2-6.4,1.2-9.8,1.4C87.7,31.6,92.4,31.1,94.8,32.9z"/>
	<path class="st10" d="M68,88.3l2-0.8c0.1,0.1,0.2,0.2,0.2,0.3l-0.3,0.1L69.7,88l-0.2,0.1l-0.2,0.1c0,0.1-0.1,0.1-0.2,0.1l-0.2,0.1
		c-0.6,0.5-1.3,0.9-2.1,1.2c-0.2,0-0.4,0.1-0.4,0.2l-5.9,3.7c-0.2,0-0.4,0.1-0.4,0.3l-0.4,0.3c-0.2,0-0.4,0.1-0.4,0.3
		c-0.3,0.3-0.6,0.5-0.9,0.7l-0.2,0.1L58,95.5c-0.5,0-0.1-0.3-0.2-0.5l0.4-0.4c0.4-0.1,0.8-0.4,0.9-0.9l1-0.8c0.2,0,0.3-0.1,0.4-0.3
		l1.1-0.9c0.2,0,0.4-0.1,0.4-0.3l0.7-0.5c0.2,0,0.4-0.1,0.4-0.3l0.5-0.3c0.2,0,0.4-0.1,0.4-0.2c0.8-0.5,1.7-1,2.6-1.3
		C67.3,88.8,67.7,88.6,68,88.3z"/>
	<path class="st8" d="M72,96.7l0.5-0.1c0.2,0,0.5,0.1,0.7-0.1l0.5-0.1c0.2,0.1,0.4,0,0.5-0.1l0.7-0.1c0.3,0,0.6,0.1,0.8-0.1l1.1-0.1
		c0.3,0,0.7,0.2,1-0.1l0.7-0.1c0.3,0,0.7,0.2,1-0.1h0.5c0.2,0,0.3,0,0.4,0.2c-1.2,0.5-2.5,0.9-3.9,1c-0.2-0.1-0.4,0-0.5,0.1l-2,0.3
		c-0.2-0.1-0.4,0-0.5,0.1l-1.2,0.2c-0.1-0.2-0.3-0.1-0.4,0l-1.4,0.1c-0.2-0.2-0.6-0.2-0.7,0.1L68.1,98c-0.2-0.4,0.4-0.2,0.4-0.5
		l0.3-0.1c0.2,0.1,0.4,0,0.5-0.1l0.3-0.1c0.2,0.1,0.3,0,0.4-0.1l0.5-0.1c0.2,0.1,0.4,0,0.5-0.1l0.5-0.1C71.7,97,71.9,96.9,72,96.7z"
		/>
	<path class="st11" d="M49.8,98.4c-1,1.2-1.9,2.5-3,3.5c-1,0.9-2.2,1.6-3.4,2.2c-0.2,0.1-0.4,0-0.7-0.1
		C45.3,102.3,47.3,100,49.8,98.4L49.8,98.4z"/>
	<path class="st12" d="M114.9,68.5c0.2,2.4-0.3,4.9-1.4,7.1C113.6,73.1,114,70.7,114.9,68.5z"/>
	<path class="st13" d="M84.4,64.2c1.5,0.5,2.9,1,4.3,1.7C86.7,66.3,85.1,65.7,84.4,64.2z"/>
	<path class="st8" d="M79.3,46c-0.1-0.2-0.3-0.2-0.4-0.2c0.7-0.8,1.7-1.4,2.8-1.5L79.3,46z"/>
	<path class="st10" d="M57.8,95c0.1,0.2-0.3,0.5,0.2,0.5c-0.3,0.5-0.9,0.9-1.5,1l0,0C56.7,95.7,57.3,95.4,57.8,95z"/>
	<path class="st8" d="M68.5,97.5c0,0.3-0.6,0-0.4,0.5c-0.4,0.3-0.9,0.1-1.4,0.1C67.3,97.7,67.9,97.5,68.5,97.5z"/>
	<path class="st8" d="M80.3,96c0-0.2-0.2-0.2-0.4-0.2c0.5-0.4,1.1-0.1,1.6-0.3C81.2,95.7,80.8,96,80.3,96z"/>
	<path class="st10" d="M70.2,87.8c0-0.2-0.1-0.2-0.2-0.3c0.3-0.3,0.7-0.5,1.2-0.2C71,87.6,70.6,87.8,70.2,87.8z"/>
	<path class="st10" d="M59.2,93.7c-0.2,0.4-0.5,0.8-0.9,0.9C58.4,94.2,58.8,93.9,59.2,93.7z"/>
	<path class="st10" d="M68,88.3c-0.3,0.3-0.8,0.5-1.2,0.6C67.1,88.5,67.5,88.3,68,88.3z"/>
	<path class="st8" d="M79.4,95.8c-0.3,0.3-0.7,0.2-1,0.1C78.7,95.7,79.1,95.6,79.4,95.8z"/>
	<path class="st8" d="M77.7,96c-0.3,0.3-0.7,0.2-1,0.1C77,95.9,77.3,95.9,77.7,96z"/>
	<path class="st8" d="M75.6,96.2c-0.2,0.2-0.6,0.2-0.8,0.1C75,96,75.3,96,75.6,96.2z"/>
	<path class="st10" d="M55.2,97.8l0.4-0.5C55.7,97.7,55.3,97.7,55.2,97.8z"/>
	<path class="st10" d="M56.5,96.5c-0.2,0.1,0,0.4-0.4,0.4C56.1,96.6,56.4,96.6,56.5,96.5L56.5,96.5z"/>
	<path class="st8" d="M69.9,97.8c0.2-0.2,0.5-0.2,0.7-0.1C70.4,97.9,70.1,98,69.9,97.8z"/>
	<path class="st8" d="M73.1,96.5c-0.2,0.2-0.4,0.2-0.7,0.1C72.6,96.4,72.9,96.4,73.1,96.5z"/>
	<path class="st8" d="M73.5,97.4c0.1-0.1,0.3-0.2,0.5-0.1C73.8,97.5,73.7,97.6,73.5,97.4z"/>
	<path class="st10" d="M62.1,91.4c0,0.2-0.2,0.3-0.4,0.3C61.7,91.6,61.9,91.4,62.1,91.4z"/>
	<path class="st10" d="M60.5,92.6c0,0.2-0.2,0.3-0.4,0.3C60.2,92.7,60.3,92.6,60.5,92.6C60.5,92.6,60.5,92.6,60.5,92.6z"/>
	<path class="st10" d="M60.1,93.9c0-0.2,0.2-0.3,0.4-0.3C60.5,93.8,60.3,94,60.1,93.9z"/>
	<path class="st10" d="M59.3,94.5c0-0.2,0.2-0.3,0.4-0.3C59.7,94.4,59.5,94.5,59.3,94.5z"/>
	<path class="st10" d="M64.2,90.2c-0.1,0.2-0.2,0.3-0.4,0.2C63.8,90.2,64,90.1,64.2,90.2C64.2,90.2,64.2,90.2,64.2,90.2z"/>
	<path class="st8" d="M74.1,96.3c-0.1,0.1-0.3,0.2-0.5,0.1C73.7,96.3,73.9,96.2,74.1,96.3z"/>
	<path class="st10" d="M63.2,90.7c0,0.2-0.2,0.3-0.4,0.3C62.8,90.8,63,90.7,63.2,90.7z"/>
	<path class="st10" d="M66.4,89.9c0.1-0.2,0.2-0.3,0.4-0.2C66.8,89.8,66.6,89.9,66.4,89.9z"/>
	<path class="st8" d="M72,96.7c-0.1,0.1-0.3,0.2-0.4,0.1C71.6,96.7,71.8,96.6,72,96.7z"/>
	<path class="st8" d="M71,96.9c-0.1,0.1-0.3,0.2-0.5,0.1C70.7,96.9,70.8,96.8,71,96.9z"/>
	<path class="st8" d="M70,97.1c-0.1,0.1-0.3,0.2-0.4,0.1C69.7,97.1,69.8,97,70,97.1z"/>
	<path class="st8" d="M76,97.1c0.1-0.1,0.3-0.2,0.5-0.1C76.3,97.1,76.2,97.2,76,97.1z"/>
	<path class="st8" d="M69.3,97.3c-0.1,0.1-0.3,0.2-0.5,0.1C69,97.3,69.1,97.2,69.3,97.3z"/>
	<path class="st8" d="M72,97.6c0.1-0.2,0.2-0.2,0.4,0C72.3,97.7,72.1,97.7,72,97.6C72,97.7,72,97.6,72,97.6z"/>
	<path class="st10" d="M58.2,95.3l0.2-0.1L58.2,95.3z"/>
	<path class="st10" d="M69.7,88l0.2-0.1L69.7,88z"/>
	<path class="st10" d="M68.9,88.4l0.2-0.1L68.9,88.4z"/>
	<path class="st10" d="M69.3,88.2l0.2-0.1L69.3,88.2z"/>
</g>
<g id="AZUL">
	<path class="st14" d="M57.4,95c0,0,16.5-4.2,18-5.3c-4.5-0.7-7.7,0.2-9.4,0.8C64.4,91.1,58.5,94.2,57.4,95z"/>
	<path class="st14" d="M66.7,98.2c0,0,13.8-1.3,15-2.5c0,0-7.2,0.4-8.7,0.7C71.6,96.8,68.5,97.3,66.7,98.2z"/>
	<path class="st14" d="M37.8,110.7c0,0,4.8,3.2,13.2-2.1c8.4-5.3,7.4-4.7,5.9-2.5s-5.4,7.1-8.9,7.6S41.8,114.9,37.8,110.7z"/>
	<path class="st14" d="M49.8,99.6c0,0-3.2,1.3-5.4,1.5c-2.2,0.2-3.7,1.9-3.7,1.9s4.8-0.8,6-1.6C48,100.7,49.4,100.1,49.8,99.6"/>
	<path class="st14" d="M86.6,97.2c0,0,3.9,0.6,13-4.7c0,0-1.2,3-4.7,4C91.5,97.4,90,98.2,86.6,97.2z"/>
	<path class="st14" d="M109.4,77.9c0,0-3.9,7.3-7.5,9c0,0,4.5-1.1,6.2-4.7C109.7,78.7,109.4,77.9,109.4,77.9z"/>
	<path class="st14" d="M113.8,62.2c0,0-0.9,5.2-0.9,6.8c0,1.6-0.1,3-0.1,3S114.7,66.5,113.8,62.2z"/>
	<path class="st14" d="M108.7,44.4c0,0,0.2,2.8,1.7,5.6c1.6,2.7,2.5,4.2,2.5,4.2s2.1-3.6-1.9-7.8L108.7,44.4z"/>
	<path class="st14" d="M106.2,53c0,0-1.9-5.5-5.9-7.4s-5.2-1.1-5.2-1.1S103.6,50.6,106.2,53z"/>
	<path class="st14" d="M100.1,37.9c0,0-5.5-4.5-13.9-3.6c0,0,5.7-2.9,9.1-1C98.6,35.3,99.4,36.5,100.1,37.9z"/>
	<path class="st14" d="M82.2,44.4c0,0-5.4-1.4-7.6,2.3s-3.1,5.6-3.3,7.2C71.4,53.9,77.6,43.7,82.2,44.4z"/>
	<path class="st14" d="M83.7,69.2c0,0,3.7,2.3,9.1,0.7c0,0,3.6-1,4.2-1.5c0.6-0.5-2.4,2.8-5.8,3.4S85.3,71.4,83.7,69.2z"/>
	<path class="st14" d="M87.3,64.7c0,0-2.2-1.4-3-3.7c0,0-0.8,1.4,0.3,2.7S86.6,64.9,87.3,64.7z"/>
	<path class="st14" d="M84.6,58c0,0,2.6-4.5,8-4.5c0,0,1,0.2,2.3,0.2c-0.5-0.4-4.3-2.6-7.1-0.9C84.2,55,84.4,57.1,84.6,58z"/>
</g>
<g id="SUAVE">
	<path class="st15" d="M81.4,67.5c-3.6-0.7-6.4-3.7-7-7.3c-0.5-2.8,0.4-5.7,2.3-7.8c3-3.6,7.5-5.7,12.2-5.5c0.7,0,1.4,0.2,2,0.5
		c-3.1,0.6-6.1,1.9-8.7,3.8c-2.3,1.6-4,3.8-4.9,6.5c-0.8,2.6,0.1,4.8,1.7,6.8c0.6,0.9,1.3,1.6,2.1,2.2c0.3,0.1,0.5,0.5,0.4,0.8
		L81.4,67.5z"/>
	<path class="st15" d="M108.2,70.2c-1.5,5.2-4.7,9.1-10,10.6c-3.9,1.2-8.1,0.5-11.4-1.7c2.6-0.1,5.2-0.4,7.8-0.8
		c2.9-0.6,5.6-1.8,7.8-3.6c1.8-1.3,3.5-2.8,5.2-4.3c0.1-0.1,0.3-0.2,0.4-0.3L108.2,70.2z"/>
	<path class="st16" d="M82.8,101.2c-1.4,1.4-3.1,2.5-5,3.2c-1.8,0.7-3.7,1.1-5.6,1.2c-1.7,0.2-3.4,0.3-5.2,0.6
		c-2.1,0.3-4.2,0.1-6.2,0.3l-1.5,0.1c0.7-0.8,1.7-1.4,2.7-1.6c2.9-0.9,5.8-1.6,8.8-2.1c1.4-0.2,2.8-0.3,4.2-0.4
		c2.3-0.3,4.5-0.7,6.7-1.3C82,101.2,82.4,101,82.8,101.2z"/>
	<path class="st15" d="M97.8,68.2c2.7-1.2,4.6-3.7,5.2-6.6c0.2-1.9,0.4-3.9,0.4-5.9c0-0.6,0.1-1.3,0.2-1.9c0-0.2,0-0.5,0.3-0.5
		c0.3,0,0.3,0.1,0.4,0.3c1.9,2.9,3.2,8.4,0.5,11.8c-1.5,1.9-3.8,3-6.3,3C98.3,68.5,98,68.4,97.8,68.2z"/>
	<path class="st17" d="M116.2,77.4c1-6.6,1.6-13.2,1.9-19.8C120.4,63.4,120.4,72.3,116.2,77.4z"/>
	<path class="st16" d="M81.1,36.6c-1.9,0.8-3.7,1.8-5.4,2.9c-2.7,1.8-5.1,4.1-6.8,6.8c-0.1,0.2-0.2,0.6-0.5,0.5
		c-0.3-0.1-0.1-0.5-0.1-0.8c0.6-6,5.9-9.2,10.7-9.5C79.7,36.4,80.4,36.4,81.1,36.6z"/>
	<path class="st17" d="M80.6,89.8c2.5,0.2,4.9-0.7,7.2-1.4c2.4-0.8,4.6-1.9,6.7-3.3C92.9,89.8,85.8,92.8,80.6,89.8z"/>
	<path class="st18" d="M56.9,101.3c-3.8,3.4-8.4,5-12.8,7.2c0.6-1.3,1.5-2.4,2.7-3.2c2.7-1.9,5.7-3.2,8.9-4c0.2-0.1,0.5-0.1,0.7-0.1
		C56.6,101.2,56.7,101.2,56.9,101.3z"/>
	<path class="st16" d="M98.8,60.4c0.3,2-1.8,4.1-3.8,4.1c-1.2,0.1-2.5-0.1-3.6-0.6c-0.2-0.1-0.6-0.3-0.5-0.6s0.4-0.1,0.7-0.2
		c1.9-0.5,3.9-0.8,5.1-2.6c0.5-0.6,0.7-1.3,0.6-2.1c-0.1-0.4,0.2-0.5,0.5-0.3C98.5,58.5,98.8,59.2,98.8,60.4z"/>
	<path class="st17" d="M91.6,40.8c2.9-1.7,7.5-1.3,9.8,0.8c0.4,0.4,0.8,0.9,1.1,1.4c0.1,0.1,0.2,0.3,0.1,0.4c-0.1,0.1-0.3,0.1-0.4,0
		c-2.6-1.4-5.6-1.8-8.4-2.5C93,40.9,92.3,40.8,91.6,40.8z"/>
</g>
</svg>
