<svg id="Capa_4" data-name="Capa 4" xmlns="http://www.w3.org/2000/svg" viewBox="0 0 163.74 124.43"><defs><style>.cls-1{fill:#b3704c;}.cls-2{fill:#3a2f27;}.cls-3{fill:#b4714c;}.cls-4{fill:#e2e6f2;}.cls-5{fill:#cea26f;}.cls-6{fill:#e3e7f2;}.cls-7{fill:#cfa270;}.cls-8{fill:#b2704c;}.cls-9{fill:#e1e5f0;}.cls-10{fill:#3b3128;}.cls-11{fill:#3d332a;}.cls-12{fill:#e0be96;}.cls-13{fill:#cfa474;}.cls-14{fill:#3f3730;}.cls-15{fill:#433b35;}.cls-16{fill:#fefefe;}</style></defs><path class="cls-1" d="M75.09,71.23c0-.16,0-.31,0-.47,0-.44.09-.9-.29-1.25a.69.69,0,0,1-.07-.15c0-.17-.14-.33,0-.49s.33-.06.49,0,.27.29.42.43c1.24,1.16,2.55,2.23,3.75,3.44.33.32.62.69,1,1a15.13,15.13,0,0,1,1.67,1.91A10.17,10.17,0,0,0,83.17,77c0,.13.13.17.17.27a.63.63,0,0,0,.73.44.58.58,0,0,0,.48-.5,6.4,6.4,0,0,1,.26-1.44c.12-.59.28-1.18.42-1.76a.67.67,0,0,0,.38-.44,11.36,11.36,0,0,1,.44-1.28c.42-1.08.93-2.12,1.31-3.22a1.47,1.47,0,0,0,.08-.51c.1,0,.12-.15.17-.24.15-.27.29-.55.43-.82a1.1,1.1,0,0,0,.91-.51,21.91,21.91,0,0,0,1.54-2.81,3.53,3.53,0,0,0,.39-1.89,7.75,7.75,0,0,0,.59-1.19,12.63,12.63,0,0,0,.78-2.49c0-.16.07-.37-.14-.46s-.36,0-.46.23l-.11.19c-.33.71-.67,1.42-1,2.14-.18.42-.44.81-.58,1.25l-.34.27a.3.3,0,0,1,0-.18c.48-1,.86-2,1.36-3a9.93,9.93,0,0,0,1.29-3.73c.22.1.31,0,.36-.2a3.47,3.47,0,0,0,0-.85c0-.12,0-.24.07-.34.07.25.28.32.51.34a.48.48,0,0,0,.51-.28,12.11,12.11,0,0,0,.77-1.78,6.48,6.48,0,0,0,.59-2.81c0-.32,0-.64-.07-1a.38.38,0,0,0,.11-.24,8.66,8.66,0,0,0,.12-2.78c0-.39-.16-.5-.53-.52l0-1a10.47,10.47,0,0,1,0-1.12.41.41,0,0,1,.11.07c.25.3.39.28.56-.06a.72.72,0,0,0,.08-.26c0-.42.11-.85.17-1.28a6.15,6.15,0,0,0,.22-.87c0-.23-.07-.33-.29-.32A14.33,14.33,0,0,1,96.8,38.6a.23.23,0,0,1,.11.11.26.26,0,0,0,.49,0C98,37.84,98.58,37,99.15,36a5.51,5.51,0,0,0,.59-1,1.07,1.07,0,0,0,.48-.36,35.16,35.16,0,0,0,2.36-3.2,4.52,4.52,0,0,0,.7-2.27.4.4,0,0,0,.12-.21c.48-1.17.76-2.41,1.17-3.61a1.68,1.68,0,0,1,.28-.71c0,1,0,2,0,3s0,2.18,0,3.27c-.11,0-.15.08-.21.15a23,23,0,0,1-2.24,2.28,20.72,20.72,0,0,0-2.11,2.08,15.36,15.36,0,0,0-2,3,7.77,7.77,0,0,0-.82,1.78c-.21.83-.26,1.69-.46,2.53-.38,1.63-.75,3.26-1,4.93a5.73,5.73,0,0,0,0,1.49l.1-.18v.15a1,1,0,0,1-.06.39,14.36,14.36,0,0,1-.39,2.14c-.16.4-.27.82-.4,1.23a8.85,8.85,0,0,0-.38,2c0,.74-.12,1.49-.19,2.23v.16c-.2.21,0,.25.14.27,0,0-.05.07,0,.1s.07,0,.1,0a3.34,3.34,0,0,0,.4-.25c1.1-.78,2-1.75,3.07-2.62A23.05,23.05,0,0,1,100.77,53a15.5,15.5,0,0,0,2.85-2.45c.4-.41.81-.8,1.22-1.21a4.44,4.44,0,0,1,0,1,.09.09,0,0,0-.08.1,19.43,19.43,0,0,1-1.53,1.74c-1,1-2.11,2-3.14,3.05-1.53,1.52-3,3.07-4.56,4.6l-.58.56a14.73,14.73,0,0,1-1.32.91,7.47,7.47,0,0,0-1.51,1.85,15.12,15.12,0,0,0-1.32,2.52c-.52,1.09-1.06,2.16-1.58,3.24-.26.54-.51,1.09-.73,1.64a16.51,16.51,0,0,0-1.25,5c-.12,0-.18.07-.26.14a1.88,1.88,0,0,0-.35.53,21.49,21.49,0,0,0-1.33,2.51c-.32.71-.65,1.41-1,2.09-.6,1.11-1.25,2.2-1.85,3.31a33.36,33.36,0,0,0-2.21,5.27c-.15.45-.33.9-.49,1.35a.48.48,0,0,1-.06-.26c0-.39-.25-.52-.62-.41a2.45,2.45,0,0,1,.08-.29,13.63,13.63,0,0,0,.77-3.08c.1-.69.12-1.38.2-2.06s.1-1.2.1-1.8,0-1.27-.1-1.91a13.61,13.61,0,0,0-.37-2.7,3.32,3.32,0,0,1-.16-.76c.12,0,.14.13.2.21s.17.28.27.41a.25.25,0,0,0,.32.09.23.23,0,0,0,.14-.27,3.85,3.85,0,0,0-.38-1.32c0-.11-.07-.23-.12-.34a28.5,28.5,0,0,0-1.47-2.49.36.36,0,0,0-.36-.17,12.91,12.91,0,0,0-1.86-2C76,71.23,75.61,70.93,75.09,71.23Z"/><path class="cls-2" d="M104.85,101.09c0,.38,0,.4-.33.42a19.33,19.33,0,0,0-3,.49c-.71.16-1.45.09-2.16.3s-1.24.36-1.85.56a20.74,20.74,0,0,1-2,.57,9.31,9.31,0,0,0-2,.87,27.51,27.51,0,0,1-3.38,1.49c-.46.16-.92.34-1.37.51a13.74,13.74,0,0,0-1.93.58c.07,0,.1.06.14.07a6.7,6.7,0,0,1,2.26,1.26,5.55,5.55,0,0,0,2.21,1.23c1.38.31,2.77.61,4.14,1a3.22,3.22,0,0,1,.82.16,4.58,4.58,0,0,1-1.65,0L91.6,110A4.66,4.66,0,0,1,89.32,109L88.18,108a2.2,2.2,0,0,0-.77-.45s-.09,0-.13,0l.07.07a1.14,1.14,0,0,1,.3.74c-.09,0-.11-.07-.15-.13a2,2,0,0,0-.5-.54c-.38-.44-.8-.81-1.45-.61h0c-.41,0-.41,0-.7.22h-.07c-.35-.22-.73,0-1.09-.06a1,1,0,0,0-.73.25l-.57.49a2.25,2.25,0,0,0-.8.85c-.06.11-.08.16.07.21a3.64,3.64,0,0,0,1.73.25.68.68,0,0,1,.81.49l-.06.05a.85.85,0,0,0-1-.25,2.07,2.07,0,0,1-1,0l-.56-.13-.21,0c-.3-.09-.39-.26-.28-.55a2.46,2.46,0,0,1,.86-1.1l.56-.41c0-.07,0-.08-.06-.08a30.46,30.46,0,0,0-3.69.23,13.92,13.92,0,0,0-1.83.43c-.38.11-.76.21-1.15.29a8.53,8.53,0,0,0-2,.66c-.8.37-1.6.71-2.41,1a2.39,2.39,0,0,0-1.13.93c-.65,1-1.29,2.05-1.85,3.13A13.3,13.3,0,0,1,67,116c0-.09,0-.16,0-.18h0c.07,0,.06,0,.07-.06.35-.7.69-1.39,1-2.11A22.28,22.28,0,0,1,70.75,109c.52-.71,1.16-1.32,1.73-2,1.19-1.34,2.27-2.77,3.37-4.18.35-.46.71-.91,1.07-1.37a.61.61,0,0,0,.22-.23c.31-.43.6-.87.93-1.28a11.22,11.22,0,0,0,1.7-3c.23-.6.47-1.2.75-1.78,0,0,0-.24.17-.12a.66.66,0,0,1,0,.2,18.52,18.52,0,0,1-1.5,4.1,19.43,19.43,0,0,1-1.41,2c-1.16,1.57-2.36,3.11-3.54,4.66a.62.62,0,0,0-.26.34,12.21,12.21,0,0,1,2.91-.7,8.44,8.44,0,0,0,1.64-.3,5.61,5.61,0,0,0,1.22-.24c.65-.18,1.34-.15,2-.27s1.5-.14,2.23-.34a12.61,12.61,0,0,0,1.74-.42A1.18,1.18,0,0,0,86,104a21.35,21.35,0,0,1,4.09-1.82,6.82,6.82,0,0,1,2.46-.48,11.18,11.18,0,0,0,2.31-.24v.09a7,7,0,0,1-2.23.41,3,3,0,0,0-1.39.29l-.09,0a.2.2,0,0,0-.18,0,4.26,4.26,0,0,0-.93.25c-1.7.63-3.27,1.53-4.93,2.26a5.54,5.54,0,0,1-.57.07c-.46,0-.88.23-1.34.27-.87.08-1.73.2-2.59.3h-.17a2,2,0,0,0-.68.12,15.51,15.51,0,0,1-2.05.42c-.55.1-1.13.12-1.69.2a12.69,12.69,0,0,0-1.74.32,1.29,1.29,0,0,0-.59.28.84.84,0,0,0-.34.28l-1,1.06a12,12,0,0,0-1.07,1.19.35.35,0,0,0-.11.28,15.12,15.12,0,0,1,1.58-.84l1.68-.85c.86-.24,1.75-.41,2.6-.74a8.46,8.46,0,0,1,2.27-.55.26.26,0,0,0,.24,0h0c.31,0,.62,0,.93,0,1,0,2.08,0,3.12-.08a10.14,10.14,0,0,0,2-.27,8.17,8.17,0,0,0,2.49-.55,1,1,0,0,0,.3,0,28.33,28.33,0,0,0,4.65-1.76,12.66,12.66,0,0,1,3.07-1.05,12,12,0,0,0,3.14-.85,2.35,2.35,0,0,1,.45-.14c.69-.21,1.42-.19,2.11-.42A10,10,0,0,1,104.85,101.09Z"/><path class="cls-3" d="M76.92,101.48c-.36.46-.72.91-1.07,1.37-1.1,1.41-2.18,2.84-3.37,4.18-.57.65-1.21,1.26-1.73,2A22.28,22.28,0,0,0,68,113.68c-.29.72-.63,1.41-1,2.11l-.07.06h0a.11.11,0,0,0-.08,0c-.48,0-.48,0-.53-.44-.1-.94-.1-1.88-.17-2.81a13.09,13.09,0,0,0-.18-1.78,11.41,11.41,0,0,0,1-1.32,1.93,1.93,0,0,1,.43-.66,5.58,5.58,0,0,0,.6-.49c1.69-1.61,3.19-3.4,4.81-5.08a29.68,29.68,0,0,0,2.6-3,13.22,13.22,0,0,0,1.41-2.34,2.43,2.43,0,0,1,.2-.35,11.09,11.09,0,0,0,1.28-2.25c.16-.36.35-.7.52-1.06a4.69,4.69,0,0,1,0,1.12c-.36,1.08-.57,2.21-1,3.26a21.53,21.53,0,0,0-.88,2.26A.75.75,0,0,0,76.92,101.48Z"/><path class="cls-4" d="M92.87,70.51a4.75,4.75,0,0,1,.53-.93c.35-.63.8-1.19,1.09-1.85a1.85,1.85,0,0,1,1.73-1A2,2,0,0,1,98,68.29a3.35,3.35,0,0,1-.13,1.22l-.58.25,0-.05a2.29,2.29,0,0,0-.43-2.11A1.19,1.19,0,0,0,95,67.49a2.38,2.38,0,0,0-.62,1,6.8,6.8,0,0,0-.25,2.2s0,0,.06.07c.17-.49.25-1,.38-1.44a2.93,2.93,0,0,1,.71-1.39.79.79,0,0,1,1.29.06A2.29,2.29,0,0,1,97,69.7a.43.43,0,0,1-.23.35,1.17,1.17,0,0,0-.47.38,4.79,4.79,0,0,0,.64-.21l.65-.23a.22.22,0,0,1,0,.08c0,.15,0,.37.15.39s.13-.2.18-.32.13-.16.11-.27a1.45,1.45,0,0,1,1.56.94,2,2,0,0,1-1,2.25.22.22,0,0,1-.29-.06,2.12,2.12,0,0,0-.67-.52.69.69,0,0,0-.64-.06,1.4,1.4,0,0,1,.75.42c.11.12.34.23.28.4s-.3.09-.46.12l.17.06c.15.07.39-.1.47.11a1.9,1.9,0,0,1,.07.54v.2a1.61,1.61,0,0,1-1.11,1.44l-1,.28a2.53,2.53,0,0,1-1.39-.08,1.22,1.22,0,0,1-1-1.12.23.23,0,0,0,0-.24l.08-.1a.13.13,0,0,0,.14-.09.14.14,0,0,0-.17,0,8.35,8.35,0,0,1-1.11.33,3.74,3.74,0,0,0-.81-.3,4.93,4.93,0,0,1-.68-.44,3.16,3.16,0,0,1,.53-1.76,17.11,17.11,0,0,1,1.11-1.57C92.9,70.61,93,70.57,92.87,70.51Z"/><path class="cls-5" d="M76.92,101.48a.75.75,0,0,1,0-.59,21.53,21.53,0,0,1,.88-2.26c.45-1,.66-2.18,1-3.26a4.69,4.69,0,0,0,0-1.12.55.55,0,0,1,.09-.28,10.23,10.23,0,0,0,.8-3.21c.16-.45.34-.9.49-1.35a33.36,33.36,0,0,1,2.21-5.27c.6-1.11,1.25-2.2,1.85-3.31.37-.68.7-1.38,1-2.09a21.49,21.49,0,0,1,1.33-2.51A1.88,1.88,0,0,1,87,75.7c.08-.07.14-.16.26-.14a10.79,10.79,0,0,0,.08,1.61c0,.06,0,.18,0,.18s.05-.11.06-.18v-.06c.35-.06.35-.06.28.31a1.62,1.62,0,0,0,0,.22c-.06.1-.18.27-.24.23-.3-.15-.26.13-.31.24a19.26,19.26,0,0,1-1.12,2.28,25.47,25.47,0,0,0-1.62,2.94c-.27.6-.48,1.24-.77,1.84a22.52,22.52,0,0,0-1.29,3.18c-.64,2.07-1.17,4.17-1.85,6.23,0,.1-.1.22,0,.33.23-.31.31-.68.54-1a2.61,2.61,0,0,1-.38,1.15c-.16-.12-.15.07-.17.12-.28.58-.52,1.18-.75,1.78a11.22,11.22,0,0,1-1.7,3c-.33.41-.62.85-.93,1.28A.61.61,0,0,1,76.92,101.48Z"/><path class="cls-6" d="M91.16,43.54a18.57,18.57,0,0,1-1.73.72c-.1.05-.18.1-.17.22a.27.27,0,0,0-.33.09c-.25-.26-.06-.45.1-.64s.17-.19.33-.14c-.14-.19-.26-.13-.37,0l-.06,0c-.24.23-.24.23-.4,0,0,0,0,0,0,0s-.13-.32-.26-.27,0,.26,0,.36a.62.62,0,0,1-.19.88,1.44,1.44,0,0,1-1.09.5,3,3,0,0,1-.78-.17c-.62-.22-.74-.48-.5-1.08l0,0h0a4.78,4.78,0,0,0,.44-.46.44.44,0,0,0-.29-.76,7.06,7.06,0,0,0-.77-.1,1.27,1.27,0,0,1-1.18-1A1.7,1.7,0,0,1,84.39,40a2.22,2.22,0,0,1,2.16-.69,1.11,1.11,0,0,0,.26,0c0-.13-.16-.11-.18-.2a1.58,1.58,0,0,1,1.15.35c.07,0,.12.13.21.12a2,2,0,0,1,1.17.37.59.59,0,0,0,.37.07,1.47,1.47,0,0,1,.46.47c.28.44.58.87.83,1.34A2.55,2.55,0,0,1,91.16,43.54Z"/><path class="cls-7" d="M76.85,97.91a13.22,13.22,0,0,1-1.41,2.34,29.68,29.68,0,0,1-2.6,3c-1.62,1.68-3.12,3.47-4.81,5.08a5.58,5.58,0,0,1-.6.49,1.93,1.93,0,0,0-.43.66,11.41,11.41,0,0,1-1,1.32,8.35,8.35,0,0,1-1.26,1.11.36.36,0,0,1-.5,0,.37.37,0,0,1,0-.5,21.46,21.46,0,0,1,1.44-2.21.52.52,0,0,0,.11-.19c.12-.1.31-.22.22-.37a1.41,1.41,0,0,1-.12-.83c.39-.33.75-.7,1.12-1.07.82-.83,1.63-1.68,2.4-2.56,1.14-1.29,2.4-2.45,3.56-3.72a25.31,25.31,0,0,0,2.42-3c.28-.41.53-.84.85-1.23a.46.46,0,0,1-.09.32A27.83,27.83,0,0,1,74.81,99c-.07.11-.16.23-.06.38s.32.21.53,0l1.33-1.32C76.68,98,76.73,97.92,76.85,97.91Z"/><path class="cls-8" d="M96.35,110.57a3.22,3.22,0,0,0-.82-.16c-1.37-.36-2.76-.66-4.14-1a5.55,5.55,0,0,1-2.21-1.23A6.7,6.7,0,0,0,86.92,107s-.07,0-.14-.07a13.74,13.74,0,0,1,1.93-.58c.13.16.34.18.51.29a2,2,0,0,0,1.4,1,3.51,3.51,0,0,1,1,.45,3.4,3.4,0,0,0,.81.4c.76.24,1.52.46,2.27.71a4.59,4.59,0,0,0,1.79.27,4.06,4.06,0,0,1,1,.09,3.16,3.16,0,0,0,1,.07l2.19-.26c.08,0,.18,0,.19-.11.59-.21,1.13-.52,1.7-.77a1.21,1.21,0,0,1,.42-.13c-.49.35-1.06.54-1.56.89.1.07.17,0,.23,0a15.5,15.5,0,0,0,3.21-1.39,18.31,18.31,0,0,1,0,2,2.48,2.48,0,0,0-1.51.47l1.5-.21c0,.84,0,1.68,0,2.52l-.38-.07a6,6,0,0,1-2.68-1,3.32,3.32,0,0,0-2.38-.71.86.86,0,0,1-.16,0,12.94,12.94,0,0,0-2.33-.2A1.39,1.39,0,0,1,96.35,110.57Zm-4.42-1.5a.24.24,0,0,0,.27-.18.24.24,0,0,0-.13-.28,15,15,0,0,1-1.8-.89.26.26,0,0,0-.31.41,2.51,2.51,0,0,0,.63.45A4,4,0,0,0,91.93,109.07Z"/><path class="cls-9" d="M87,107.73a2,2,0,0,1,.5.54c0,.06.06.14.15.13.26.22.34.47.2.68-.16-.16-.27-.37-.48-.48a.19.19,0,0,0-.26.06.16.16,0,0,0,0,.24,1.82,1.82,0,0,1,.5.67,2.07,2.07,0,0,1-.53.19l.79.36a.42.42,0,0,1,0,.38s0,.09,0,.12a.12.12,0,0,0,.15,0l.1-.12a.76.76,0,0,1-.07,1.17,2.36,2.36,0,0,0-1.06-.94.34.34,0,0,0,.09.14,6.15,6.15,0,0,1,.68.93.51.51,0,0,1-.24.74c-.24.07-.48.11-.73.17a2.1,2.1,0,0,1-.69-.3.47.47,0,0,0-.39-.1,2.31,2.31,0,0,1-.79.08.37.37,0,0,1,0-.54c.19-.26.39-.51.59-.77-.16-.06-.23,0-.31.12A5.3,5.3,0,0,0,84,112.61a1,1,0,0,1-1.09.52c-.13-.22-.41-.34-.46-.61s-.33-.5-.57-.69a4,4,0,0,1,1.22-1.8,1.34,1.34,0,0,0-.76.46,6.86,6.86,0,0,0-.61.81c-.25-.25-.21-.59-.25-.9a6.91,6.91,0,0,1,0-.91l.56.13a2.07,2.07,0,0,0,1,0,.85.85,0,0,1,1,.25l0,.06c0,.27.22.24.37.29.06-.21,0-.28-.24-.28,0,0,0,0,0,0l0-.08a.68.68,0,0,0-.81-.49,3.64,3.64,0,0,1-1.73-.25c-.15,0-.13-.1-.07-.21a2.25,2.25,0,0,1,.8-.85c.11.1.19,0,.27-.06a1.32,1.32,0,0,1,1.48.23,1.84,1.84,0,0,1,.47.57c.07.14.15.16.29.11s.25-.19.26-.37a1.55,1.55,0,0,1,0-.52.9.9,0,0,1,1.42-.35C86.7,107.72,86.82,107.86,87,107.73Z"/><path class="cls-10" d="M76.24,96.18c-.32.39-.57.82-.85,1.23a25.31,25.31,0,0,1-2.42,3c-1.16,1.27-2.42,2.43-3.56,3.72-.77.88-1.58,1.73-2.4,2.56-.37.37-.73.74-1.12,1.07-.15-.12.1-.19,0-.3h0c.06,0,.08,0,.07-.1h0s0,0,0,0h0s.06,0,0-.07c.54-.64,1.09-1.28,1.6-1.94,1.15-1.47,2.41-2.82,3.65-4.21.9-1,1.9-1.92,2.71-3l2.58-3.48a3.53,3.53,0,0,0,.42-.9,16.42,16.42,0,0,1,1.11-2.41,2.24,2.24,0,0,0,.14-.36,23.39,23.39,0,0,0,1-6.27,39.79,39.79,0,0,0-.2-5.57,7.28,7.28,0,0,0-.79-2.63,18.66,18.66,0,0,0-2.56-3.6,4.11,4.11,0,0,0-.29-.3c.11-.13.19,0,.26,0l.91.68.27.28.05.06a13.38,13.38,0,0,1,2.5,3.65l0,.08,0,.08a3.32,3.32,0,0,0,.16.76,13.61,13.61,0,0,1,.37,2.7c0,.64.1,1.27.1,1.91s0,1.2-.1,1.8-.1,1.37-.2,2.06a13.63,13.63,0,0,1-.77,3.08,2.45,2.45,0,0,0-.08.29s-.08.06-.09.1a15.06,15.06,0,0,1-1,2.25,6.16,6.16,0,0,0-.26.67l.06,0c.29-.32.53-.69.86-1,.06.12,0,.19,0,.25-.2.36-.39.73-.62,1.08-.53.85-1.08,1.7-1.62,2.54l0,.08Z"/><path class="cls-8" d="M104.85,101.09a10,10,0,0,0-3,.35c-.69.23-1.42.21-2.11.42a2.35,2.35,0,0,0-.45.14,12,12,0,0,1-3.14.85,12.66,12.66,0,0,0-3.07,1.05,28.33,28.33,0,0,1-4.65,1.76,1,1,0,0,1-.3,0c.3-.29.6-.57.89-.87a2.56,2.56,0,0,1,1-.62c1-.37,2-.66,3-1a1.85,1.85,0,0,0,.62-.29.51.51,0,0,0,.15-.6.45.45,0,0,0-.46-.29c-.31,0-.62.06-.93.09a5.85,5.85,0,0,1-1.1.17,3,3,0,0,1,1.39-.29,7,7,0,0,0,2.23-.41c.22-.06.47-.06.57-.32a5.36,5.36,0,0,0,1.81-1.47c.24-.29.38-.63.62-.9a.79.79,0,0,0,1.06.44c.25-.07.45-.26.7-.31a2.45,2.45,0,0,1-.34.5c-.13.2-.35.34-.37.6s-.35.16-.33.4l-.56.18a1.11,1.11,0,0,0,.44,0c1-.24,2.07-.42,3.11-.57s2.17-.38,3.27-.48A9.48,9.48,0,0,1,104.85,101.09Z"/><path class="cls-2" d="M87.45,77.11v.06h-.11a10.79,10.79,0,0,1-.08-1.61,16.51,16.51,0,0,1,1.25-5c.22-.55.47-1.1.73-1.64.52-1.08,1.06-2.15,1.58-3.24a15.12,15.12,0,0,1,1.32-2.52,7.47,7.47,0,0,1,1.51-1.85A14.73,14.73,0,0,0,95,60.37l.58-.56c1.52-1.53,3-3.08,4.56-4.6,1-1,2.09-2,3.14-3.05a19.43,19.43,0,0,0,1.53-1.74h.08a.93.93,0,0,1,0,.44.11.11,0,0,0,0,.14,1,1,0,0,1-.24.36.1.1,0,0,0-.1.13,10.65,10.65,0,0,1-1.35,1.57q-3.46,3.64-6.95,7.27a7.41,7.41,0,0,1-1.69,1.37,3.17,3.17,0,0,0-.7.67,12.09,12.09,0,0,0-2.06,3.2c-.61,1.3-1.32,2.56-2,3.85a22.24,22.24,0,0,0-2.12,6.07c-.08.5-.12,1-.18,1.51Z"/><path class="cls-9" d="M97.3,88.76a2.06,2.06,0,0,1,1.22-1.26,2,2,0,0,1,1.7-.09.55.55,0,0,0,.36,0,1.88,1.88,0,0,1,1.61.46,2.24,2.24,0,0,1-.75,4,1,1,0,0,0,.17-.6,3.27,3.27,0,0,0-.37-1.09.27.27,0,0,0-.08-.1s-.07,0-.11,0a.22.22,0,0,1,0,.08c.07.3.13.61.2.91a.7.7,0,0,1-.14.62,2.28,2.28,0,0,1-1.33.78c-.13,0-.15,0-.16-.14a2.89,2.89,0,0,0-.16-.82l-.06.64c-.11,0-.23-.14-.34,0h0a.61.61,0,0,0-.75-.39.66.66,0,0,1-.14,0,.23.23,0,0,0-.1-.19,2.71,2.71,0,0,1-.84-1.11,3.64,3.64,0,0,1,1.42-1,2.58,2.58,0,0,0-1.53.6c-.06-.16.13-.39-.13-.51a1.27,1.27,0,0,1,.3-.56C97.29,88.92,97.42,88.86,97.3,88.76ZM99,88.27c.05,0,.06,0,.07,0l.07,0a1.9,1.9,0,0,1,2-.06,1,1,0,0,1,.63.77,7,7,0,0,1,0,.82,1.39,1.39,0,0,0-.17-1.76,2.13,2.13,0,0,0-1.69-.41A1.64,1.64,0,0,0,99,88.27Zm.44,1.44c-.29,0-.42.25-.4.6s.21.54.47.55a.71.71,0,0,0,.65-.66c-.16.1-.22.3-.4.37s-.3.09-.41-.08A.67.67,0,0,1,99.43,89.71Z"/><path class="cls-11" d="M81.07,93.93c-.23.3-.31.67-.54,1-.09-.11,0-.23,0-.33.68-2.06,1.21-4.16,1.85-6.23a22.52,22.52,0,0,1,1.29-3.18c.29-.6.5-1.24.77-1.84a25.47,25.47,0,0,1,1.62-2.94,19.26,19.26,0,0,0,1.12-2.28c0-.11,0-.39.31-.24.06,0,.18-.13.24-.23a4.15,4.15,0,0,1,.76-.5,3.13,3.13,0,0,0,.93-.59v0l-1.51.4c-.08,0-.17.08-.25,0a27.85,27.85,0,0,1,3.4-1.5c.2-.06.39-.16.59-.24a1.49,1.49,0,0,1-.83-2,5.34,5.34,0,0,1,2-2.73c.12.06,0,.1,0,.16a17.11,17.11,0,0,0-1.11,1.57A3.16,3.16,0,0,0,91.22,74a.78.78,0,0,0,.87.83,1.64,1.64,0,0,0,.62-.09,8.35,8.35,0,0,0,1.11-.33l0,0-.08.1c-.07,0-.14,0-.18.1-1.31.66-2.48,1.55-3.75,2.28a7.09,7.09,0,0,1-1.23.62,3.74,3.74,0,0,0-1.3.93.31.31,0,0,0-.09.19,10.84,10.84,0,0,1-1.12,2.62,20,20,0,0,0-1.32,2.86c-.24.65-.5,1.29-.79,1.92a36.19,36.19,0,0,0-1.71,4.59c-.33,1.09-.78,2.13-1.16,3.2l-.05.07Z"/><path class="cls-10" d="M92.34,55.3A9.93,9.93,0,0,1,91.05,59c-.5,1-.88,2-1.36,3a.3.3,0,0,0,0,.18h0a.07.07,0,0,0-.05.07c-.09.19-.2.37-.28.56-.49,1-1,2.1-1.52,3.11a6.18,6.18,0,0,0-.48.92,26.5,26.5,0,0,0-1.6,2.91c-.69,1.51-1.16,3.11-1.84,4.63l0,.07a.06.06,0,0,0,0,0l0,.07,0,.09,0,.08,0,.09c-.13.06-.14.2-.2.32-.15.29-.29.59-.44.89,0,0,0,.16-.11,0,.38-1.65,1.05-3.2,1.51-4.83a25.05,25.05,0,0,1,2.32-5.08c1.14-2.1,2.15-4.27,3.22-6.41a11.45,11.45,0,0,1,.57-1.1A9.16,9.16,0,0,0,92,55.14a3.37,3.37,0,0,1,.53-1.25A11.78,11.78,0,0,0,92.34,55.3Z"/><path class="cls-5" d="M99.62,99c-.25,0-.45.24-.7.31a.79.79,0,0,1-1.06-.44,2.39,2.39,0,0,1,.13-.28,24.32,24.32,0,0,1,2.7-3.89.81.81,0,0,0,.25-.3c-.15,0-.24.27-.38,0l.07-.2c.11-.22.36-.25.53-.4l1.62-1.36.06,0h0l.31-.06a.47.47,0,0,1,.57.48c0,.13-.08.24,0,.37-.22.36-.45.7-.65,1.06a7,7,0,0,0-.79,1.48c-.39.48-.8,1-1.18,1.45-.18.22-.44.39-.51.7Z"/><path class="cls-2" d="M96.13,49l-.1.18a5.73,5.73,0,0,1,0-1.49c.23-1.67.6-3.3,1-4.93.2-.84.25-1.7.46-2.53a7.77,7.77,0,0,1,.82-1.78,15.36,15.36,0,0,1,2-3,20.72,20.72,0,0,1,2.11-2.08,23,23,0,0,0,2.24-2.28c.06-.07.1-.17.21-.15a1.15,1.15,0,0,1-.3,1,19.6,19.6,0,0,1-1.85,2,16.83,16.83,0,0,0-3,3.67.09.09,0,0,0-.06.11l-1.22,2.17a.09.09,0,0,0,0,.12l-.14.37a.39.39,0,0,0-.08.3l0,.11a.07.07,0,0,0,0,.11l0,.11a.12.12,0,0,0,0,.16l0,.12a.14.14,0,0,0,0,.16l0,.12a.12.12,0,0,0,0,.16l0,.12a.11.11,0,0,0,0,.16l0,.17a.12.12,0,0,0,0,.16l0,.22a.07.07,0,0,0,0,.11l0,.12a.43.43,0,0,0-.08.33l0,.11a.87.87,0,0,0-.13.44l0,.12a.3.3,0,0,0-.07.27l0,.16a.1.1,0,0,0,0,.12l0,.11h0s0,0,0,0l0,.16s0,0,0,.06l0,.1a.1.1,0,0,0,0,.12l0,.11a.08.08,0,0,0,0,.11l0,.11a.08.08,0,0,0,0,.12l0,.15s-.06.08,0,.13l0,.09a.15.15,0,0,0,0,.19l0,.09a2.72,2.72,0,0,0-.21.79s0,0,0,0a.64.64,0,0,0-.13.4l-.08.28a.07.07,0,0,0,0,.11l0,.11a.08.08,0,0,0,0,.11l0,.12A2.93,2.93,0,0,0,96.13,49Z"/><path class="cls-10" d="M96.8,38.6a14.33,14.33,0,0,0-1.06,1.49h0l-.06.06a2.27,2.27,0,0,0-.43.55l0,.07c0,.07-.11.12-.12.21a.5.5,0,0,0-.16.51v.17a5.43,5.43,0,0,0,0,1v.16a10.47,10.47,0,0,0,0,1.12l0,1c-.07.54-.14,1.08-.23,1.61-.1.69-.31,1.36-.46,2l0,.08a.22.22,0,0,0-.08.19l-.11.34s-.05,0,0,.06l-.08.22s0,0,0,.06l-.09.22c-.08,0-.06.15-.17.18v-.3l.12-.57s0-.06,0-.11l.26-1.5s0,0,0-.08L94,47s0-.06,0-.1l0-.29s0-.06,0-.11l0-.38s.05-.06,0-.09l.05-.53a.29.29,0,0,0,0-.3q0-1.15,0-2.31a5.54,5.54,0,0,0,0-1.35,1.63,1.63,0,0,1,.32-1.09,15.31,15.31,0,0,1,1-1.37c.06,0,.08-.05.08-.11a2.87,2.87,0,0,1,.36-.5.08.08,0,0,0,.08-.11l.7-1.05c.07,0,.08-.06.08-.12a.86.86,0,0,1,.2-.33.1.1,0,0,0,.08-.11,7.06,7.06,0,0,1,.64-1c.06,0,.08-.05.08-.11l0,0a.11.11,0,0,0,.08-.12,13.48,13.48,0,0,1,.86-1.27c.06,0,.08,0,.08-.11a.69.69,0,0,1,.2-.28c.06,0,.08,0,.08-.11a.77.77,0,0,1,.19-.28.09.09,0,0,0,.09-.11,12.74,12.74,0,0,1,.91-1.27.11.11,0,0,0,.08-.12.66.66,0,0,1,.19-.27.1.1,0,0,0,.09-.11,1.16,1.16,0,0,1,.24-.34.09.09,0,0,0,.09-.11l.08-.11c.07,0,.09-.05.09-.12h.13l0,.05,0,.05a.41.41,0,0,1-.09.28c-.33.66-.71,1.29-1.09,1.92s-.69,1.06-1,1.63c-.52.73-1,1.52-1.42,2.29A13.51,13.51,0,0,0,96.8,38.6Z"/><path class="cls-9" d="M84.45,52.82c0-.1,0-.2-.15-.14s-.37-.09-.45.19c0,.08-.11,0-.13-.12s.06-.2,0-.3a20.87,20.87,0,0,1,.06-3,1.53,1.53,0,0,1,.27-.79.94.94,0,0,1,.18.34c.3.6.31,1.31.78,1.84a.16.16,0,0,0,.07.16.12.12,0,0,0,0-.16,7.09,7.09,0,0,0-.24-1.13,2,2,0,0,1,.21-1.38,2.84,2.84,0,0,1,1,.44l.13.24c.49,1.18,1,2.36,1.49,3.54l-.33,0a1.78,1.78,0,0,0-1.53.44A1.77,1.77,0,0,0,84.45,52.82Z"/><path class="cls-12" d="M85.82,53a1.78,1.78,0,0,1,1.53-.44l.33,0c.09,0,0,.31.19.11a2.08,2.08,0,0,1,1.21,2.48,2.47,2.47,0,0,1-.52.9c-.08.08-.15.18-.29.17-.32-.25-.24-.64-.33-1a1.24,1.24,0,0,0,0,1.11c.07.14.05.21-.12.18a2.19,2.19,0,0,1-1.79-.14,1.76,1.76,0,0,1-1-1.27,2.65,2.65,0,0,0,1.54,1,.39.39,0,0,0,.34,0,3.29,3.29,0,0,1-1.92-2,1.8,1.8,0,0,1,.53-1c.25.07.3.37.53.51A1.14,1.14,0,0,0,85.82,53Zm.55.13a1.87,1.87,0,0,0,.67,0c.18,0,.39,0,.47.16a5.85,5.85,0,0,1,.55,1.38c0,.34.09.67.13,1,.13-.08.11-.19.13-.28a2.75,2.75,0,0,0-.42-2.14.71.71,0,0,0-.89-.36C86.81,53,86.61,53,86.37,53.12Z"/><path class="cls-13" d="M104.85,24.69a1.68,1.68,0,0,0-.28.71c-.41,1.2-.69,2.44-1.17,3.61a.4.4,0,0,1-.12.21c-.28-.42-.3-.43-.82-.32a.79.79,0,0,1,.1-.34,12.26,12.26,0,0,0,.69-2.36c.11-.69.13-1.38.22-2.06a35.31,35.31,0,0,0,.49-3.68c.08,0,.08-.08.1-.14.1-.37.22-.72.32-1.09a.47.47,0,0,1,.47-.39,2,2,0,0,1,0,.25c0,1.81,0,3.62,0,5.43A1,1,0,0,1,104.85,24.69Z"/><path class="cls-9" d="M86.07,99a.46.46,0,0,0,.26-.07,1.61,1.61,0,0,1,2.31,1.41,1.46,1.46,0,0,1-.44,1.15,12.12,12.12,0,0,1-1.2,1.06,2.16,2.16,0,0,1-1.35.39c0-.13.11-.25.06-.4-.16.11-.17.35-.37.42l-.84-.41a4.07,4.07,0,0,0,.59-.93,1.85,1.85,0,0,1,1.12-1,1.54,1.54,0,0,0,.62-.36,9.4,9.4,0,0,0-1.71.46A6.6,6.6,0,0,1,86.07,99Zm.91,2.27a.29.29,0,0,0-.24,0,.42.42,0,0,0,.24.07c.11.08.26.07.38.2a6.14,6.14,0,0,0-1.4,1.24.28.28,0,0,0,.22,0c.5-.37,1-.71,1.5-1.12.11-.1.1-.2-.05-.25A1.77,1.77,0,0,0,87,101.24Zm.56-.48c.15-.23.26-.41.11-.62C87.65,100.33,87.51,100.5,87.54,100.76Z"/><path class="cls-14" d="M97.27,69.76l.58-.25a1.8,1.8,0,0,1,1.05-.05l.31.18a1.72,1.72,0,0,1,1,1.46,1.48,1.48,0,0,0,0,.19,3.49,3.49,0,0,1-.23.84,2.33,2.33,0,0,1-1.36,1.18c-.13,0-.07.13-.06.21a3.43,3.43,0,0,1,.09,1.15,2.18,2.18,0,0,1-1.79,1.64,3.58,3.58,0,0,1-2.35-.09,1.32,1.32,0,0,1-.84-1.43h.09a1.22,1.22,0,0,0,1,1.12,2.53,2.53,0,0,0,1.39.08l1-.28a1.61,1.61,0,0,0,1.11-1.44v-.2a1.9,1.9,0,0,0-.07-.54c-.08-.21-.32,0-.47-.11l-.17-.06c.16,0,.41,0,.46-.12s-.17-.28-.28-.4a1.4,1.4,0,0,0-.75-.42.69.69,0,0,1,.64.06,2.12,2.12,0,0,1,.67.52.22.22,0,0,0,.29.06,2,2,0,0,0,1-2.25,1.45,1.45,0,0,0-1.56-.94,1.43,1.43,0,0,0-.45.12l-.65.23a4.79,4.79,0,0,1-.64.21,1.17,1.17,0,0,1,.47-.38A.43.43,0,0,0,97,69.7a2.29,2.29,0,0,0-.5-1.71.79.79,0,0,0-1.29-.06,2.93,2.93,0,0,0-.71,1.39c-.13.47-.21,1-.38,1.44,0,0-.06-.06-.06-.07a6.8,6.8,0,0,1,.25-2.2,2.38,2.38,0,0,1,.62-1,1.19,1.19,0,0,1,1.84.11,2.29,2.29,0,0,1,.43,2.11l0,.06Z"/><path class="cls-10" d="M104.84,49.29c-.41.41-.82.8-1.22,1.21A15.5,15.5,0,0,1,100.77,53a23.05,23.05,0,0,0-2.37,1.94c-1,.87-2,1.84-3.07,2.62a3.34,3.34,0,0,1-.4.25s-.09.06-.1,0,0-.07,0-.1.23-.13.28-.26c.5-.44.93-1,1.39-1.43a25,25,0,0,1,3.68-3.38,40.06,40.06,0,0,0,4.4-3.7l.2-.19A1.16,1.16,0,0,1,104.84,49.29Z"/><path class="cls-14" d="M89,43.93c-.16.19-.35.38-.1.64A20.32,20.32,0,0,0,90,46.7a8.7,8.7,0,0,1,1,1.86,8.44,8.44,0,0,0,.4,1.2,4.73,4.73,0,0,0,.19.74c.11.67.14,1.35.21,2a.77.77,0,0,1-.08.61c-.09-.32-.2-.62-.26-.94a15.4,15.4,0,0,0-.87-2.64,3.51,3.51,0,0,1-.19-.63,2.54,2.54,0,0,0-.31-.94,15.45,15.45,0,0,1-1.41-3,.88.88,0,0,0-.18-.41,3.19,3.19,0,0,1-.88.84,2.1,2.1,0,0,1-1.74-.3.76.76,0,0,1-.36-1.06c.09-.23.07-.51.3-.69,0,.19-.16.35-.07.54h0l0,0c-.24.6-.12.86.5,1.08a3,3,0,0,0,.78.17,1.44,1.44,0,0,0,1.09-.5.62.62,0,0,0,.19-.88c-.05-.1-.17-.29,0-.36s.16.19.26.27,0,0,0,0c.16.28.16.28.4,0l.06,0Z"/><path class="cls-14" d="M87.87,52.7c-.2.2-.1-.12-.19-.11-.5-1.18-1-2.36-1.49-3.54l-.13-.24a1.3,1.3,0,0,0-.35-.54c-.23-.21-.42-.17-.6.1a2,2,0,0,0-.21,1.38,7.09,7.09,0,0,1,.24,1.13h-.08c-.47-.53-.48-1.24-.78-1.84a.94.94,0,0,0-.18-.34,1.53,1.53,0,0,0-.27.79,20.87,20.87,0,0,0-.06,3c0,.1.07.22,0,.3l-.11-.28a15.22,15.22,0,0,1-.29-2.61,3.41,3.41,0,0,1,.24-1.13,2.17,2.17,0,0,1,.19-.33c.24-.31.45-.28.78.1.09-.07.08-.18.12-.27a.87.87,0,0,1,1.44-.36,1.71,1.71,0,0,1,.49.67A18.92,18.92,0,0,1,87.87,52.7Z"/><path class="cls-11" d="M104,20.46a35.31,35.31,0,0,1-.49,3.68c-.09.68-.11,1.37-.22,2.06a12.26,12.26,0,0,1-.69,2.36.79.79,0,0,0-.1.34,1.76,1.76,0,0,0-.24.42,5.81,5.81,0,0,1-.76,1.24s-.1,0-.13,0c.25-.63.51-1.26.71-1.91a17.24,17.24,0,0,0,.71-3.47,43.71,43.71,0,0,1,1-4.91s0,0,0,0l0-.11C104.06,20.14,103.88,20.35,104,20.46Z"/><path class="cls-5" d="M77,73.62l-.27-.28c0-.14-.08-.22-.16-.3a10.68,10.68,0,0,1-1.4-1.53s-.07,0-.11-.06a.26.26,0,0,1,.07-.22c.52-.3.88,0,1.23.33a12.91,12.91,0,0,1,1.86,2,.4.4,0,0,0,0,.49c.1.17.15.36.25.52a22.06,22.06,0,0,1,1.51,3l.06.12c.06.11.15.2.29.14s.1-.18.09-.29a3.37,3.37,0,0,1-.09-.34c0-.23-.18-.44-.12-.68a3.85,3.85,0,0,1,.38,1.32.23.23,0,0,1-.14.27.25.25,0,0,1-.32-.09c-.1-.13-.17-.28-.27-.41s-.08-.19-.2-.21l0-.08,0-.08A13.38,13.38,0,0,0,77,73.68Z"/><path class="cls-10" d="M100.84,109.24c0,.12-.11.1-.19.11l-2.19.26a3.16,3.16,0,0,1-1-.07,4.06,4.06,0,0,0-1-.09,4.59,4.59,0,0,1-1.79-.27c-.75-.25-1.51-.47-2.27-.71a3.4,3.4,0,0,1-.81-.4,3.51,3.51,0,0,0-1-.45,2,2,0,0,1-1.4-1l.21.12a3.56,3.56,0,0,0,1.58.69,1.4,1.4,0,0,1,.52.18,7,7,0,0,0,2,.73c.63.15,1.25.31,1.86.52a1.05,1.05,0,0,0,.24.06c1.21,0,2.38.43,3.6.32A9.74,9.74,0,0,1,100.84,109.24Z"/><path class="cls-11" d="M85.75,44c-.09-.19.08-.35.07-.54s0-.18-.14-.18-.47,0-.71,0a1.92,1.92,0,0,1-1.64-2.08,2.4,2.4,0,0,1,2.4-2.18,5.44,5.44,0,0,1,.9.14c0,.09.14.07.18.2a1.11,1.11,0,0,1-.26,0,2.22,2.22,0,0,0-2.16.69A1.7,1.7,0,0,0,84,41.66a1.27,1.27,0,0,0,1.18,1,7.06,7.06,0,0,1,.77.1.44.44,0,0,1,.29.76A4.78,4.78,0,0,1,85.75,44Z"/><path class="cls-11" d="M83.17,77a10.17,10.17,0,0,1-1.07-1.29,15.13,15.13,0,0,0-1.67-1.91c-.35-.3-.64-.67-1-1-1.2-1.21-2.51-2.28-3.75-3.44-.15-.14-.28-.29-.42-.43l-.05-.09h0a2.66,2.66,0,0,1,.65.44,39.91,39.91,0,0,1,3.87,3.14,18.41,18.41,0,0,1,2.52,3l.39.6.06,0h0c0,.1,0,.17.1.24A2.12,2.12,0,0,1,83.17,77Z"/><path class="cls-15" d="M81.77,111.3a6.86,6.86,0,0,1,.61-.81,1.34,1.34,0,0,1,.76-.46,4,4,0,0,0-1.22,1.8c-.27.68-.07,1.08.63,1.25a1.33,1.33,0,0,0,.4,0,1,1,0,0,0,1.09-.52,5.3,5.3,0,0,1,1.17-1.45c.08-.07.15-.18.31-.12-.2.26-.4.51-.59.77a.37.37,0,0,0,0,.54.17.17,0,0,0,.14.12,4.42,4.42,0,0,0,1.73.2c.25-.06.49-.1.73-.17a.51.51,0,0,0,.24-.74,6.15,6.15,0,0,0-.68-.93.34.34,0,0,1-.09-.14,2.36,2.36,0,0,1,1.06.94c.18.66,0,1-.68,1.2a3.42,3.42,0,0,1-2.21-.13,1.46,1.46,0,0,1-.35-.22l-.11-.35-.68,1a1.93,1.93,0,0,1-2.11.07,1,1,0,0,1-.47-1.06A4.83,4.83,0,0,1,81.77,111.3Z"/><path class="cls-5" d="M91.72,53.14a.77.77,0,0,0,.08-.61c-.07-.68-.1-1.36-.21-2a4.73,4.73,0,0,1-.19-.74.34.34,0,0,1,.42.08,1.55,1.55,0,0,1,.44.87,4.22,4.22,0,0,0,.41,1.21V52a2.08,2.08,0,0,0,.19.73,4.59,4.59,0,0,0,0,1.17c-.11.1-.06.22-.07.34a3.47,3.47,0,0,1,0,.85c0,.19-.14.3-.36.2a11.78,11.78,0,0,1,.21-1.41A3.37,3.37,0,0,0,92,55.14a.18.18,0,0,1-.09-.28A2.52,2.52,0,0,0,92,53.5c0-.06,0-.12-.1-.07S91.72,53.27,91.72,53.14Z"/><path class="cls-11" d="M92.66,52v-.09c.08-.19.15-.39.24-.59a.27.27,0,0,0,0-.23c-.57-.87-1.12-1.74-1.69-2.6a7.23,7.23,0,0,1-.68-1.29c-.31-.79-.53-1.62-.79-2.44,0-.05,0-.12,0-.14s.09,0,.12.1a11.43,11.43,0,0,1,.69,1.35,18.81,18.81,0,0,0,1.2,2.37,24.83,24.83,0,0,1,1.17,2.3s0,.27.2.13a4,4,0,0,1,.22-.34c.11-.12.13-.33.35-.35a4.25,4.25,0,0,1-.39.93.61.61,0,0,0-.11.41c-.14,0-.18.07-.25.15S92.87,52,92.66,52Z"/><path class="cls-15" d="M91.16,43.54a2.55,2.55,0,0,0-.34-1.75c-.25-.47-.55-.9-.83-1.34a1.47,1.47,0,0,0-.46-.47,6.82,6.82,0,0,0-2.18-1.27,4,4,0,0,1,3.2,1.76c.19.27.35.55.52.82A3.22,3.22,0,0,1,91.56,43a1.47,1.47,0,0,1-1.35,1.65A1.46,1.46,0,0,0,91.16,43.54Z"/><path class="cls-10" d="M96.92,110.63a12.94,12.94,0,0,1,2.33.2.86.86,0,0,0,.16,0,3.32,3.32,0,0,1,2.38.71,6,6,0,0,0,2.68,1l.38.07c.08.25,0,.3-.26.28a6.34,6.34,0,0,1-3.16-1,4.12,4.12,0,0,0-2-.67A9.8,9.8,0,0,1,96.92,110.63Z"/><path class="cls-11" d="M100.69,94.72A24.32,24.32,0,0,0,98,98.61a2.39,2.39,0,0,0-.13.28c-.24.27-.38.61-.62.9a5.36,5.36,0,0,1-1.81,1.47l-.07-.08a6.64,6.64,0,0,0,2.11-2.53,13.1,13.1,0,0,1,2.33-3.29l0,0h0l.05-.06h0l0,0h0l.06,0h0a.07.07,0,0,0,.06-.07s0,0,0,0a.28.28,0,0,0,.29-.28h0C100.5,94.79,100.57,94.54,100.69,94.72Z"/><path class="cls-11" d="M102.78,92.48l-1.62,1.36c-.17.15-.42.18-.53.4a.19.19,0,0,1-.23,0,61.89,61.89,0,0,0,4.43-4.58,3.1,3.1,0,0,1,0,.86l-2,2h0Z"/><path class="cls-14" d="M94.73,57.37v-.16c.07-.74.15-1.49.19-2.23a8.85,8.85,0,0,1,.38-2c.13-.41.24-.83.4-1.23a14.36,14.36,0,0,0,.39-2.14,1,1,0,0,0,.06-.39c.16-.18,0-.47.22-.65l0,.11a4.18,4.18,0,0,0,0,.79l0,.22a.16.16,0,0,0,0,.16l0,.12a.08.08,0,0,0,0,.11l0,.11a.08.08,0,0,0,0,.11l0,.16a.13.13,0,0,0,0,.18l0,.22a.22.22,0,0,0,0,.22l0,.22a.07.07,0,0,0,0,.11l0,.17a.12.12,0,0,0,0,.16l0,.17A.08.08,0,0,0,96,52l0,.17a.07.07,0,0,0,0,.11l0,.11a.14.14,0,0,0,0,.16l0,.12a.07.07,0,0,0,0,.11l0,.17s0,.06,0,.1l0,.12a.07.07,0,0,0,0,.11l0,.17s0,.06,0,.1l0,.12a.08.08,0,0,0,0,.11l0,.17a.14.14,0,0,0,0,.16l0,.11a.15.15,0,0,0,0,.17l0,.17a.12.12,0,0,0,0,.16l0,.17a.12.12,0,0,0,0,.16l0,.23a.08.08,0,0,0,0,.11l0,.22a.07.07,0,0,0,0,.11l0,.17a.12.12,0,0,0,0,.16l0,.12a.06.06,0,0,0,0,.1l0,.12s0,.06,0,.11l0,.16a.08.08,0,0,0,0,.11l0,.12s0,.06,0,.1l-.08.28C94.81,57.28,94.81,57.37,94.73,57.37Z"/><path class="cls-8" d="M89.72,44.77c.26.82.48,1.65.79,2.44a7.23,7.23,0,0,0,.68,1.29c.57.86,1.12,1.73,1.69,2.6a.27.27,0,0,1,0,.23c-.09.2-.16.4-.24.59a4.22,4.22,0,0,1-.41-1.21,1.55,1.55,0,0,0-.44-.87.34.34,0,0,0-.42-.08,8.44,8.44,0,0,1-.4-1.2,8.7,8.7,0,0,0-1-1.86,20.32,20.32,0,0,1-1.09-2.13.27.27,0,0,1,.33-.09A1.32,1.32,0,0,0,89.72,44.77Z"/><path class="cls-10" d="M104.84,99.68c-1.1.1-2.18.32-3.27.48s-2.08.33-3.11.57a1.11,1.11,0,0,1-.44,0l.56-.18a1.17,1.17,0,0,0,.44-.16l.22-.07.11,0c1.23-.33,2.47-.56,3.72-.8.45-.09.91-.12,1.37-.18S104.91,99.22,104.84,99.68Z"/><path class="cls-15" d="M86.07,99a6.6,6.6,0,0,0-.95,1.72,9.4,9.4,0,0,1,1.71-.46,1.54,1.54,0,0,1-.62.36,1.85,1.85,0,0,0-1.12,1,4.07,4.07,0,0,1-.59.93.17.17,0,0,0-.11.11h-.11c0-.16.15-.24.17-.38a6.47,6.47,0,0,0,.4-.94c.08-.16.27-.32,0-.5-.06,0,0-.18,0-.27s.07-.34.11-.51a4.86,4.86,0,0,1,1.43-1.84,2.27,2.27,0,0,1,.32-.22c.24-.12.34-.07.37.18-.09-.18-.2-.11-.31,0A4.28,4.28,0,0,0,86.07,99Z"/><path class="cls-14" d="M85.05,54.15a3.29,3.29,0,0,0,1.92,2,.39.39,0,0,1-.34,0,2.65,2.65,0,0,1-1.54-1l-.56-.88a2.7,2.7,0,0,1-.33-.76.59.59,0,0,1,.25-.7,1.77,1.77,0,0,1,1.37.17,1.14,1.14,0,0,1,.29.71c-.23-.14-.28-.44-.53-.51a1.14,1.14,0,0,0-.85,0c-.12,0-.13.12-.1.22A2.24,2.24,0,0,0,85.05,54.15Z"/><path class="cls-3" d="M102.85,92.43l2-2a6.42,6.42,0,0,1,0,1.24,1.28,1.28,0,0,0-.29.32l-.87,1.18c0-.13,0-.24,0-.37a.47.47,0,0,0-.57-.48Z"/><path class="cls-15" d="M87.84,56.57c.17,0,.19,0,.12-.18a1.24,1.24,0,0,1,0-1.11c.09.33,0,.72.33,1a14.91,14.91,0,0,1,.77,2c.09.28.2.56.28.84s0,.64.06,1a6.39,6.39,0,0,1-.52-1.24A18.82,18.82,0,0,0,87.84,56.57Z"/><path class="cls-11" d="M103.69,93.22l.87-1.18a1.28,1.28,0,0,1,.29-.32,1.39,1.39,0,0,1-.33,1.24c-.34.39-.63.83-1,1.25a.07.07,0,0,0,0,.07,0,0,0,0,1,0,0s-.06,0-.05.07h0c-.08,0-.13.08-.11.17h0a3.81,3.81,0,0,0-.62.71c-.16.17-.25.41-.48.51a7,7,0,0,1,.79-1.48C103.24,93.92,103.47,93.58,103.69,93.22Z"/><path class="cls-14" d="M99.62,99l.94-1.11a10,10,0,0,0,1.23-1.21c.19.06.28-.24.5-.15a24.63,24.63,0,0,1-3.35,3.57,0,0,0,0,0,0,0c0-.26.24-.4.37-.6A2.45,2.45,0,0,0,99.62,99Z"/><path class="cls-15" d="M97.08,90.05a2.58,2.58,0,0,1,1.53-.6,3.64,3.64,0,0,0-1.42,1,.6.6,0,0,0-.12.6,1.14,1.14,0,0,0,1.06.7.66.66,0,0,0,.14,0,.61.61,0,0,1,.75.39s0,.13-.07.14c-.13-.31-.36-.35-.67-.3a1.38,1.38,0,0,1-1.5-.73.85.85,0,0,1,0-.86A3,3,0,0,1,97.08,90.05Z"/><path class="cls-15" d="M99.41,92.15l.06-.64a2.89,2.89,0,0,1,.16.82c0,.1,0,.19.16.14a2.28,2.28,0,0,0,1.33-.78.7.7,0,0,0,.14-.62c-.07-.3-.13-.61-.2-.91a.22.22,0,0,0,0-.08s.08,0,.11,0a.27.27,0,0,1,.08.1,3.27,3.27,0,0,1,.37,1.09,1,1,0,0,1-.17.6,1.94,1.94,0,0,1-1.59.68c-.14,0-.19,0-.2.17a1.39,1.39,0,0,1-.28.81A7,7,0,0,0,99.41,92.15Z"/><path class="cls-11" d="M104.84,107.84a15.5,15.5,0,0,1-3.21,1.39c-.06,0-.13.07-.23,0,.5-.35,1.07-.54,1.56-.89l1.58-.76C104.89,107.42,104.9,107.43,104.84,107.84Z"/><path class="cls-3" d="M104,20.46c-.08-.11.1-.32-.13-.38a1.49,1.49,0,0,1,.14-.55c.27-.78.49-1.58.82-2.34h.06a15.14,15.14,0,0,1,0,1.65.47.47,0,0,0-.47.39c-.1.37-.22.72-.32,1.09C104,20.38,104,20.45,104,20.46Z"/><path class="cls-9" d="M85,100c0,.17-.08.34-.11.51s0,.22,0,.27c.26.18.07.34,0,.5a6.47,6.47,0,0,1-.4.94,1.63,1.63,0,0,1,.26-2.13A.29.29,0,0,1,85,100Z"/><path class="cls-9" d="M83.32,49.86a15.22,15.22,0,0,0,.29,2.61c-.12,0-.18-.09-.24-.17A1.94,1.94,0,0,1,83.11,50C83.17,50,83.22,49.88,83.32,49.86Z"/><path class="cls-5" d="M78.52,105.42a8.44,8.44,0,0,1-1.64.3,12.21,12.21,0,0,0-2.91.7.62.62,0,0,1,.26-.34c0,.06.09,0,.14,0a6.1,6.1,0,0,1,2.34-.57A12.13,12.13,0,0,1,78.52,105.42Z"/><path class="cls-3" d="M75,71.45s.09,0,.11.06A10.68,10.68,0,0,0,76.53,73c.08.08.18.16.16.3l-.91-.68c-.07,0-.15-.17-.26,0-.16-.13-.34-.24-.5-.38S74.73,71.81,75,71.45Z"/><path class="cls-15" d="M88.15,110.46l-.1.12a.12.12,0,0,1-.15,0s0-.08,0-.12a.42.42,0,0,0,0-.38,1,1,0,0,0-.26-.55,1.82,1.82,0,0,0-.5-.67.16.16,0,0,1,0-.24.19.19,0,0,1,.26-.06c.21.11.32.32.48.48A2,2,0,0,1,88.15,110.46Z"/><path class="cls-9" d="M98.66,74.67a3.43,3.43,0,0,0-.09-1.15c0-.08-.07-.17.06-.21A2.33,2.33,0,0,0,100,72.13a.85.85,0,0,1-.41.76,1.12,1.12,0,0,0-.4.71A3.54,3.54,0,0,1,98.66,74.67Z"/><path class="cls-8" d="M101.79,96.7a10,10,0,0,1-1.23,1.21c.07-.31.33-.48.51-.7.38-.49.79-1,1.18-1.45.23-.1.32-.34.48-.51a3.81,3.81,0,0,1,.62-.71,6.35,6.35,0,0,1-.73,1C102.35,96,102,96.31,101.79,96.7Z"/><path class="cls-15" d="M85.34,102.93c.2-.07.21-.31.37-.42.05.15,0,.27-.06.4a2.47,2.47,0,0,1-1.35,1.27.63.63,0,0,1-.42,0,5.1,5.1,0,0,0,1.3-1C85.25,103.11,85.35,103.05,85.34,102.93Z"/><path class="cls-8" d="M87.67,77c.08.09.17,0,.25,0l1.51-.4h0a3.13,3.13,0,0,1-.93.59,4.15,4.15,0,0,0-.76.5,1.62,1.62,0,0,1,0-.22c.07-.37.07-.37-.28-.31V77C87.52,77,87.58,76.91,87.67,77Z"/><path class="cls-9" d="M100.22,71.29a1.48,1.48,0,0,1,0-.19,1.72,1.72,0,0,0-1-1.46l-.31-.18a.9.9,0,0,1,1,.3A1.62,1.62,0,0,1,100.22,71.29Z"/><path class="cls-8" d="M83.17,77a2.12,2.12,0,0,0-.34-.71c0-.07-.12-.14-.1-.24s.13.1.23.07c.09.12.09,0,.11,0,.15-.3.29-.6.44-.89.06-.12.07-.26.2-.32-.11.4-.23.81-.32,1.22s-.24.74,0,1.11c0,0,0,.06-.08.07S83.17,77.08,83.17,77Z"/><path class="cls-11" d="M104.84,110.06l-1.5.21a2.48,2.48,0,0,1,1.51-.47A.39.39,0,0,1,104.84,110.06Z"/><path class="cls-3" d="M65.93,107.51c.06.11-.19.18,0,.3a1.41,1.41,0,0,0,.12.83c.09.15-.1.27-.22.37a7.6,7.6,0,0,0-.16-.83A.5.5,0,0,1,65.93,107.51Z"/><path class="cls-8" d="M93.7,50.19c-.22,0-.24.23-.35.35a4,4,0,0,0-.22.34,9.63,9.63,0,0,1,.4-1.29v.3c.11,0,.09-.15.17-.18C93.72,49.87,93.85,50,93.7,50.19Z"/><path class="cls-9" d="M87.62,45.46a3.19,3.19,0,0,0,.88-.84.88.88,0,0,1,.18.41c-.23.11-.45.23-.68.33A.58.58,0,0,1,87.62,45.46Z"/><path class="cls-9" d="M84.05,113.12l.68-1,.11.35c-.13.16-.27.31-.41.46A.46.46,0,0,1,84.05,113.12Z"/><path class="cls-8" d="M97.3,88.76c.12.1,0,.16,0,.22a1.27,1.27,0,0,0-.3.56l-.06.23A1,1,0,0,1,97.3,88.76Z"/><path class="cls-15" d="M91.89,53.43c.08,0,.09,0,.1.07a2.52,2.52,0,0,1-.06,1.36,11.3,11.3,0,0,1,0-1.16.18.18,0,0,0,0-.19Z"/><path class="cls-8" d="M94.15,41.56a5.54,5.54,0,0,1,0,1.35A6.09,6.09,0,0,1,94.15,41.56Z"/><path class="cls-5" d="M96.36,48.53c-.17.18-.06.47-.22.65V49a2.93,2.93,0,0,1,.18-1Z"/><path class="cls-15" d="M95.36,101.18l.07.08c-.1.26-.35.26-.57.32v-.09Z"/><path class="cls-5" d="M94.73,57.37c.08,0,.08-.09.14-.12,0,.34.18.12.28.13-.05.13-.18.18-.28.26S94.53,57.58,94.73,57.37Z"/><path class="cls-15" d="M100.69,94.72c-.12-.18-.19.07-.29,0s.1-.21.16-.31c.14.25.23,0,.38,0A.81.81,0,0,1,100.69,94.72Z"/><path class="cls-12" d="M98.91,100.12a0,0,0,0,1,0,0,.41.41,0,0,0,.08.24,1.17,1.17,0,0,1-.44.16C98.56,100.28,98.79,100.24,98.91,100.12Z"/><path class="cls-5" d="M96.4,49.43a4.18,4.18,0,0,1,0-.79A1.25,1.25,0,0,1,96.4,49.43Z"/><path class="cls-5" d="M96.65,46.88a2.72,2.72,0,0,1,.21-.79A1.23,1.23,0,0,1,96.65,46.88Z"/><path class="cls-15" d="M101.33,30.52c0,.08.08.05.13,0a.5.5,0,0,1-.15.34h-.14A1.22,1.22,0,0,1,101.33,30.52Z"/><path class="cls-13" d="M99,92.3c.11,0,0-.09.07-.14h0a.53.53,0,0,1,0,.47A.45.45,0,0,1,99,92.3Z"/><path class="cls-15" d="M100.39,94.75a.28.28,0,0,1-.29.28C100.17,94.91,100.23,94.77,100.39,94.75Z"/><path class="cls-5" d="M97.45,43.71a.87.87,0,0,1,.13-.44A.62.62,0,0,1,97.45,43.71Z"/><path class="cls-13" d="M93.77,74.79h-.09l-.09-.14c0-.08.11-.08.18-.1A.23.23,0,0,1,93.77,74.79Z"/><path class="cls-8" d="M94.16,45.22a.29.29,0,0,1,0,.3A.35.35,0,0,1,94.16,45.22Z"/><path class="cls-9" d="M84.28,102.63h.11s0,.08,0,.1-.09.16-.16.09S84.21,102.67,84.28,102.63Z"/><path class="cls-5" d="M97.62,43.16a.43.43,0,0,1,.08-.33A.36.36,0,0,1,97.62,43.16Z"/><path class="cls-5" d="M96.5,47.32a.64.64,0,0,1,.13-.4A.64.64,0,0,1,96.5,47.32Z"/><path class="cls-5" d="M97.34,44.1a.3.3,0,0,1,.07-.27A.29.29,0,0,1,97.34,44.1Z"/><path class="cls-5" d="M98.11,40.72a.39.39,0,0,1,.08-.3A.31.31,0,0,1,98.11,40.72Z"/><path class="cls-5" d="M96.12,51a.22.22,0,0,1,0-.22A.17.17,0,0,1,96.12,51Z"/><path class="cls-13" d="M104.85,17.19h-.06c0-.05,0-.14,0-.12S104.87,17.15,104.85,17.19Z"/><path class="cls-5" d="M95.45,54.37a.15.15,0,0,1,0-.17C95.53,54.27,95.51,54.32,95.45,54.37Z"/><path class="cls-5" d="M97.84,42.05a.11.11,0,0,1,0-.16C97.92,42,97.89,42,97.84,42.05Z"/><path class="cls-5" d="M95.5,54.09a.14.14,0,0,1,0-.16C95.58,54,95.57,54,95.5,54.09Z"/><path class="cls-5" d="M97.89,41.77a.12.12,0,0,1,0-.16C98,41.67,98,41.72,97.89,41.77Z"/><path class="cls-5" d="M97.94,41.49a.14.14,0,0,1,0-.16A.1.1,0,0,1,97.94,41.49Z"/><path class="cls-5" d="M95.17,56a.12.12,0,0,1,0-.16A.1.1,0,0,1,95.17,56Z"/><path class="cls-5" d="M98,41.21a.12.12,0,0,1,0-.16A.1.1,0,0,1,98,41.21Z"/><path class="cls-5" d="M96,51.7a.12.12,0,0,1,0-.16A.1.1,0,0,1,96,51.7Z"/><path class="cls-5" d="M96.17,50.6a.13.13,0,0,1,0-.18A.13.13,0,0,1,96.17,50.6Z"/><path class="cls-5" d="M96.88,46a.15.15,0,0,1,0-.19A.12.12,0,0,1,96.88,46Z"/><path class="cls-5" d="M96.33,49.81a.16.16,0,0,1,0-.16C96.41,49.72,96.4,49.77,96.33,49.81Z"/><path class="cls-5" d="M95.83,52.53a.14.14,0,0,1,0-.16C95.92,52.44,95.9,52.49,95.83,52.53Z"/><path class="cls-5" d="M95.34,55a.12.12,0,0,1,0-.16C95.42,54.93,95.4,55,95.34,55Z"/><path class="cls-5" d="M97.78,42.38a.12.12,0,0,1,0-.16C97.86,42.28,97.84,42.33,97.78,42.38Z"/><path class="cls-5" d="M95.4,54.7a.12.12,0,0,1,0-.16C95.47,54.6,95.45,54.65,95.4,54.7Z"/><path class="cls-8" d="M103.35,94.54c0-.09,0-.14.11-.17A.16.16,0,0,1,103.35,94.54Z"/><path class="cls-5" d="M95.29,55.37a.08.08,0,0,1,0-.11S95.33,55.34,95.29,55.37Z"/><path class="cls-15" d="M101.18,30.88c0,.07,0,.11-.09.12A.14.14,0,0,1,101.18,30.88Z"/><path class="cls-5" d="M96,52a.08.08,0,0,1,0-.11C96,51.92,96,52,96,52Z"/><path class="cls-15" d="M101,31.11a.09.09,0,0,1-.09.11A.14.14,0,0,1,101,31.11Z"/><path class="cls-15" d="M100.68,31.56a.1.1,0,0,1-.09.11A.12.12,0,0,1,100.68,31.56Z"/><path class="cls-5" d="M95.12,56.25a.06.06,0,0,1,0-.1S95.17,56.22,95.12,56.25Z"/><path class="cls-5" d="M95.07,56.48s0-.08,0-.11S95.11,56.45,95.07,56.48Z"/><path class="cls-5" d="M95,56.75a.08.08,0,0,1,0-.11S95.05,56.73,95,56.75Z"/><path class="cls-5" d="M95,57s0-.08,0-.1S95,57,95,57Z"/><path class="cls-10" d="M104.85,50.42h-.08a.09.09,0,0,1,.08-.1Z"/><path class="cls-5" d="M95.24,55.7a.07.07,0,0,1,0-.11S95.28,55.67,95.24,55.7Z"/><path class="cls-5" d="M96.22,50.26a.08.08,0,0,1,0-.11C96.3,50.2,96.27,50.24,96.22,50.26Z"/><path class="cls-5" d="M95.9,52.26a.07.07,0,0,1,0-.11C96,52.2,95.94,52.23,95.9,52.26Z"/><path class="cls-5" d="M96.28,50a.08.08,0,0,1,0-.11S96.33,50,96.28,50Z"/><path class="cls-15" d="M99.41,33.33a.09.09,0,0,1-.09.11A.13.13,0,0,1,99.41,33.33Z"/><path class="cls-10" d="M104.45,51.49a.1.1,0,0,1,.1-.13A.17.17,0,0,1,104.45,51.49Z"/><path class="cls-5" d="M95.57,53.76a.08.08,0,0,1,0-.11S95.61,53.73,95.57,53.76Z"/><path class="cls-15" d="M100.4,31.94a.11.11,0,0,1-.08.12A.12.12,0,0,1,100.4,31.94Z"/><path class="cls-5" d="M96.07,51.37a.07.07,0,0,1,0-.11C96.13,51.31,96.11,51.34,96.07,51.37Z"/><path class="cls-5" d="M95.62,53.53s0-.07,0-.1S95.66,53.51,95.62,53.53Z"/><path class="cls-5" d="M95.68,53.26a.07.07,0,0,1,0-.11C95.74,53.2,95.72,53.23,95.68,53.26Z"/><path class="cls-5" d="M95.79,52.76a.07.07,0,0,1,0-.11C95.86,52.7,95.83,52.73,95.79,52.76Z"/><path class="cls-10" d="M104.79,51a.11.11,0,0,1,0-.14A.11.11,0,0,1,104.79,51Z"/><path class="cls-8" d="M93.67,48.91c0,.05,0,.08,0,.11S93.63,48.94,93.67,48.91Z"/><path class="cls-5" d="M97.05,45.21a.08.08,0,0,1,0-.11S97.1,45.19,97.05,45.21Z"/><path class="cls-5" d="M97.11,45a.1.1,0,0,1,0-.12C97.19,44.93,97.16,45,97.11,45Z"/><path class="cls-5" d="M95.73,53s0-.07,0-.1S95.78,53,95.73,53Z"/><path class="cls-8" d="M93.94,47.33s0,.06,0,.08S93.9,47.35,93.94,47.33Z"/><path class="cls-5" d="M97.72,42.71a.07.07,0,0,1,0-.11A.06.06,0,0,1,97.72,42.71Z"/><path class="cls-8" d="M94,46.92s0,.07,0,.1S94,47,94,46.92Z"/><path class="cls-5" d="M96.4,47.71a.07.07,0,0,1,0-.11S96.44,47.68,96.4,47.71Z"/><path class="cls-5" d="M97.27,44.38a.1.1,0,0,1,0-.12C97.35,44.32,97.32,44.35,97.27,44.38Z"/><path class="cls-8" d="M94.05,46.52s0,.08,0,.11S94,46.56,94.05,46.52Z"/><path class="cls-5" d="M97,45.44a.08.08,0,0,1,0-.12S97.05,45.41,97,45.44Z"/><path class="cls-8" d="M94.1,46.05c.05,0,0,.06,0,.09S94.06,46.07,94.1,46.05Z"/><path class="cls-5" d="M99.59,37.76a.09.09,0,0,1,.06-.11C99.67,37.71,99.65,37.75,99.59,37.76Z"/><path class="cls-5" d="M96.94,45.72s0-.09,0-.13S97,45.69,96.94,45.72Z"/><path class="cls-5" d="M98.06,40.94a.07.07,0,0,1,0-.11C98.13,40.88,98.1,40.91,98.06,40.94Z"/><path class="cls-5" d="M96.34,47.93a.08.08,0,0,1,0-.11S96.39,47.9,96.34,47.93Z"/><path class="cls-5" d="M98.33,40.05a.09.09,0,0,1,0-.12S98.38,40,98.33,40.05Z"/><path class="cls-15" d="M95.58,39c0,.06,0,.1-.08.11A.13.13,0,0,1,95.58,39Z"/><path class="cls-15" d="M96,38.38a.08.08,0,0,1-.08.11A.13.13,0,0,1,96,38.38Z"/><path class="cls-15" d="M96.8,37.21c0,.06,0,.1-.08.12S96.74,37.23,96.8,37.21Z"/><path class="cls-15" d="M97.08,36.77a.1.1,0,0,1-.08.11A.11.11,0,0,1,97.08,36.77Z"/><path class="cls-15" d="M97.8,35.66c0,.06,0,.1-.08.11A.12.12,0,0,1,97.8,35.66Z"/><path class="cls-15" d="M97.91,35.49a.11.11,0,0,1-.08.12A.12.12,0,0,1,97.91,35.49Z"/><path class="cls-15" d="M98.85,34.11c0,.06,0,.1-.08.11A.12.12,0,0,1,98.85,34.11Z"/><path class="cls-15" d="M99.13,33.72c0,.06,0,.1-.08.11A.11.11,0,0,1,99.13,33.72Z"/><path class="cls-5" d="M91.9,53.51a.18.18,0,0,1,0,.19A.17.17,0,0,1,91.9,53.51Z"/><path class="cls-15" d="M100.07,95.07a.07.07,0,0,1-.06.07S100,95.07,100.07,95.07Z"/><path class="cls-3" d="M66,107.41c0,.06,0,.1-.07.1A.08.08,0,0,1,66,107.41Z"/><path class="cls-12" d="M99.35,100.25l-.11,0C99.26,100.24,99.3,100.24,99.35,100.25Z"/><polygon class="cls-11" points="75.19 68.73 75.18 68.72 75.19 68.73 75.19 68.73"/><path class="cls-5" d="M81.07,93.93l.05-.07S81.12,93.93,81.07,93.93Z"/><path class="cls-11" d="M75.24,68.8s0-.07,0-.07h0l.06.07Z"/><path class="cls-3" d="M103.79,20.19s0,0,0,0,0,0,0,0Z"/><path class="cls-8" d="M82.73,76l-.06,0S82.73,76,82.73,76Z"/><path class="cls-8" d="M103.46,94.38s0-.06.05-.07A.06.06,0,0,1,103.46,94.38Z"/><path class="cls-3" d="M66.05,107.36s0,0,0,0A0,0,0,0,1,66.05,107.36Z"/><path class="cls-15" d="M100,95.14l-.06,0S100,95.14,100,95.14Z"/><path class="cls-15" d="M100,95.2l0,0A0,0,0,0,1,100,95.2Z"/><path class="cls-15" d="M99.9,95.25l-.05.06Z"/><path class="cls-15" d="M99.84,95.31l0,0S99.81,95.31,99.84,95.31Z"/><path class="cls-3" d="M66.1,107.29s0,.06,0,.07Z"/><path class="cls-8" d="M103.52,94.28a.07.07,0,0,1,0-.07S103.56,94.27,103.52,94.28Z"/><path class="cls-5" d="M97.17,44.77s0-.05,0-.06S97.2,44.76,97.17,44.77Z"/><path class="cls-5" d="M97.23,44.55s0,0,0,0h0S97.26,44.53,97.23,44.55Z"/><path class="cls-12" d="M76.35,96c.54-.84,1.09-1.69,1.62-2.54.23-.35.42-.72.62-1.08,0-.06.11-.13,0-.25-.33.31-.57.68-.86,1l-.06,0a6.16,6.16,0,0,1,.26-.67,15.06,15.06,0,0,0,1-2.25s.06-.06.09-.1c.37-.11.58,0,.62.41a.48.48,0,0,0,.06.26,10.23,10.23,0,0,1-.8,3.21.55.55,0,0,0-.09.28c-.17.36-.36.7-.52,1.06a11.09,11.09,0,0,1-1.28,2.25,2.43,2.43,0,0,0-.2.35c-.12,0-.17.11-.24.18l-1.33,1.32c-.21.21-.41.2-.53,0s0-.27.06-.38a27.83,27.83,0,0,0,1.34-2.53.46.46,0,0,0,.09-.32l.06-.09Z"/><path class="cls-12" d="M87.32,66.84a6.18,6.18,0,0,1,.48-.92c.56-1,1-2.06,1.52-3.11.08-.19.19-.37.28-.56l.05-.07h0l.34-.27a.83.83,0,0,1,.89.33,3.53,3.53,0,0,1-.39,1.89A21.91,21.91,0,0,1,89,66.94a1.1,1.1,0,0,1-.91.51A1.43,1.43,0,0,1,87.32,66.84Z"/><path class="cls-12" d="M93.7,50.19c.15-.15,0-.32,0-.48l.09-.22,0-.06.08-.22,0-.06.11-.34c.12,0,.1-.11.08-.19l0-.08c.12,0,.13-.12.18-.19a.4.4,0,0,1,.63-.09l.18.16c0,.32,0,.64.07,1a6.48,6.48,0,0,1-.59,2.81A12.11,12.11,0,0,1,93.84,54a.48.48,0,0,1-.51.28c-.23,0-.44-.09-.51-.34a4.59,4.59,0,0,1,0-1.17,3,3,0,0,1,.09-.51,5,5,0,0,1,.26-.7.61.61,0,0,1,.11-.41A4.25,4.25,0,0,0,93.7,50.19Z"/><path class="cls-12" d="M101.31,30.9a.5.5,0,0,0,.15-.34,5.81,5.81,0,0,0,.76-1.24,1.76,1.76,0,0,1,.24-.42c.52-.11.54-.1.82.32a4.52,4.52,0,0,1-.7,2.27,35.16,35.16,0,0,1-2.36,3.2,1.07,1.07,0,0,1-.48.36c-.27.05-.45-.13-.67-.22.29-.57.66-1.08,1-1.63s.76-1.26,1.09-1.92a.41.41,0,0,0,.09-.28l0-.05Z"/><path class="cls-5" d="M87.32,66.84a1.43,1.43,0,0,0,.72.61c-.14.27-.28.55-.43.82,0,.09-.07.2-.17.24-.48-.2-.58-.16-.85.31-.13.23-.26.45-.38.68a16.83,16.83,0,0,0-1.54,3.69c-.13.5,0,.71.56.77-.14.58-.3,1.17-.42,1.76a6.4,6.4,0,0,0-.26,1.44.58.58,0,0,1-.48.5.63.63,0,0,1-.73-.44s.12,0,.08-.07c-.27-.37-.1-.75,0-1.11s.21-.82.32-1.22l0-.09,0-.08,0-.09,0-.07a.06.06,0,0,1,0,0l0-.07c.68-1.52,1.15-3.12,1.84-4.63A26.5,26.5,0,0,1,87.32,66.84Z"/><path class="cls-12" d="M85.23,74c-.53-.06-.69-.27-.56-.77a16.83,16.83,0,0,1,1.54-3.69c.12-.23.25-.45.38-.68.27-.47.37-.51.85-.31a1.47,1.47,0,0,1-.08.51c-.38,1.1-.89,2.14-1.31,3.22a11.36,11.36,0,0,0-.44,1.28A.67.67,0,0,1,85.23,74Z"/><path class="cls-7" d="M90.88,62.24a.83.83,0,0,0-.89-.33c.14-.44.4-.83.58-1.25.3-.72.64-1.43,1-2.14l.11-.19c.1-.19.23-.33.46-.23s.17.3.14.46a12.63,12.63,0,0,1-.78,2.49A7.75,7.75,0,0,1,90.88,62.24Z"/><path class="cls-5" d="M99.07,34.83c.22.09.4.27.67.22a5.51,5.51,0,0,1-.59,1c-.57.91-1.17,1.8-1.75,2.69a.26.26,0,0,1-.49,0,.23.23,0,0,0-.11-.11,13.51,13.51,0,0,1,.85-1.48C98.1,36.35,98.55,35.56,99.07,34.83Z"/><path class="cls-5" d="M95.13,48.42,95,48.26a.4.4,0,0,0-.63.09c0,.07-.06.18-.18.19.15-.69.36-1.36.46-2,.09-.53.16-1.07.23-1.61.37,0,.48.13.53.52a8.66,8.66,0,0,1-.12,2.78A.38.38,0,0,1,95.13,48.42Z"/><path class="cls-12" d="M80.13,76.61c-.06.24.1.45.12.68a3.37,3.37,0,0,0,.09.34c0,.11,0,.24-.09.29s-.23,0-.29-.14l-.06-.12a22.06,22.06,0,0,0-1.51-3c-.1-.16-.15-.35-.25-.52a.4.4,0,0,1,0-.49.36.36,0,0,1,.36.17A28.5,28.5,0,0,1,80,76.27C80.06,76.38,80.09,76.5,80.13,76.61Z"/><path class="cls-7" d="M95.08,41c0-.09.08-.14.12-.21l0-.07a2.27,2.27,0,0,1,.43-.55.05.05,0,0,0,.06-.06h0c.22,0,.3.09.29.32a6.15,6.15,0,0,1-.22.87c-.06.43-.12.86-.17,1.28a.72.72,0,0,1-.08.26c-.17.34-.31.36-.56.06a.41.41,0,0,0-.11-.07v-.1s0,0,0,0a.08.08,0,0,0,0,0,5.43,5.43,0,0,1,0-1s0,0,0-.07v-.1A.51.51,0,0,0,95.08,41Z"/><path class="cls-5" d="M94.72,57.21v0Z"/><path class="cls-7" d="M91.24,102.28a5.85,5.85,0,0,0,1.1-.17c.31,0,.62-.09.93-.09a.45.45,0,0,1,.46.29.51.51,0,0,1-.15.6,1.85,1.85,0,0,1-.62.29c-1,.34-2,.63-3,1a2.56,2.56,0,0,0-1,.62c-.29.3-.59.58-.89.87a8.17,8.17,0,0,1-2.49.55c-.47-.35-.79-.75-.5-1.38,1.66-.73,3.23-1.63,4.93-2.26a4.26,4.26,0,0,1,.93-.25c.07,0,.13,0,.18,0Z"/><path class="cls-5" d="M73.69,106.84a1.29,1.29,0,0,1,.59-.28,12.69,12.69,0,0,1,1.74-.32c.56-.08,1.14-.1,1.69-.2a15.51,15.51,0,0,0,2.05-.42,2,2,0,0,1,.68-.12h.17c.3.45.23.67-.27.89-.25.11-.53.12-.77.25h0c-.09,0-.17,0-.24,0a8.46,8.46,0,0,0-2.27.55c-.85.33-1.74.5-2.6.74C74,107.71,73.62,107.42,73.69,106.84Z"/><path class="cls-8" d="M79.57,106.64c.24-.13.52-.14.77-.25.5-.22.57-.44.27-.89.86-.1,1.72-.22,2.59-.3.46,0,.88-.26,1.34-.27a5.54,5.54,0,0,0,.57-.07c-.29.63,0,1,.5,1.38a10.14,10.14,0,0,1-2,.27c-1,0-2.08,0-3.12.08C80.19,106.6,79.88,106.65,79.57,106.64Z"/><path class="cls-16" d="M87,107.73c-.18.13-.3,0-.43-.1a.9.9,0,0,0-1.42.35,1.55,1.55,0,0,0,0,.52c0,.18-.06.32-.26.37s-.22,0-.29-.11a1.84,1.84,0,0,0-.47-.57,1.32,1.32,0,0,0-1.48-.23c-.08,0-.16.16-.27.06l.57-.49a1,1,0,0,1,.73-.25c.36,0,.74-.16,1.09.06h.07c.29-.24.29-.24.7-.22h0C86.2,106.92,86.62,107.29,87,107.73Z"/><path class="cls-8" d="M73.69,106.84c-.07.58.3.87.73,1.12l-1.68.85a15.12,15.12,0,0,0-1.58.84.35.35,0,0,1,.11-.28,12,12,0,0,1,1.07-1.19l1-1.06A.84.84,0,0,1,73.69,106.84Z"/><path class="cls-8" d="M79.29,106.67c.07-.06.15,0,.24,0A.26.26,0,0,1,79.29,106.67Z"/><path class="cls-8" d="M91.15,102.3c-.05.07-.11.06-.18,0A.2.2,0,0,1,91.15,102.3Z"/><path class="cls-16" d="M87.35,107.66l-.07-.07s.08,0,.13,0Z"/><path class="cls-8" d="M80.51,105.5h0Z"/><path class="cls-16" d="M67,115.85l.07-.06S67.06,115.88,67,115.85Z"/><path class="cls-16" d="M92.71,74.74a1.64,1.64,0,0,1-.62.09.78.78,0,0,1-.87-.83,4.93,4.93,0,0,0,.68.44A3.74,3.74,0,0,1,92.71,74.74Z"/><path class="cls-16" d="M97.62,70a1.43,1.43,0,0,1,.45-.12c0,.11-.07.18-.11.27s0,.34-.18.32-.13-.24-.15-.39A.22.22,0,0,0,97.62,70Z"/><path class="cls-13" d="M93.82,74.41a.14.14,0,0,1,.17,0,.13.13,0,0,1-.14.09Z"/><path class="cls-8" d="M87.33,77.17h.11c0,.07,0,.18-.06.18S87.33,77.23,87.33,77.17Z"/><path class="cls-13" d="M89,43.93l0-.11c.11-.16.23-.22.37,0C89.2,43.74,89.13,43.87,89,43.93Z"/><path class="cls-11" d="M85.73,44l0,0h0Z"/><path class="cls-5" d="M91.93,109.07a4,4,0,0,1-1.34-.49,2.51,2.51,0,0,1-.63-.45.26.26,0,0,1,.31-.41,15,15,0,0,0,1.8.89.24.24,0,0,1,.13.28A.24.24,0,0,1,91.93,109.07Z"/><path class="cls-16" d="M83,113.13a1.33,1.33,0,0,1-.4,0c-.7-.17-.9-.57-.63-1.25.24.19.51.34.57.69S82.82,112.91,83,113.13Z"/><path class="cls-16" d="M86.82,112.67a4.42,4.42,0,0,1-1.73-.2.17.17,0,0,1-.14-.12,2.31,2.31,0,0,0,.79-.08.47.47,0,0,1,.39.1A2.1,2.1,0,0,0,86.82,112.67Z"/><path class="cls-16" d="M87.66,109.57a1,1,0,0,1,.26.55l-.79-.36A2.07,2.07,0,0,0,87.66,109.57Z"/><path class="cls-13" d="M84.2,109.9s0,0,0,0c.19,0,.3.07.24.28-.15,0-.37,0-.37-.29Z"/><path class="cls-2" d="M84.2,109.9l-.09,0,0-.06.06-.05Z"/><path class="cls-3" d="M77,73.62l.05.06Z"/><path class="cls-1" d="M79.51,77.33l0,.08Z"/><path class="cls-7" d="M76.35,96l0,.08Z"/><path class="cls-15" d="M99,88.27a1.64,1.64,0,0,1,1-.64,2.13,2.13,0,0,1,1.69.41,1.39,1.39,0,0,1,.17,1.76,7,7,0,0,0,0-.82,1,1,0,0,0-.63-.77,1.9,1.9,0,0,0-2,.06l-.07,0S99,88.29,99,88.27Z"/><path class="cls-15" d="M99.43,89.71a.67.67,0,0,0-.09.78c.11.17.25.14.41.08s.24-.27.4-.37a.71.71,0,0,1-.65.66c-.26,0-.44-.23-.47-.55S99.14,89.75,99.43,89.71Z"/><path class="cls-16" d="M98.13,91.77a1.14,1.14,0,0,1-1.06-.7.6.6,0,0,1,.12-.6A2.71,2.71,0,0,0,98,91.58.23.23,0,0,1,98.13,91.77Z"/><path class="cls-8" d="M89.43,76.56v0Z"/><path class="cls-1" d="M89.65,62.18l-.05.07A.07.07,0,0,1,89.65,62.18Z"/><path class="cls-8" d="M83.88,74.38l0,.07Z"/><path class="cls-8" d="M83.83,74.49l0,.07Z"/><path class="cls-8" d="M83.77,74.65l0,.08Z"/><path class="cls-3" d="M102.78,92.48l.06,0Z"/><path class="cls-1" d="M95.08,41a.51.51,0,0,1-.16.51A.5.5,0,0,1,95.08,41Z"/><path class="cls-5" d="M94.12,48.62c0,.08,0,.17-.08.19A.22.22,0,0,1,94.12,48.62Z"/><path class="cls-1" d="M94.88,42.65a.08.08,0,0,1,0,0s0,0,0,0Z"/><path class="cls-1" d="M94.92,41.59s0,0,0,.07Z"/><path class="cls-8" d="M93.82,49.43l0,.06S93.79,49.44,93.82,49.43Z"/><path class="cls-8" d="M93.93,49.15l0,.06S93.9,49.16,93.93,49.15Z"/><path class="cls-1" d="M95.25,40.7l0,.07Z"/><path class="cls-1" d="M95.74,40.09a.05.05,0,0,1-.06.06Z"/><path class="cls-15" d="M101.26,31l0,.05Z"/><path class="cls-6" d="M85.11,48.37c.18-.27.37-.31.6-.1a1.3,1.3,0,0,1,.35.54A2.84,2.84,0,0,0,85.11,48.37Z"/><path class="cls-8" d="M85.06,50.88h.08a.12.12,0,0,1,0,.16A.16.16,0,0,1,85.06,50.88Z"/><path class="cls-15" d="M86.37,53.12c.24-.09.44-.17.64-.23a.71.71,0,0,1,.89.36,2.75,2.75,0,0,1,.42,2.14c0,.09,0,.2-.13.28,0-.35-.08-.68-.13-1a5.85,5.85,0,0,0-.55-1.38c-.08-.18-.29-.19-.47-.16A1.87,1.87,0,0,1,86.37,53.12Z"/><path class="cls-6" d="M85.05,54.15a2.24,2.24,0,0,1-.42-.79c0-.1,0-.19.1-.22a1.14,1.14,0,0,1,.85,0A1.8,1.8,0,0,0,85.05,54.15Z"/><path class="cls-15" d="M87,101.24a1.77,1.77,0,0,1,.65.1c.15,0,.16.15.05.25-.47.41-1,.75-1.5,1.12a.28.28,0,0,1-.22,0,6.14,6.14,0,0,1,1.4-1.24c-.12-.13-.27-.12-.38-.2Z"/><path class="cls-8" d="M87.54,100.76c0-.26.11-.43.11-.62C87.8,100.35,87.69,100.53,87.54,100.76Z"/><path class="cls-8" d="M87,101.24v.06a.42.42,0,0,1-.24-.07A.29.29,0,0,1,87,101.24Z"/><path class="cls-4" d="M97.27,69.76h-.06l0-.06Z"/><path class="cls-8" d="M93.2,51.53a5,5,0,0,0-.26.7,3,3,0,0,0-.09.51,2.08,2.08,0,0,1-.19-.73c.21,0,.19-.22.29-.33S93.06,51.49,93.2,51.53Z"/></svg>